SplineFontDB: 3.0
FontName: Spinnaker-Regular
FullName: Spinnaker Regular
FamilyName: Spinnaker
Weight: Book
Copyright: Copyright (c) 2011, Sorkin Type Co (www.sorkintype.com)\nwith Reserved Font Name "Spinnaker".
Version: 1.001
ItalicAngle: 0
UnderlinePosition: -103
UnderlineWidth: 102
Ascent: 1638
Descent: 410
LayerCount: 2
Layer: 0 1 "Back"  1
Layer: 1 1 "Fore"  0
NeedsXUIDChange: 1
XUID: [1021 631 1661839179 2631264]
FSType: 0
OS2Version: 3
OS2_WeightWidthSlopeOnly: 0
OS2_UseTypoMetrics: 1
CreationTime: 1323252480
ModificationTime: 1323239366
PfmFamily: 17
TTFWeight: 400
TTFWidth: 5
LineGap: 0
VLineGap: 0
Panose: 2 11 5 5 3 3 0 0 0 4
OS2TypoAscent: 282
OS2TypoAOffset: 1
OS2TypoDescent: -77
OS2TypoDOffset: 1
OS2TypoLinegap: 0
OS2WinAscent: 0
OS2WinAOffset: 1
OS2WinDescent: 0
OS2WinDOffset: 1
HheadAscent: 0
HheadAOffset: 1
HheadDescent: 0
HheadDOffset: 1
OS2SubXSize: 1434
OS2SubYSize: 1331
OS2SubXOff: 0
OS2SubYOff: 287
OS2SupXSize: 1434
OS2SupYSize: 1331
OS2SupXOff: 0
OS2SupYOff: 977
OS2StrikeYSize: 102
OS2StrikeYPos: 512
OS2Vendor: 'STC '
OS2CodePages: 00000001.00000000
OS2UnicodeRanges: 800000af.40000043.00000000.00000000
Lookup: 4 0 1 "'liga' Standard Ligatures in Latin lookup 0"  {"'liga' Standard Ligatures in Latin lookup 0 subtable"  } ['liga' ('latn' <'dflt' > ) ]
Lookup: 257 0 0 "'cpsp' Capital Spacing in Latin lookup 0"  {"'cpsp' Capital Spacing in Latin lookup 0 subtable"  } ['cpsp' ('latn' <'dflt' > ) ]
DEI: 91125
TtTable: prep
PUSHW_1
 511
SCANCTRL
PUSHB_1
 4
SCANTYPE
EndTTInstrs

StartChar: .notdef
Encoding: 65536 -1 0
Width: 1307
Flags: W
HStem: 0 138<425 889> 863 137<423 892>
VStem: 184 145<230 767> 978 145<239 758>
LayerCount: 2
Fore
SplineSet
184 0 m 1,0,-1
 184 1000 l 1,1,-1
 1123 1000 l 1,2,-1
 1123 0 l 1,3,-1
 184 0 l 1,0,-1
329 767 m 1,4,-1
 329 230 l 1,5,-1
 568 499 l 1,6,-1
 329 767 l 1,4,-1
657 599 m 1,7,-1
 892 863 l 1,8,-1
 423 863 l 1,9,-1
 657 599 l 1,7,-1
425 138 m 1,10,-1
 889 138 l 1,11,-1
 657 398 l 1,12,-1
 425 138 l 1,10,-1
978 239 m 1,13,-1
 978 758 l 1,14,-1
 747 499 l 1,15,-1
 978 239 l 1,13,-1
EndSplineSet
Position2: "'cpsp' Capital Spacing in Latin lookup 0 subtable" dx=16 dy=0 dh=32 dv=0
EndChar

StartChar: a
Encoding: 97 97 5
Width: 1201
Flags: W
HStem: -20 160<341.212 661.713> 509 149<488.295 809> 860 160<294.143 733.114>
VStem: 112 190<180.166 386.104> 809 190<251.166 509 658 787.599>
LayerCount: 2
Fore
SplineSet
837 128 m 1,0,1
 653.762 -20 653.762 -20 452 -20 c 0,2,3
 310.932 -20 310.932 -20 215 54.5 c 0,4,5
 112 134.489 112 134.489 112 263 c 0,6,7
 112 528.555 112 528.555 465.5 617.5 c 0,8,9
 609.199 653.656 609.199 653.656 809 658 c 1,10,11
 803.476 820.949 803.476 820.949 649.5 850.5 c 0,12,13
 600 860 600 860 556 860 c 128,-1,14
 512 860 512 860 478 856 c 128,-1,15
 444 852 444 852 408 845 c 0,16,17
 329.16 829.67 329.16 829.67 274 808 c 1,18,-1
 221 950 l 1,19,20
 361 1020 361 1020 559 1020 c 0,21,22
 868.449 1020 868.449 1020 965.5 823 c 0,23,24
 999 755 999 755 999 661 c 2,25,-1
 999 342 l 2,26,27
 999 240.348 999 240.348 1013.5 205.674 c 0,28,29
 1040.54 141.016 1040.54 141.016 1109 123 c 1,30,-1
 1081 0 l 1,31,32
 1056.04 -2.88 1056.04 -2.88 1033.84 -2.88 c 0,33,34
 887.042 -2.88 887.042 -2.88 837 128 c 1,0,1
406.5 149 m 128,-1,36
 437 140 437 140 481.5 140 c 128,-1,37
 526 140 526 140 576.5 153.5 c 128,-1,38
 627 167 627 167 670.5 189 c 0,39,40
 754.169 231.316 754.169 231.316 809 293 c 1,41,-1
 809 509 l 1,42,43
 571.094 497.338 571.094 497.338 477.547 461.669 c 128,-1,44
 384 426 384 426 343 383.5 c 128,-1,45
 302 341 302 341 302 292 c 128,-1,46
 302 243 302 243 316 217.5 c 128,-1,47
 330 192 330 192 353 175 c 128,-1,35
 376 158 376 158 406.5 149 c 128,-1,36
EndSplineSet
EndChar

StartChar: b
Encoding: 98 98 6
Width: 1269
Flags: W
HStem: -20 160<376.397 780.814> 860 160<487.416 837.141> 1541 20G<184 374>
VStem: 184 190<158.336 771.969 919 1561> 984 190<326.779 702.785>
LayerCount: 2
Fore
SplineSet
374 919 m 1,0,1
 508.667 1020 508.667 1020 698 1020 c 0,2,3
 913.075 1020 913.075 1020 1045 878.5 c 0,4,5
 1174 740.137 1174 740.137 1174 520 c 0,6,7
 1174 280.616 1174 280.616 986 126.5 c 0,8,9
 807.291 -20 807.291 -20 550 -20 c 0,10,11
 436.714 -20 436.714 -20 325.857 -4 c 128,-1,12
 215 12 215 12 184 20 c 1,13,-1
 184 1561 l 1,14,-1
 374 1561 l 1,15,-1
 374 919 l 1,0,1
374 174 m 1,16,17
 450.5 140 450.5 140 552.75 140 c 128,-1,18
 655 140 655 140 731 165 c 128,-1,19
 807 190 807 190 863 237 c 0,20,21
 984 338.554 984 338.554 984 508 c 0,22,23
 984 657.13 984 657.13 905.5 755 c 0,24,25
 821.281 860 821.281 860 685 860 c 0,26,27
 538 860 538 860 431.5 782 c 0,28,29
 396 756 396 756 374 722 c 1,30,-1
 374 174 l 1,16,17
EndSplineSet
EndChar

StartChar: c
Encoding: 99 99 7
Width: 990
Flags: W
HStem: -20 160<446.546 850.369> 864 156<434.094 796.056>
VStem: 95 190<309.706 701.709>
LayerCount: 2
Fore
SplineSet
921 214 m 1,0,-1
 956 73 l 1,1,2
 830.808 -20 830.808 -20 588 -20 c 0,3,4
 356.067 -20 356.067 -20 224 121.5 c 0,5,6
 95 259.714 95 259.714 95 498 c 0,7,8
 95 719.752 95 719.752 240.5 869.5 c 0,9,10
 386.73 1020 386.73 1020 607 1020 c 0,11,12
 804.75 1020 804.75 1020 929 929 c 1,13,-1
 863 780 l 1,14,15
 750.263 864 750.263 864 589 864 c 0,16,17
 450.835 864 450.835 864 366 758.5 c 0,18,19
 285 657.769 285 657.769 285 510 c 0,20,21
 285 351.325 285 351.325 369.5 248.5 c 0,22,23
 458.663 140 458.663 140 614.858 140 c 128,-1,24
 771.053 140 771.053 140 921 214 c 1,0,-1
EndSplineSet
EndChar

StartChar: d
Encoding: 100 100 8
Width: 1269
Flags: W
HStem: -20 160<428.485 787.09> 0 21G<933.895 1085> 860 160<488.588 892.189> 1541 20G<895 1085>
VStem: 95 190<297.338 673.221> 895 190<225.189 845.352 1005 1561> 940 145<0 46.9628>
LayerCount: 2
Fore
SplineSet
482 982 m 128,-1,1
 595 1020 595 1020 707.5 1020 c 128,-1,2
 820 1020 820 1020 895 1005 c 1,3,-1
 895 1561 l 1,4,-1
 1085 1561 l 1,5,-1
 1085 0 l 1,6,-1
 940 0 l 1,7,-1
 911 95 l 1,8,9
 769.864 -20 769.864 -20 571 -20 c 0,10,11
 355.925 -20 355.925 -20 224 121.5 c 0,12,13
 95 259.863 95 259.863 95 480 c 0,14,15
 95 719.384 95 719.384 283 873.5 c 0,16,0
 369 944 369 944 482 982 c 128,-1,1
895 836 m 1,17,18
 790.273 860 790.273 860 702.136 860 c 128,-1,19
 614 860 614 860 538 835 c 128,-1,20
 462 810 462 810 406 763 c 0,21,22
 285 661.446 285 661.446 285 492 c 0,23,24
 285 343.526 285 343.526 363 245 c 0,25,26
 446.125 140 446.125 140 584 140 c 0,27,28
 740.1 140 740.1 140 841.5 218 c 0,29,30
 874 243 874 243 895 276 c 1,31,-1
 895 836 l 1,17,18
EndSplineSet
EndChar

StartChar: e
Encoding: 101 101 9
Width: 1106
Flags: W
HStem: -20 160<424.994 884.98> 400 147<294 829> 864 156<433.879 738.119>
VStem: 833 177<547.256 768.171>
LayerCount: 2
Fore
SplineSet
979.5 778.5 m 128,-1,1
 1010 698 1010 698 1010 609 c 128,-1,2
 1010 520 1010 520 990 400 c 1,3,-1
 294 400 l 1,4,5
 316 279 316 279 392 209.5 c 128,-1,6
 468 140 468 140 607 140 c 0,7,8
 792.571 140 792.571 140 948 208 c 1,9,-1
 980 65 l 1,10,11
 877.348 5.11993 877.348 5.11993 686.5 -14.5 c 0,12,13
 633 -20 633 -20 548 -20 c 128,-1,14
 463 -20 463 -20 370 14 c 128,-1,15
 277 48 277 48 216 114 c 0,16,17
 95 244.918 95 244.918 95 498 c 0,18,19
 95 719.752 95 719.752 240.5 869.5 c 0,20,21
 386.73 1020 386.73 1020 607 1020 c 0,22,23
 788 1020 788 1020 895.5 912.5 c 0,24,0
 949 859 949 859 979.5 778.5 c 128,-1,1
829 547 m 1,25,-1
 833 601 l 1,26,27
 833 784.435 833 784.435 696 844 c 0,28,29
 650 864 650 864 586 864 c 128,-1,30
 522 864 522 864 468.5 839 c 128,-1,31
 415 814 415 814 376 771 c 0,32,33
 296.487 683.332 296.487 683.332 286 547 c 1,34,-1
 829 547 l 1,25,-1
EndSplineSet
EndChar

StartChar: f
Encoding: 102 102 10
Width: 776
Flags: W
HStem: 0 21G<204 395> 846 154<19 204 395 781> 1404 156<488.495 839.409>
VStem: 204 191<0 846 1000 1298.34>
LayerCount: 2
Fore
SplineSet
832 1355 m 1,0,1
 738.455 1404 738.455 1404 647.227 1404 c 128,-1,2
 556 1404 556 1404 510.5 1376 c 128,-1,3
 465 1348 465 1348 439.5 1300 c 0,4,5
 395 1216.24 395 1216.24 395 1050 c 2,6,-1
 395 1000 l 1,7,-1
 781 1000 l 1,8,-1
 781 846 l 1,9,-1
 395 846 l 1,10,-1
 395 0 l 1,11,-1
 204 0 l 1,12,-1
 204 846 l 1,13,-1
 19 846 l 1,14,-1
 19 1000 l 1,15,-1
 204 1000 l 1,16,-1
 204 1038 l 2,17,18
 204 1412.07 204 1412.07 447 1522 c 0,19,20
 531 1560 531 1560 619 1560 c 0,21,22
 764.304 1560 764.304 1560 877 1506 c 1,23,-1
 832 1355 l 1,0,1
EndSplineSet
EndChar

StartChar: g
Encoding: 103 103 11
Width: 1229
Flags: W
HStem: -487 160<441.819 841.264> 338 148<478.788 803.601> 871 149<472.888 798.562 1039.59 1204>
VStem: 137 186<235.014 409.355> 162 190<-251.608 -32.2199> 223 177<560.421 800.499> 878 177<556.117 795.813> 937 190<-244.868 -62.7924>
LayerCount: 2
Fore
SplineSet
269 515 m 1,0,1
 223 586.091 223 586.091 223 670.545 c 128,-1,2
 223 755 223 755 258.5 819.5 c 128,-1,3
 294 884 294 884 353 928.5 c 0,4,5
 474.315 1020 474.315 1020 642.891 1020 c 128,-1,6
 811.467 1020 811.467 1020 928 928 c 1,7,8
 994.383 991.366 994.383 991.366 1134 1013.5 c 0,9,10
 1175 1020 1175 1020 1212 1020 c 1,11,-1
 1204 865 l 1,12,13
 1085.23 851.803 1085.23 851.803 1021 818 c 1,14,15
 1055 752.125 1055 752.125 1055 676.062 c 128,-1,16
 1055 600 1055 600 1019.5 536 c 128,-1,17
 984 472 984 472 925 428 c 0,18,19
 804.318 338 804.318 338 644.416 338 c 128,-1,20
 484.514 338 484.514 338 371 413 c 1,21,22
 323 355.857 323 355.857 323 306.429 c 128,-1,23
 323 257 323 257 357.5 236 c 128,-1,24
 392 215 392 215 448.5 202 c 128,-1,25
 505 189 505 189 577.5 180.5 c 128,-1,26
 650 172 650 172 725 162 c 128,-1,27
 800 152 800 152 872.5 136.5 c 128,-1,28
 945 121 945 121 1001.5 93.5 c 0,29,30
 1127 32.4159 1127 32.4159 1127 -84 c 0,31,32
 1127 -260.213 1127 -260.213 969.5 -377.5 c 0,33,34
 822.457 -487 822.457 -487 627 -487 c 0,35,36
 442.6 -487 442.6 -487 313 -415 c 0,37,38
 162 -331.111 162 -331.111 162 -179 c 0,39,40
 162 -82.7907 162 -82.7907 236.5 12.5 c 0,41,42
 258 40 258 40 282 62 c 1,43,44
 137 117.769 137 117.769 137 241 c 0,45,46
 137 398.231 137 398.231 269 515 c 1,0,1
421 26 m 1,47,48
 352 -49.6774 352 -49.6774 352 -155 c 0,49,50
 352 -240.302 352 -240.302 451 -287.5 c 0,51,52
 533.854 -327 533.854 -327 613.927 -327 c 128,-1,53
 694 -327 694 -327 746 -316.5 c 128,-1,54
 798 -306 798 -306 840.5 -283 c 0,55,56
 937 -230.776 937 -230.776 937 -137 c 0,57,58
 937 -48.3529 937 -48.3529 765 -18 c 0,59,60
 691.123 -4.96297 691.123 -4.96297 584.562 5.51852 c 128,-1,61
 478 16 478 16 421 26 c 1,47,48
551 498 m 128,-1,63
 595 486 595 486 643 486 c 128,-1,64
 691 486 691 486 733.5 498 c 128,-1,65
 776 510 776 510 808 533.5 c 0,66,67
 878 584.906 878 584.906 878 674 c 0,68,69
 878 768.324 878 768.324 805 822 c 0,70,71
 738.36 871 738.36 871 633 871 c 0,72,73
 476.535 871 476.535 871 419 763.5 c 0,74,75
 400 728 400 728 400 680 c 128,-1,76
 400 632 400 632 419.5 595.5 c 128,-1,77
 439 559 439 559 473 534.5 c 128,-1,62
 507 510 507 510 551 498 c 128,-1,63
EndSplineSet
EndChar

StartChar: h
Encoding: 104 104 12
Width: 1337
Flags: W
HStem: 0 21G<184 374 984.961 1174> 860 160<491.638 870.962> 1542 20G<184 374>
VStem: 184 190<0 770.674 913 1561> 985 189<0 738.188>
LayerCount: 2
Fore
SplineSet
374 913 m 1,0,1
 521.762 1020 521.762 1020 718 1020 c 0,2,3
 1174 1020 1174 1020 1174 519 c 2,4,-1
 1174 0 l 1,5,-1
 985 0 l 1,6,-1
 984 507 l 2,7,8
 984 679.785 984 679.785 924.5 764 c 0,9,10
 856.674 860 856.674 860 705 860 c 0,11,12
 542.176 860 542.176 860 431.5 780.5 c 0,13,14
 396 755 396 755 374 722 c 1,15,-1
 374 0 l 1,16,-1
 184 0 l 1,17,-1
 184 1562 l 1,18,-1
 374 1561 l 1,19,-1
 374 913 l 1,0,1
EndSplineSet
EndChar

StartChar: i
Encoding: 105 105 13
Width: 558
Flags: W
HStem: 0 21G<184 374> 980 20G<184 374> 1287 247<190.068 367.932>
VStem: 155 248<1322.07 1499.45> 184 190<0 1000>
LayerCount: 2
Fore
SplineSet
184 1000 m 1,0,-1
 374 1000 l 1,1,-1
 374 0 l 1,2,-1
 184 0 l 1,3,-1
 184 1000 l 1,0,-1
189 1321 m 128,-1,5
 155 1355 155 1355 155 1411 c 128,-1,6
 155 1467 155 1467 189 1500.5 c 128,-1,7
 223 1534 223 1534 279 1534 c 128,-1,8
 335 1534 335 1534 369 1500.5 c 128,-1,9
 403 1467 403 1467 403 1411 c 128,-1,10
 403 1355 403 1355 369 1321 c 128,-1,11
 335 1287 335 1287 279 1287 c 128,-1,4
 223 1287 223 1287 189 1321 c 128,-1,5
EndSplineSet
EndChar

StartChar: j
Encoding: 106 106 14
Width: 558
Flags: W
HStem: 980 20G<184 374> 1287 247<190.068 367.932>
VStem: 155 248<1322.07 1499.45> 184 190<-279.579 1000>
LayerCount: 2
Fore
SplineSet
55 -356 m 1,0,1
 126.429 -313.143 126.429 -313.143 154.5 -257 c 0,2,3
 184 -198 184 -198 184 -85 c 2,4,-1
 184 1000 l 1,5,-1
 374 1000 l 1,6,-1
 374 -65 l 2,7,8
 374 -307.222 374 -307.222 244 -417 c 0,9,10
 199 -455 199 -455 135 -485 c 1,11,-1
 55 -356 l 1,0,1
189 1321 m 128,-1,13
 155 1355 155 1355 155 1411 c 128,-1,14
 155 1467 155 1467 189 1500.5 c 128,-1,15
 223 1534 223 1534 279 1534 c 128,-1,16
 335 1534 335 1534 369 1500.5 c 128,-1,17
 403 1467 403 1467 403 1411 c 128,-1,18
 403 1355 403 1355 369 1321 c 128,-1,19
 335 1287 335 1287 279 1287 c 128,-1,12
 223 1287 223 1287 189 1321 c 128,-1,13
EndSplineSet
EndChar

StartChar: k
Encoding: 107 107 15
Width: 1112
Flags: W
HStem: -1.46154 136.462<926.724 976.842 978.39 1038> 0 21G<184 374> 980 20G<802.591 1045> 1541 20G<184 374>
VStem: 184 190<0 501 560 1561>
LayerCount: 2
Fore
SplineSet
184 0 m 1,0,-1
 184 1561 l 1,1,-1
 374 1561 l 1,2,-1
 374 560 l 1,3,-1
 823 1000 l 1,4,-1
 1045 1000 l 1,5,-1
 575 540 l 1,6,-1
 855 238 l 1,7,8
 944.411 143.756 944.411 143.756 1067 135 c 1,9,-1
 1038 0 l 1,10,11
 1002.31 -4.92308 1002.31 -4.92308 977.615 -4.92308 c 128,-1,12
 952.923 -4.92308 952.923 -4.92308 922.462 -1.46154 c 128,-1,13
 892 2 892 2 857 17 c 0,14,15
 796.474 42.9398 796.474 42.9398 735 111 c 1,16,-1
 374 501 l 1,17,-1
 374 0 l 1,18,-1
 184 0 l 1,0,-1
EndSplineSet
EndChar

StartChar: l
Encoding: 108 108 16
Width: 556
Flags: W
HStem: 1541 20G<184 374>
VStem: 184 190<206.774 1561>
LayerCount: 2
Fore
SplineSet
374 1561 m 1,0,-1
 374 342 l 2,1,2
 374 240.348 374 240.348 388.5 205.674 c 0,3,4
 415.539 141.016 415.539 141.016 484 123 c 1,5,-1
 456 0 l 1,6,7
 428.899 -3.50725 428.899 -3.50725 391.5 -3.50725 c 128,-1,8
 354.101 -3.50725 354.101 -3.50725 309.551 16.2464 c 128,-1,9
 265 36 265 36 235 82.5 c 0,10,11
 184 161.55 184 161.55 184 328 c 2,12,-1
 184 1561 l 1,13,-1
 374 1561 l 1,0,-1
EndSplineSet
EndChar

StartChar: m
Encoding: 109 109 17
Width: 1902
Flags: W
HStem: 0 21G<184 374 874 1064 1549 1739> 860 160<478.876 789.181 1156.38 1465.95> 980 20G<184 334.895>
VStem: 184 190<0 769.816> 184 145<951.36 1000> 874 190<0 713.337> 1549 190<0 769.469>
LayerCount: 2
Fore
SplineSet
1047 716 m 1,0,1
 1064 631 1064 631 1064 519 c 2,2,-1
 1064 0 l 1,3,-1
 874 0 l 1,4,-1
 874 507 l 2,5,6
 874 685.583 874 685.583 843 746.292 c 128,-1,7
 812 807 812 807 766.5 833.5 c 128,-1,8
 721 860 721 860 663 860 c 128,-1,9
 605 860 605 860 565.5 850 c 128,-1,10
 526 840 526 840 490.5 821.5 c 0,11,12
 416.674 783.027 416.674 783.027 374 718 c 1,13,-1
 374 0 l 1,14,-1
 184 0 l 1,15,-1
 184 1000 l 1,16,-1
 329 1000 l 1,17,-1
 357 905 l 1,18,19
 487 1020 487 1020 658 1020 c 0,20,21
 897.27 1020 897.27 1020 993 866 c 1,22,23
 1080.68 968.299 1080.68 968.299 1225 1006.5 c 0,24,25
 1276 1020 1276 1020 1363.5 1020 c 128,-1,26
 1451 1020 1451 1020 1529 986 c 128,-1,27
 1607 952 1607 952 1653.5 887.5 c 0,28,29
 1739 768.903 1739 768.903 1739 519 c 2,30,-1
 1739 0 l 1,31,-1
 1549 0 l 1,32,-1
 1549 507 l 2,33,34
 1549 685.583 1549 685.583 1518 746.292 c 128,-1,35
 1487 807 1487 807 1441.5 833.5 c 128,-1,36
 1396 860 1396 860 1338 860 c 128,-1,37
 1280 860 1280 860 1240 849.5 c 128,-1,38
 1200 839 1200 839 1164 820.5 c 0,39,40
 1088.96 781.938 1088.96 781.938 1047 716 c 1,0,1
EndSplineSet
EndChar

StartChar: n
Encoding: 110 110 18
Width: 1337
Flags: W
HStem: 0 21G<184 374 984 1174> 860 160<493.089 870.962> 980 20G<184 334.859>
VStem: 184 190<0 770.674> 184 145<951.06 1000> 984 190<0 738.188>
LayerCount: 2
Fore
SplineSet
358 901 m 1,0,1
 514.864 1020 514.864 1020 718 1020 c 0,2,3
 1174 1020 1174 1020 1174 519 c 2,4,-1
 1174 0 l 1,5,-1
 984 0 l 1,6,-1
 984 507 l 2,7,8
 984 679.785 984 679.785 924.5 764 c 0,9,10
 856.674 860 856.674 860 705 860 c 0,11,12
 542.176 860 542.176 860 431.5 780.5 c 0,13,14
 396 755 396 755 374 722 c 1,15,-1
 374 0 l 1,16,-1
 184 0 l 1,17,-1
 184 1000 l 1,18,-1
 329 1000 l 1,19,-1
 358 901 l 1,0,1
EndSplineSet
EndChar

StartChar: o
Encoding: 111 111 19
Width: 1290
Flags: W
HStem: -20 160<466.813 826.855> 860 160<460.604 821.18>
VStem: 95 190<323.043 680.919> 1005 190<316.61 674.543>
LayerCount: 2
Fore
SplineSet
655 1020 m 0,0,1
 769 1020 769 1020 867.5 982.5 c 128,-1,2
 966 945 966 945 1039 877 c 0,3,4
 1195 731.685 1195 731.685 1195 504 c 0,5,6
 1195 281.353 1195 281.353 1028.5 129 c 0,7,8
 865.664 -20 865.664 -20 636 -20 c 0,9,10
 402.481 -20 402.481 -20 250.5 121.5 c 0,11,12
 95 266.276 95 266.276 95 492 c 0,13,14
 95 716.059 95 716.059 261.5 869.5 c 0,15,16
 424.809 1020 424.809 1020 655 1020 c 0,0,1
651.5 140 m 0,17,18
 729 140 729 140 793 167 c 128,-1,19
 857 194 857 194 904.5 241.5 c 0,20,21
 1005 342 1005 342 1005 493 c 0,22,23
 1005 651 1005 651 900 756 c 0,24,25
 796 860 796 860 636 860 c 0,26,27
 487.427 860 487.427 860 385.5 757 c 0,28,29
 285 655.442 285 655.442 285 504 c 0,30,31
 285 346.429 285 346.429 390 242.5 c 0,32,33
 493.557 140 493.557 140 651.5 140 c 0,17,18
EndSplineSet
EndChar

StartChar: p
Encoding: 112 112 20
Width: 1269
Flags: W
HStem: -20 160<377.856 810.14> 860 160<481.066 843.806> 980 20G<184 334.833>
VStem: 184 190<-467 2 163.493 775.008> 184 145<950.848 1000> 984 190<314.896 710.528>
LayerCount: 2
Fore
SplineSet
601.8 -20 m 0,0,1
 479.6 -20 479.6 -20 374 2 c 1,2,-1
 374 -467 l 1,3,-1
 184 -467 l 1,4,-1
 184 1000 l 1,5,-1
 329 1000 l 1,6,-1
 357 904 l 1,7,8
 499.364 1020 499.364 1020 698 1020 c 0,9,10
 913.791 1020 913.791 1020 1045 883.5 c 0,11,12
 1174 749.298 1174 749.298 1174 530 c 0,13,14
 1174 284.882 1174 284.882 1010.5 131 c 0,15,16
 850.062 -20 850.062 -20 601.8 -20 c 0,0,1
374 173 m 1,17,18
 515.429 140 515.429 140 610.214 140 c 128,-1,19
 705 140 705 140 773 166.5 c 128,-1,20
 841 193 841 193 888 242 c 0,21,22
 984 342.085 984 342.085 984 518 c 0,23,24
 984 665.688 984 665.688 905.5 760.5 c 0,25,26
 823.118 860 823.118 860 685 860 c 0,27,28
 526.549 860 526.549 860 426.5 781.5 c 0,29,30
 394 756 394 756 374 723 c 1,31,-1
 374 173 l 1,17,18
EndSplineSet
EndChar

StartChar: q
Encoding: 113 113 21
Width: 1269
Flags: W
HStem: -21 160<429.817 781.45> 859 160<455.458 877.807>
VStem: 95 190<296.338 688.156> 895 190<-468 80 227.031 827.262>
LayerCount: 2
Fore
SplineSet
1085 942 m 1,0,-1
 1085 -468 l 1,1,-1
 895 -468 l 1,2,-1
 895 80 l 1,3,4
 760.333 -21 760.333 -21 571 -21 c 0,5,6
 355.925 -21 355.925 -21 224 120.5 c 0,7,8
 95 258.863 95 258.863 95 479 c 0,9,10
 95 721.948 95 721.948 260.5 872.5 c 0,11,12
 421.546 1019 421.546 1019 668.347 1019 c 128,-1,13
 915.147 1019 915.147 1019 1085 942 c 1,0,-1
895 807 m 1,14,15
 795.727 859 795.727 859 682.364 859 c 128,-1,16
 569 859 569 859 500 834 c 128,-1,17
 431 809 431 809 383.5 762 c 0,18,19
 285 664.537 285 664.537 285 491 c 0,20,21
 285 342.526 285 342.526 363 244 c 0,22,23
 446.125 139 446.125 139 584 139 c 0,24,25
 731 139 731 139 837.5 217 c 0,26,27
 873 243 873 243 895 277 c 1,28,-1
 895 807 l 1,14,15
EndSplineSet
EndChar

StartChar: r
Encoding: 114 114 22
Width: 850
Flags: W
HStem: 0 21G<184 374> 827 193<515.378 765.699> 980 20G<184 344.497>
VStem: 184 190<0 645.526> 184 157<918.016 1000>
LayerCount: 2
Fore
SplineSet
758 791 m 1,0,1
 696.588 827 696.588 827 633.294 827 c 128,-1,2
 570 827 570 827 528.5 795 c 128,-1,3
 487 763 487 763 455.5 714 c 0,4,5
 394.975 619.85 394.975 619.85 374 494 c 1,6,-1
 374 0 l 1,7,-1
 184 0 l 1,8,-1
 184 1000 l 1,9,-1
 341 1000 l 1,10,-1
 373 817 l 1,11,12
 450.316 957.575 450.316 957.575 570 1003.5 c 0,13,14
 613 1020 613 1020 648.5 1020 c 128,-1,15
 684 1020 684 1020 701 1018.5 c 128,-1,16
 718 1017 718 1017 734 1013.5 c 0,17,18
 766.31 1006.43 766.31 1006.43 801 990 c 1,19,-1
 758 791 l 1,0,1
EndSplineSet
EndChar

StartChar: s
Encoding: 115 115 23
Width: 988
Flags: W
HStem: -20 151<279.466 663.185> 869 151<339.005 695.419>
VStem: 115 190<676.32 833.403> 714 189<180.614 354.092>
LayerCount: 2
Fore
SplineSet
696.5 210.5 m 128,-1,1
 714 238 714 238 714 275.5 c 128,-1,2
 714 313 714 313 688.5 338.5 c 128,-1,3
 663 364 663 364 620.5 383.5 c 128,-1,4
 578 403 578 403 524.5 420 c 2,5,-1
 414.5 456 l 1,6,7
 273.165 503.528 273.165 503.528 219.583 545.764 c 128,-1,8
 166 588 166 588 140.5 633 c 128,-1,9
 115 678 115 678 115 744.5 c 128,-1,10
 115 811 115 811 146.5 863.5 c 128,-1,11
 178 916 178 916 231 951 c 0,12,13
 335.486 1020 335.486 1020 472.243 1020 c 0,14,15
 717.745 1020 717.745 1020 868 913 c 1,16,-1
 794 774 l 1,17,18
 639.625 869 639.625 869 479 869 c 0,19,20
 366.295 869 366.295 869 320.5 804 c 0,21,22
 305 782 305 782 305 749 c 128,-1,23
 305 716 305 716 330.5 692 c 128,-1,24
 356 668 356 668 398 649.5 c 128,-1,25
 440 631 440 631 494 614.5 c 2,26,-1
 604 579.5 l 1,27,28
 743.771 533.326 743.771 533.326 797.885 490.163 c 0,29,30
 903 406.321 903 406.321 903 290 c 0,31,32
 903 138.6 903 138.6 776.5 55 c 0,33,34
 663.013 -20 663.013 -20 489 -20 c 0,35,36
 307.064 -20 307.064 -20 159.5 51.5 c 0,37,38
 111 75 111 75 73 107 c 1,39,-1
 144 245 l 1,40,41
 261.864 164.356 261.864 164.356 414 139 c 0,42,43
 462 131 462 131 504 131 c 128,-1,44
 546 131 546 131 583 139 c 128,-1,45
 620 147 620 147 649.5 165 c 128,-1,0
 679 183 679 183 696.5 210.5 c 128,-1,1
EndSplineSet
EndChar

StartChar: t
Encoding: 116 116 24
Width: 694
Flags: W
HStem: 0 135<466.786 537> 846 154<355 641>
VStem: 165 190<211.562 846>
LayerCount: 2
Fore
SplineSet
465.742 -4.78049 m 0,0,1
 165 -4.78049 165 -4.78049 165 414 c 2,2,-1
 165 846 l 1,3,-1
 58 846 l 1,4,-1
 58 970 l 1,5,-1
 304 1155 l 1,6,-1
 355 1155 l 1,7,-1
 355 1000 l 1,8,-1
 641 1000 l 1,9,-1
 641 846 l 1,10,-1
 355 846 l 1,11,-1
 355 442 l 2,12,13
 355 272.312 355 272.312 398 210.5 c 0,14,15
 440.848 148.906 440.848 148.906 566 135 c 1,16,-1
 537 0 l 1,17,18
 499.098 -4.78049 499.098 -4.78049 465.742 -4.78049 c 0,0,1
EndSplineSet
EndChar

StartChar: u
Encoding: 117 117 25
Width: 1295
Flags: W
HStem: -20 160<454.477 809.301> 0 21G<960.021 1111> 980 20G<163 353 921 1111>
VStem: 163 190<253.714 1000> 921 190<230.578 1000> 966 145<0 47.9514>
LayerCount: 2
Fore
SplineSet
937 97 m 1,0,1
 798.727 -20 798.727 -20 603 -20 c 0,2,3
 363.317 -20 363.317 -20 259.5 107 c 0,4,5
 163 225.049 163 225.049 163 481 c 2,6,-1
 163 1000 l 1,7,-1
 353 1000 l 1,8,-1
 353 493 l 2,9,10
 353 319.483 353 319.483 405 237 c 0,11,12
 466.152 140 466.152 140 616 140 c 0,13,14
 768.846 140 768.846 140 869 224 c 0,15,16
 900 250 900 250 921 281 c 1,17,-1
 921 1000 l 1,18,-1
 1111 1000 l 1,19,-1
 1111 0 l 1,20,-1
 966 0 l 1,21,-1
 937 97 l 1,0,1
EndSplineSet
EndChar

StartChar: v
Encoding: 118 118 26
Width: 1057
Flags: W
HStem: 0 21G<422.2 634.8> 980 20G<40 347.067 827.193 1017>
LayerCount: 2
Fore
SplineSet
40 1000 m 1,0,-1
 237 1000 l 1,1,2
 457.135 436.497 457.135 436.497 475.067 386.749 c 2,3,4
 505 301 l 2,5,6
 519 259 519 259 531 219 c 1,7,-1
 543 219 l 1,8,9
 597 386.5 l 2,10,11
 611 428 611 428 625 462 c 2,12,-1
 835 1000 l 1,13,-1
 1017 1000 l 1,14,-1
 627 0 l 1,15,-1
 430 0 l 1,16,-1
 40 1000 l 1,0,-1
EndSplineSet
EndChar

StartChar: w
Encoding: 119 119 27
Width: 1613
Flags: W
HStem: 0 21G<385.4 572.403 1040.3 1227.6> 980 20G<62 257.282 705.575 907.374 1370.39 1551>
LayerCount: 2
Fore
SplineSet
62 1000 m 1,0,-1
 251 1000 l 1,1,-1
 387 567 l 2,2,3
 401 524 401 524 415.5 468.5 c 2,4,-1
 473 243 l 1,5,-1
 484 243 l 1,6,-1
 541 458.5 l 2,7,8
 556 513 556 513 570 558 c 2,9,-1
 712 1000 l 1,10,-1
 901 1000 l 1,11,-1
 1039 567 l 2,12,13
 1055 517 1055 517 1071 461 c 0,14,15
 1107.91 327.364 1107.91 327.364 1129 243 c 1,16,-1
 1140 243 l 1,17,-1
 1169 351 l 2,18,19
 1199.33 463 1199.33 463 1233 564 c 2,20,-1
 1377 1000 l 1,21,-1
 1551 1000 l 1,22,-1
 1221 0 l 1,23,-1
 1047 0 l 1,24,-1
 801 734 l 1,25,-1
 566 0 l 1,26,-1
 392 0 l 1,27,-1
 62 1000 l 1,0,-1
EndSplineSet
EndChar

StartChar: x
Encoding: 120 120 28
Width: 1069
Flags: W
HStem: 0 21G<46 262.894 795 1023> 980 20G<56 284.028 796.083 1013>
LayerCount: 2
Fore
SplineSet
428 509 m 1,0,-1
 56 1000 l 1,1,-1
 269 1000 l 1,2,-1
 541 638 l 1,3,-1
 811 1000 l 1,4,-1
 1013 1000 l 1,5,-1
 641 505 l 1,6,-1
 1023 0 l 1,7,-1
 810 0 l 1,8,-1
 528 376 l 1,9,-1
 248 0 l 1,10,-1
 46 0 l 1,11,-1
 428 509 l 1,0,-1
EndSplineSet
EndChar

StartChar: y
Encoding: 121 121 29
Width: 1057
Flags: W
HStem: -487 169<73.1429 299.116> 980 20G<40 244.735 827.21 1017>
LayerCount: 2
Fore
SplineSet
438 -20 m 1,0,-1
 40 1000 l 1,1,-1
 237 1000 l 1,2,-1
 447 457 l 2,3,4
 464 413 464 413 478 368 c 2,5,-1
 503 286 l 1,6,7
 515 243 515 243 525 203 c 1,8,-1
 535 203 l 1,9,10
 558 276 l 2,11,12
 583.698 355.429 583.698 355.429 620 448 c 2,13,-1
 835 1000 l 1,14,-1
 1017 1000 l 1,15,-1
 622 0 l 2,16,17
 478.219 -365.705 478.219 -365.705 308 -455 c 0,18,19
 247 -487 247 -487 191.5 -487 c 128,-1,20
 136 -487 136 -487 107.5 -478 c 128,-1,21
 79 -469 79 -469 47 -444 c 1,22,-1
 79 -299 l 1,23,24
 130 -318 130 -318 183.5 -318 c 128,-1,25
 237 -318 237 -318 270 -296.5 c 128,-1,26
 303 -275 303 -275 330.5 -238.5 c 0,27,28
 378.072 -175.359 378.072 -175.359 428 -46 c 2,29,-1
 438 -20 l 1,0,-1
EndSplineSet
EndChar

StartChar: z
Encoding: 122 122 30
Width: 954
Flags: W
HStem: 0 148<298 876> 852 148<106 646>
LayerCount: 2
Fore
SplineSet
106 1000 m 1,0,-1
 858 1000 l 1,1,-1
 858 852 l 1,2,-1
 298 148 l 1,3,-1
 876 148 l 1,4,-1
 876 0 l 1,5,-1
 86 0 l 1,6,-1
 86 148 l 1,7,-1
 646 852 l 1,8,-1
 106 852 l 1,9,-1
 106 1000 l 1,0,-1
EndSplineSet
EndChar

StartChar: A
Encoding: 65 65 31
Width: 1430
Flags: W
HStem: 0 21G<25 224.355 1194.35 1405> 310 168<439 997> 1396 20G<677.65 800.658>
LayerCount: 2
Fore
SplineSet
1405 0 m 1,0,-1
 1203 0 l 1,1,-1
 1069 310 l 1,2,-1
 360 310 l 1,3,-1
 215 0 l 1,4,-1
 25 0 l 1,5,-1
 687 1416 l 1,6,-1
 792 1416 l 1,7,-1
 1405 0 l 1,0,-1
439 478 m 1,8,-1
 997 478 l 1,9,-1
 869 775 l 2,10,11
 845 831 845 831 822.5 891 c 2,12,-1
 782 1003.5 l 1,13,14
 744 1114.33 744 1114.33 737 1154 c 1,15,-1
 725 1154 l 1,16,17
 716.68 1114.48 716.68 1114.48 688.84 1040.24 c 1,18,19
 638 910 l 1,20,21
 615 854 615 854 588 796 c 2,22,-1
 439 478 l 1,8,-1
EndSplineSet
Position2: "'cpsp' Capital Spacing in Latin lookup 0 subtable" dx=16 dy=0 dh=32 dv=0
EndChar

StartChar: B
Encoding: 66 66 32
Width: 1520
Flags: W
HStem: 0 168<369 1042.48> 698 168<369 959.166> 1248 168<369 974.812>
VStem: 184 185<168 698 866 1248> 1067 196<955.873 1169.01> 1197 196<290.668 571.108>
LayerCount: 2
Fore
SplineSet
184 0 m 1,0,-1
 184 1416 l 1,1,-1
 705 1416 l 2,2,3
 958.438 1416 958.438 1416 1092 1353.5 c 0,4,5
 1263 1273.48 1263 1273.48 1263 1075 c 0,6,7
 1263 988.547 1263 988.547 1202.5 907.5 c 0,8,9
 1147.35 833.622 1147.35 833.622 1076 812 c 1,10,11
 1218.84 785.473 1218.84 785.473 1305 687 c 0,12,13
 1393 586.429 1393 586.429 1393 441 c 0,14,15
 1393 132.575 1393 132.575 1058 38.5 c 0,16,17
 920.902 7.42021e-06 920.902 7.42021e-06 737 0 c 2,18,-1
 184 0 l 1,0,-1
1197 429 m 0,19,20
 1197 698 1197 698 756 698 c 2,21,-1
 369 698 l 1,22,-1
 369 168 l 1,23,-1
 762 168 l 2,24,25
 1064.65 168 1064.65 168 1159.5 297 c 0,26,27
 1197 348 1197 348 1197 429 c 0,19,20
723 866 m 2,28,29
 949.105 866 949.105 866 1035 968 c 0,30,31
 1067 1006 1067 1006 1067 1067 c 128,-1,32
 1067 1128 1067 1128 1029.5 1164.5 c 128,-1,33
 992 1201 992 1201 934.5 1219.5 c 0,34,35
 845.919 1248 845.919 1248 676 1248 c 2,36,-1
 369 1248 l 1,37,-1
 369 866 l 1,38,-1
 723 866 l 2,28,29
EndSplineSet
Position2: "'cpsp' Capital Spacing in Latin lookup 0 subtable" dx=16 dy=0 dh=32 dv=0
EndChar

StartChar: C
Encoding: 67 67 33
Width: 1492
Flags: W
HStem: -20 166<689.021 1167.54> 1270 166<670.22 1159.34>
VStem: 137 196<497.324 944.152>
LayerCount: 2
Fore
SplineSet
1329 1122 m 1,0,1
 1163.33 1270 1163.33 1270 902 1270 c 0,2,3
 665.116 1270 665.116 1270 499.5 1114 c 0,4,5
 333 957.168 333 957.168 333 723 c 0,6,7
 333 480.7 333 480.7 505 313 c 0,8,9
 676.282 146 676.282 146 920 146 c 0,10,11
 1097.38 146 1097.38 146 1273 235.5 c 0,12,13
 1325 262 1325 262 1363 293 c 1,14,-1
 1435 155 l 1,15,16
 1287.54 29.0468 1287.54 29.0468 1056 -8 c 0,17,18
 981 -20 981 -20 902 -20 c 0,19,20
 745 -20 745 -20 606 32.5 c 128,-1,21
 467 85 467 85 362.5 179.5 c 128,-1,22
 258 274 258 274 197.5 405 c 128,-1,23
 137 536 137 536 137 669 c 128,-1,24
 137 802 137 802 164.5 899.5 c 128,-1,25
 192 997 192 997 243 1079.5 c 128,-1,26
 294 1162 294 1162 365 1228 c 128,-1,27
 436 1294 436 1294 523 1340 c 0,28,29
 704.565 1436 704.565 1436 920 1436 c 0,30,31
 1211.31 1436 1211.31 1436 1422 1270 c 1,32,-1
 1329 1122 l 1,0,1
EndSplineSet
Position2: "'cpsp' Capital Spacing in Latin lookup 0 subtable" dx=16 dy=0 dh=32 dv=0
EndChar

StartChar: D
Encoding: 68 68 34
Width: 1600
Flags: W
HStem: 0 168<369 999.633> 1248 168<369 982.027>
VStem: 184 185<168 1248> 1297 196<469.289 948.814>
LayerCount: 2
Fore
SplineSet
1493 727 m 0,0,1
 1493 563 1493 563 1438 428 c 128,-1,2
 1383 293 1383 293 1283 197.5 c 0,3,4
 1076.19 9.71709e-06 1076.19 9.71709e-06 737 0 c 2,5,-1
 184 0 l 1,6,-1
 184 1416 l 1,7,-1
 765 1416 l 2,8,9
 1089.5 1416 1089.5 1416 1288.5 1233.5 c 0,10,11
 1493 1045.95 1493 1045.95 1493 727 c 0,0,1
762 168 m 2,12,13
 1011.25 168 1011.25 168 1155 318 c 0,14,15
 1297 466.174 1297 466.174 1297 719 c 0,16,17
 1297 962.73 1297 962.73 1140 1107 c 0,18,19
 986.559 1248 986.559 1248 736 1248 c 2,20,-1
 369 1248 l 1,21,-1
 369 168 l 1,22,-1
 762 168 l 2,12,13
EndSplineSet
Position2: "'cpsp' Capital Spacing in Latin lookup 0 subtable" dx=16 dy=0 dh=32 dv=0
EndChar

StartChar: E
Encoding: 69 69 35
Width: 1370
Flags: W
HStem: 0 168<369 1261> 698 168<369 1146> 1248 168<369 1241>
VStem: 184 185<168 698 866 1248>
LayerCount: 2
Fore
SplineSet
184 1416 m 1,0,-1
 1241 1416 l 1,1,-1
 1241 1248 l 1,2,-1
 369 1248 l 1,3,-1
 369 866 l 1,4,-1
 1146 866 l 1,5,-1
 1146 698 l 1,6,-1
 369 698 l 1,7,-1
 369 168 l 1,8,-1
 1261 168 l 1,9,-1
 1261 0 l 1,10,-1
 184 0 l 1,11,-1
 184 1416 l 1,0,-1
EndSplineSet
Position2: "'cpsp' Capital Spacing in Latin lookup 0 subtable" dx=16 dy=0 dh=32 dv=0
EndChar

StartChar: F
Encoding: 70 70 36
Width: 1248
Flags: W
HStem: 0 21G<184 369> 478 168<369 1066> 1248 168<369 1141>
VStem: 184 185<0 478 646 1248>
LayerCount: 2
Fore
SplineSet
184 1416 m 1,0,-1
 1141 1416 l 1,1,-1
 1141 1248 l 1,2,-1
 369 1248 l 1,3,-1
 369 646 l 1,4,-1
 1066 646 l 1,5,-1
 1066 478 l 1,6,-1
 369 478 l 1,7,-1
 369 0 l 1,8,-1
 184 0 l 1,9,-1
 184 1416 l 1,0,-1
EndSplineSet
Position2: "'cpsp' Capital Spacing in Latin lookup 0 subtable" dx=16 dy=0 dh=32 dv=0
EndChar

StartChar: G
Encoding: 71 71 37
Width: 1704
Flags: W
HStem: -20 166<676.467 1136.74> 0 21G<1335 1520> 479 168<844 1335> 1270 166<671.702 1157.64>
VStem: 137 196<485.855 940.535> 1335 185<0 137 281.354 479>
LayerCount: 2
Fore
SplineSet
1520 647 m 1,0,-1
 1520 0 l 1,1,-1
 1335 0 l 1,2,-1
 1335 137 l 1,3,4
 1221.08 34.4693 1221.08 34.4693 1029.5 -5.5 c 0,5,6
 960 -20 960 -20 867 -20 c 128,-1,7
 774 -20 774 -20 678 3.5 c 128,-1,8
 582 27 582 27 500 71.5 c 128,-1,9
 418 116 418 116 350.5 179 c 128,-1,10
 283 242 283 242 236 321.5 c 0,11,12
 137 488.957 137 488.957 137 693 c 0,13,14
 137 1016.06 137 1016.06 365 1228 c 0,15,16
 507.555 1360.52 507.555 1360.52 710.5 1411 c 0,17,18
 811 1436 811 1436 943.5 1436 c 128,-1,19
 1076 1436 1076 1436 1209.5 1390.5 c 128,-1,20
 1343 1345 1343 1345 1443 1260 c 1,21,-1
 1339 1118 l 1,22,23
 1163.97 1270 1163.97 1270 902 1270 c 0,24,25
 665.116 1270 665.116 1270 499.5 1114 c 0,26,27
 333 957.168 333 957.168 333 723 c 0,28,29
 333 468.316 333 468.316 497.5 307 c 0,30,31
 661.678 146 661.678 146 917 146 c 0,32,33
 1110.16 146 1110.16 146 1262 259 c 0,34,35
 1305 291 1305 291 1335 326 c 1,36,-1
 1335 479 l 1,37,-1
 844 479 l 1,38,-1
 844 647 l 1,39,-1
 1520 647 l 1,0,-1
EndSplineSet
Position2: "'cpsp' Capital Spacing in Latin lookup 0 subtable" dx=16 dy=0 dh=32 dv=0
EndChar

StartChar: H
Encoding: 72 72 38
Width: 1607
Flags: W
HStem: 0 21G<184 369 1238 1423> 479 168<369 1238> 1396 20G<184 369 1238 1423>
VStem: 184 185<0 479 647 1416> 1238 185<0 479 647 1416>
LayerCount: 2
Fore
SplineSet
184 0 m 1,0,-1
 184 1416 l 1,1,-1
 369 1416 l 1,2,-1
 369 647 l 1,3,-1
 1238 647 l 1,4,-1
 1238 1416 l 1,5,-1
 1423 1416 l 1,6,-1
 1423 0 l 1,7,-1
 1238 0 l 1,8,-1
 1238 479 l 1,9,-1
 369 479 l 1,10,-1
 369 0 l 1,11,-1
 184 0 l 1,0,-1
EndSplineSet
Position2: "'cpsp' Capital Spacing in Latin lookup 0 subtable" dx=16 dy=0 dh=32 dv=0
EndChar

StartChar: I
Encoding: 73 73 39
Width: 553
Flags: W
HStem: 0 21G<184 369> 1396 20G<184 369>
VStem: 184 185<0 1416>
LayerCount: 2
Fore
SplineSet
184 0 m 1,0,-1
 184 1416 l 1,1,-1
 369 1416 l 1,2,-1
 369 0 l 1,3,-1
 184 0 l 1,0,-1
EndSplineSet
Position2: "'cpsp' Capital Spacing in Latin lookup 0 subtable" dx=16 dy=0 dh=32 dv=0
EndChar

StartChar: J
Encoding: 74 74 40
Width: 1190
Flags: W
HStem: -20 166<398.938 699.983> 1396 20G<821 1006>
VStem: 90 180<294.971 473> 821 185<278.196 1416>
LayerCount: 2
Fore
SplineSet
540 146 m 0,0,1
 821 146 821 146 821 502 c 2,2,-1
 821 1416 l 1,3,-1
 1006 1416 l 1,4,-1
 1006 522 l 2,5,6
 1006 129.935 1006 129.935 735 18 c 0,7,8
 643 -20 643 -20 531.5 -20 c 128,-1,9
 420 -20 420 -20 340.5 20 c 128,-1,10
 261 60 261 60 205.5 127.5 c 0,11,12
 90 267.973 90 267.973 90 473 c 1,13,-1
 270 498 l 1,14,15
 270 354.5 270 354.5 338 255.5 c 0,16,17
 413.212 146 413.212 146 540 146 c 0,0,1
EndSplineSet
Position2: "'cpsp' Capital Spacing in Latin lookup 0 subtable" dx=16 dy=0 dh=32 dv=0
EndChar

StartChar: K
Encoding: 75 75 41
Width: 1404
Flags: W
HStem: 0 21G<184 374 1066.12 1381> 1396 20G<184 374 1088.15 1348>
VStem: 184 190<0 625 711 1416>
LayerCount: 2
Fore
SplineSet
184 0 m 1,0,-1
 184 1416 l 1,1,-1
 374 1416 l 1,2,-1
 374 711 l 1,3,-1
 1109 1416 l 1,4,-1
 1348 1416 l 1,5,-1
 578 682 l 1,6,-1
 1381 0 l 1,7,-1
 1089 0 l 1,8,-1
 374 625 l 1,9,-1
 374 0 l 1,10,-1
 184 0 l 1,0,-1
EndSplineSet
Position2: "'cpsp' Capital Spacing in Latin lookup 0 subtable" dx=16 dy=0 dh=32 dv=0
EndChar

StartChar: L
Encoding: 76 76 42
Width: 1208
Flags: W
HStem: 0 168<369 1141> 1396 20G<184 369>
VStem: 184 185<168 1416>
LayerCount: 2
Fore
SplineSet
184 1416 m 1,0,-1
 369 1416 l 1,1,-1
 369 168 l 1,2,-1
 1141 168 l 1,3,-1
 1141 0 l 1,4,-1
 184 0 l 1,5,-1
 184 1416 l 1,0,-1
EndSplineSet
Position2: "'cpsp' Capital Spacing in Latin lookup 0 subtable" dx=16 dy=0 dh=32 dv=0
EndChar

StartChar: M
Encoding: 77 77 43
Width: 1947
Flags: W
HStem: 0 21G<177 357.515 1587.29 1770> 1395 20G<285.445 360.248 1572.78 1651.7>
LayerCount: 2
Fore
SplineSet
1589 0 m 1,0,-1
 1498 1065 l 1,1,-1
 969 479 l 1,2,-1
 949 479 l 1,3,-1
 436 1056 l 1,4,-1
 356 0 l 1,5,-1
 177 0 l 1,6,-1
 287 1415 l 1,7,-1
 342 1415 l 1,8,-1
 967 730 l 1,9,-1
 1591 1415 l 1,10,-1
 1650 1415 l 1,11,-1
 1770 0 l 1,12,-1
 1589 0 l 1,0,-1
EndSplineSet
Position2: "'cpsp' Capital Spacing in Latin lookup 0 subtable" dx=16 dy=0 dh=32 dv=0
EndChar

StartChar: N
Encoding: 78 78 44
Width: 1607
Flags: W
HStem: 0 21G<184 349 1251.68 1423> 1396 20G<184 362.315 1258 1423>
VStem: 184 165<0 1126> 1258 165<298 1416>
LayerCount: 2
Fore
SplineSet
349 1126 m 1,0,-1
 349 0 l 1,1,-1
 184 0 l 1,2,-1
 184 1416 l 1,3,-1
 346 1416 l 1,4,-1
 1258 298 l 1,5,-1
 1258 1416 l 1,6,-1
 1423 1416 l 1,7,-1
 1423 0 l 1,8,-1
 1268 0 l 1,9,-1
 349 1126 l 1,0,-1
EndSplineSet
Position2: "'cpsp' Capital Spacing in Latin lookup 0 subtable" dx=16 dy=0 dh=32 dv=0
EndChar

StartChar: O
Encoding: 79 79 45
Width: 1822
Flags: W
HStem: -20 166<687.963 1148.33> 1270 166<675.084 1129.54>
VStem: 137 196<497.324 944.152> 1489 196<475.838 914.635>
LayerCount: 2
Fore
SplineSet
878 -20 m 0,0,1
 745 -20 745 -20 606 32.5 c 128,-1,2
 467 85 467 85 362.5 179.5 c 128,-1,3
 258 274 258 274 197.5 405 c 128,-1,4
 137 536 137 536 137 669 c 128,-1,5
 137 802 137 802 164.5 899.5 c 128,-1,6
 192 997 192 997 243 1079.5 c 128,-1,7
 294 1162 294 1162 365 1228 c 128,-1,8
 436 1294 436 1294 523 1340 c 0,9,10
 704.565 1436 704.565 1436 920 1436 c 0,11,12
 1126.27 1436 1126.27 1436 1304 1344 c 0,13,14
 1477.39 1254.24 1477.39 1254.24 1579.5 1093.5 c 0,15,16
 1685 927.416 1685 927.416 1685 723 c 0,17,18
 1685 399.944 1685 399.944 1457 188 c 0,19,20
 1233.24 -20 1233.24 -20 878 -20 c 0,0,1
883.5 1270 m 0,21,22
 784 1270 784 1270 680.5 1228.5 c 128,-1,23
 577 1187 577 1187 499.5 1114 c 0,24,25
 333 957.168 333 957.168 333 723 c 0,26,27
 333 480.7 333 480.7 505 313 c 0,28,29
 676.282 146 676.282 146 920 146 c 0,30,31
 1157.45 146 1157.45 146 1322 302 c 0,32,33
 1489 460.325 1489 460.325 1489 693 c 0,34,35
 1489 850.711 1489 850.711 1409 986.5 c 0,36,37
 1333.79 1114.16 1333.79 1114.16 1198 1192.5 c 0,38,39
 1063.67 1270 1063.67 1270 883.5 1270 c 0,21,22
EndSplineSet
Position2: "'cpsp' Capital Spacing in Latin lookup 0 subtable" dx=16 dy=0 dh=32 dv=0
EndChar

StartChar: P
Encoding: 80 80 46
Width: 1470
Flags: W
HStem: 0 21G<184 369> 310 168<369 971.775> 1248 168<369 971.68>
VStem: 184 185<0 310 478 1248> 1187 196<681.444 1057.16>
LayerCount: 2
Fore
SplineSet
184 0 m 1,0,-1
 184 1416 l 1,1,-1
 745 1416 l 2,2,3
 1029 1416 1029 1416 1199 1288.5 c 0,4,5
 1383 1150.5 1383 1150.5 1383 891 c 0,6,7
 1383 620.511 1383 620.511 1189 461 c 0,8,9
 1005.35 310 1005.35 310 717 310 c 2,10,-1
 369 310 l 1,11,-1
 369 0 l 1,12,-1
 184 0 l 1,0,-1
742 478 m 2,13,14
 945.921 478 945.921 478 1063.5 579.5 c 0,15,16
 1187 686.111 1187 686.111 1187 879 c 0,17,18
 1187 1063.97 1187 1063.97 1049 1161 c 0,19,20
 925.267 1248 925.267 1248 716 1248 c 2,21,-1
 369 1248 l 1,22,-1
 369 478 l 1,23,-1
 742 478 l 2,13,14
EndSplineSet
Position2: "'cpsp' Capital Spacing in Latin lookup 0 subtable" dx=16 dy=0 dh=32 dv=0
EndChar

StartChar: Q
Encoding: 81 81 47
Width: 1823
Flags: W
HStem: 1270 166<673.518 1129.52>
VStem: 137 196<499.991 940.535> 1489 196<475.526 914.635>
LayerCount: 2
Fore
SplineSet
798 -13 m 1,0,1
 516.879 19.3593 516.879 19.3593 328.5 213 c 0,2,3
 137 409.849 137 409.849 137 693 c 0,4,5
 137 1016.06 137 1016.06 365 1228 c 0,6,7
 507.555 1360.52 507.555 1360.52 710.5 1411 c 0,8,9
 811 1436 811 1436 918 1436 c 128,-1,10
 1025 1436 1025 1436 1122 1412 c 128,-1,11
 1219 1388 1219 1388 1304 1344 c 128,-1,12
 1389 1300 1389 1300 1459 1236.5 c 128,-1,13
 1529 1173 1529 1173 1579.5 1093.5 c 0,14,15
 1685 927.416 1685 927.416 1685 723 c 0,16,17
 1685 443.527 1685 443.527 1509.5 242.5 c 0,18,19
 1338.73 46.8887 1338.73 46.8887 1068 -4 c 1,20,-1
 1419 -246 l 1,21,-1
 1219 -329 l 1,22,-1
 798 -13 l 1,0,1
883.5 1270 m 0,23,24
 784 1270 784 1270 680.5 1228.5 c 128,-1,25
 577 1187 577 1187 499.5 1114 c 0,26,27
 333 957.168 333 957.168 333 723 c 0,28,29
 333 480.7 333 480.7 505 313 c 0,30,31
 676.282 146 676.282 146 920 146 c 0,32,33
 1157.45 146 1157.45 146 1322 302 c 0,34,35
 1489 460.325 1489 460.325 1489 693 c 0,36,37
 1489 850.711 1489 850.711 1409 986.5 c 0,38,39
 1333.79 1114.16 1333.79 1114.16 1198 1192.5 c 0,40,41
 1063.67 1270 1063.67 1270 883.5 1270 c 0,23,24
EndSplineSet
Position2: "'cpsp' Capital Spacing in Latin lookup 0 subtable" dx=16 dy=0 dh=32 dv=0
EndChar

StartChar: R
Encoding: 82 82 48
Width: 1550
Flags: W
HStem: 0 21G<184 369 1177.14 1402> 478 168<369 940.904> 1248 168<369 1067.89>
VStem: 184 185<0 478 646 1248> 1227 196<793.132 1118.58>
LayerCount: 2
Fore
SplineSet
1423 980 m 0,0,1
 1423 665.462 1423 665.462 1133 545 c 1,2,-1
 1402 0 l 1,3,-1
 1187 0 l 1,4,-1
 944 493 l 1,5,6
 845 478 845 478 737 478 c 2,7,-1
 369 478 l 1,8,-1
 369 0 l 1,9,-1
 184 0 l 1,10,-1
 184 1416 l 1,11,-1
 765 1416 l 2,12,13
 1079.17 1416 1079.17 1416 1234.5 1330 c 0,14,15
 1423 1225.63 1423 1225.63 1423 980 c 0,0,1
762 646 m 2,16,17
 985.861 646 985.861 646 1093.5 708 c 0,18,19
 1227 784.896 1227 784.896 1227 968 c 0,20,21
 1227 1205.62 1227 1205.62 919 1238.5 c 0,22,23
 830 1248 830 1248 736 1248 c 2,24,-1
 369 1248 l 1,25,-1
 369 646 l 1,26,-1
 762 646 l 2,16,17
EndSplineSet
Position2: "'cpsp' Capital Spacing in Latin lookup 0 subtable" dx=16 dy=0 dh=32 dv=0
EndChar

StartChar: S
Encoding: 83 83 49
Width: 1459
Flags: W
HStem: -21 169<481.614 974.214> 1265 171<491.799 997.314>
VStem: 160 199<944.475 1158.52> 1122 202<267.92 516.854>
LayerCount: 2
Fore
SplineSet
1088 281.5 m 128,-1,1
 1122 331 1122 331 1122 395 c 128,-1,2
 1122 459 1122 459 1095 496.5 c 128,-1,3
 1068 534 1068 534 1022 559.5 c 128,-1,4
 976 585 976 585 914.5 601.5 c 128,-1,5
 853 618 853 618 783.5 631 c 2,6,-1
 641 656.5 l 1,7,8
 367.793 703.282 367.793 703.282 260 793.5 c 0,9,10
 160 877.196 160 877.196 160 1018 c 0,11,12
 160 1209.67 160 1209.67 343.5 1329 c 0,13,14
 508.038 1436 508.038 1436 731 1436 c 0,15,16
 944.878 1436 944.878 1436 1116.5 1366.5 c 0,17,18
 1177 1342 1177 1342 1243 1306 c 1,19,-1
 1175 1143 l 1,20,21
 1029.76 1229.52 1029.76 1229.52 833 1256.5 c 0,22,23
 771 1265 771 1265 713 1265 c 256,24,25
 580 1265 580 1265 478 1214 c 0,26,27
 359 1154.5 359 1154.5 359 1048 c 0,28,29
 359 935.684 359 935.684 510 883.5 c 0,30,31
 578 860 578 860 664.5 845 c 2,32,-1
 841.5 813.5 l 2,33,34
 1066.54 772.47 1066.54 772.47 1153.77 719.235 c 128,-1,35
 1241 666 1241 666 1282.5 600.5 c 128,-1,36
 1324 535 1324 535 1324 426.5 c 128,-1,37
 1324 318 1324 318 1273 232 c 128,-1,38
 1222 146 1222 146 1137 89.5 c 0,39,40
 970.761 -21 970.761 -21 714 -21 c 0,41,42
 474.059 -21 474.059 -21 263 83 c 0,43,44
 194 117 194 117 135 161 c 1,45,-1
 223 319 l 1,46,47
 409.065 199.387 409.065 199.387 601 161 c 0,48,49
 666 148 666 148 733 148 c 128,-1,50
 800 148 800 148 871.5 160.5 c 128,-1,51
 943 173 943 173 998.5 202.5 c 128,-1,0
 1054 232 1054 232 1088 281.5 c 128,-1,1
EndSplineSet
Position2: "'cpsp' Capital Spacing in Latin lookup 0 subtable" dx=16 dy=0 dh=32 dv=0
EndChar

StartChar: T
Encoding: 84 84 50
Width: 1383
Flags: W
HStem: 0 21G<599 784> 1248 168<67 599 784 1316>
VStem: 599 185<0 1248>
LayerCount: 2
Fore
SplineSet
599 0 m 1,0,-1
 599 1248 l 1,1,-1
 67 1248 l 1,2,-1
 67 1416 l 1,3,-1
 1316 1416 l 1,4,-1
 1316 1248 l 1,5,-1
 784 1248 l 1,6,-1
 784 0 l 1,7,-1
 599 0 l 1,0,-1
EndSplineSet
Position2: "'cpsp' Capital Spacing in Latin lookup 0 subtable" dx=16 dy=0 dh=32 dv=0
EndChar

StartChar: U
Encoding: 85 85 51
Width: 1592
Flags: W
HStem: -20 166<584.235 1028.72> 1396 20G<153 338 1254 1439>
VStem: 153 185<414.483 1416> 1254 185<388.153 1416>
LayerCount: 2
Fore
SplineSet
153 1416 m 1,0,-1
 338 1416 l 1,1,-1
 338 683 l 2,2,3
 338 296.938 338 296.938 595 184.5 c 0,4,5
 683 146 683 146 803 146 c 128,-1,6
 923 146 923 146 1007.5 181 c 128,-1,7
 1092 216 1092 216 1147 281.5 c 0,8,9
 1254 408.927 1254 408.927 1254 653 c 2,10,-1
 1254 1416 l 1,11,-1
 1439 1416 l 1,12,-1
 1439 683 l 2,13,14
 1439 173.604 1439 173.604 1072.5 28.5 c 0,15,16
 950 -20 950 -20 790 -20 c 128,-1,17
 630 -20 630 -20 511.5 26.5 c 128,-1,18
 393 73 393 73 313.5 160 c 0,19,20
 153 335.642 153 335.642 153 653 c 2,21,-1
 153 1416 l 1,0,-1
EndSplineSet
Position2: "'cpsp' Capital Spacing in Latin lookup 0 subtable" dx=16 dy=0 dh=32 dv=0
EndChar

StartChar: V
Encoding: 86 86 52
Width: 1463
Flags: W
HStem: -20 21G<665.947 772.053> 1396 20G<25 241.053 1207.94 1413>
LayerCount: 2
Fore
SplineSet
675 -20 m 1,0,-1
 25 1416 l 1,1,-1
 232 1416 l 1,2,-1
 600 603 l 2,3,4
 625 547 625 547 646.5 491.5 c 0,5,6
 693.598 368.556 693.598 368.556 720 291 c 1,7,-1
 729 291 l 1,8,9
 743 336 743 336 759.5 381.5 c 2,10,-1
 796.5 480.5 l 2,11,12
 817 534 817 534 843 590 c 2,13,-1
 1217 1416 l 1,14,-1
 1413 1416 l 1,15,-1
 763 -20 l 1,16,-1
 675 -20 l 1,0,-1
EndSplineSet
Position2: "'cpsp' Capital Spacing in Latin lookup 0 subtable" dx=16 dy=0 dh=32 dv=0
EndChar

StartChar: W
Encoding: 87 87 53
Width: 2118
Flags: W
HStem: -20 21G<636.671 709.162 1448.42 1520.77> 1396 20G<47 418.177 1035.82 1107.56 1848.75 2071>
LayerCount: 2
Fore
SplineSet
1152 782 m 2,0,1
 1139 814 1139 814 1125.5 855 c 2,2,-1
 1072 1020 l 1,3,-1
 1066 1020 l 1,4,-1
 1040 933 l 2,5,6
 1029 896 1029 896 1015.5 855.5 c 2,7,-1
 702 -20 l 1,8,-1
 645 -20 l 1,9,-1
 47 1416 l 1,10,-1
 262 1416 l 1,11,12
 574.354 641.06 574.354 641.06 591.677 595.03 c 0,13,14
 632.885 483.166 632.885 483.166 646.442 443.083 c 2,15,-1
 671 372 l 1,16,-1
 680 372 l 1,17,18
 693 419 693 419 708.5 468 c 2,19,-1
 742.5 574.5 l 2,20,21
 761 632 761 632 784 695 c 2,22,-1
 1043 1416 l 1,23,-1
 1100 1416 l 1,24,-1
 1367 710 l 1,25,-1
 1482 372 l 1,26,-1
 1491 372 l 1,27,-1
 1562 600.5 l 2,28,29
 1581 660 1581 660 1601 713 c 2,30,-1
 1856 1416 l 1,31,-1
 2071 1416 l 1,32,-1
 1513 -20 l 1,33,-1
 1456 -20 l 1,34,-1
 1152 782 l 2,0,1
EndSplineSet
Position2: "'cpsp' Capital Spacing in Latin lookup 0 subtable" dx=16 dy=0 dh=32 dv=0
EndChar

StartChar: X
Encoding: 88 88 54
Width: 1443
Flags: W
HStem: 0 21G<43 279.524 1141.3 1400> 1396 20G<47 305.649 1127.46 1364>
LayerCount: 2
Fore
SplineSet
597 714 m 1,0,-1
 47 1416 l 1,1,-1
 290 1416 l 1,2,-1
 718 869 l 1,3,-1
 1143 1416 l 1,4,-1
 1364 1416 l 1,5,-1
 829 728 l 1,6,-1
 1400 0 l 1,7,-1
 1157 0 l 1,8,-1
 708 572 l 1,9,-1
 264 0 l 1,10,-1
 43 0 l 1,11,-1
 597 714 l 1,0,-1
EndSplineSet
Position2: "'cpsp' Capital Spacing in Latin lookup 0 subtable" dx=16 dy=0 dh=32 dv=0
EndChar

StartChar: Y
Encoding: 89 89 55
Width: 1291
Flags: W
HStem: 0 21G<559 744> 1396 20G<37 252.767 1050.33 1254>
VStem: 559 185<0 604>
LayerCount: 2
Fore
SplineSet
559 0 m 1,0,-1
 559 604 l 1,1,-1
 37 1416 l 1,2,-1
 240 1416 l 1,3,-1
 653 769 l 1,4,-1
 1063 1416 l 1,5,-1
 1254 1416 l 1,6,-1
 744 607 l 1,7,-1
 744 0 l 1,8,-1
 559 0 l 1,0,-1
EndSplineSet
Position2: "'cpsp' Capital Spacing in Latin lookup 0 subtable" dx=16 dy=0 dh=32 dv=0
EndChar

StartChar: Z
Encoding: 90 90 56
Width: 1318
Flags: W
HStem: 0 168<338 1211> 1249 168<107 980>
LayerCount: 2
Fore
SplineSet
980 1249 m 1,0,-1
 107 1249 l 1,1,-1
 107 1417 l 1,2,-1
 1211 1417 l 1,3,-1
 1211 1249 l 1,4,-1
 338 168 l 1,5,-1
 1211 168 l 1,6,-1
 1211 0 l 1,7,-1
 107 0 l 1,8,-1
 107 168 l 1,9,-1
 980 1249 l 1,0,-1
EndSplineSet
Position2: "'cpsp' Capital Spacing in Latin lookup 0 subtable" dx=16 dy=0 dh=32 dv=0
EndChar

StartChar: ampersand
Encoding: 38 38 57
Width: 1535
Flags: W
HStem: -19 166<477.312 849.76> 1270 166<580.96 915.733>
VStem: 137 196<278.758 561.582> 321 196<945.529 1205.23> 1156 187<523.007 812>
LayerCount: 2
Fore
SplineSet
1343 814 m 1,0,1
 1343 538.419 1343 538.419 1217 323 c 1,2,-1
 1496 112 l 1,3,-1
 1373 -29 l 1,4,-1
 1099 168 l 1,5,6
 914.125 -19 914.125 -19 645 -19 c 0,7,8
 427.627 -19 427.627 -19 289 82 c 0,9,10
 137 192.743 137 192.743 137 387 c 0,11,12
 137 642.708 137 642.708 409 808 c 1,13,14
 321 937.905 321 937.905 321 1034.45 c 128,-1,15
 321 1131 321 1131 352 1205 c 128,-1,16
 383 1279 383 1279 438.5 1330.5 c 0,17,18
 552.194 1436 552.194 1436 743 1436 c 0,19,20
 956.437 1436 956.437 1436 1125 1300 c 1,21,-1
 1032 1152 l 1,22,23
 935.964 1236.03 935.964 1236.03 804.5 1262 c 0,24,25
 764 1270 764 1270 725 1270 c 0,26,27
 627 1270 627 1270 572 1217.5 c 128,-1,28
 517 1165 517 1165 517 1067 c 0,29,30
 517 906.435 517 906.435 938 549.5 c 1,31,-1
 1077 434 l 1,32,33
 1156 601.875 1156 601.875 1156 812 c 1,34,-1
 1343 814 l 1,0,1
965 270 m 1,35,36
 664.678 505.453 664.678 505.453 514 676 c 1,37,38
 372.603 597.78 372.603 597.78 343.5 498 c 0,39,40
 333 462 333 462 333 408 c 128,-1,41
 333 354 333 354 361 304 c 128,-1,42
 389 254 389 254 435 219 c 0,43,44
 529.629 147 529.629 147 643.314 147 c 0,45,46
 839.842 147 839.842 147 965 270 c 1,35,36
EndSplineSet
Position2: "'cpsp' Capital Spacing in Latin lookup 0 subtable" dx=16 dy=0 dh=32 dv=0
EndChar

StartChar: period
Encoding: 46 46 58
Width: 527
Flags: W
HStem: -13 247<193.068 370.932>
VStem: 158 248<22.0679 199.448>
LayerCount: 2
Fore
SplineSet
192 21 m 128,-1,1
 158 55 158 55 158 111 c 128,-1,2
 158 167 158 167 192 200.5 c 128,-1,3
 226 234 226 234 282 234 c 128,-1,4
 338 234 338 234 372 200.5 c 128,-1,5
 406 167 406 167 406 111 c 128,-1,6
 406 55 406 55 372 21 c 128,-1,7
 338 -13 338 -13 282 -13 c 128,-1,0
 226 -13 226 -13 192 21 c 128,-1,1
EndSplineSet
EndChar

StartChar: comma
Encoding: 44 44 59
Width: 527
Flags: W
HStem: -279 513
VStem: 159 248<37.3959 205.479>
LayerCount: 2
Fore
SplineSet
211 32 m 1,0,1
 159 65.6471 159 65.6471 159 122 c 0,2,3
 159 198.8 159 198.8 235.5 226 c 0,4,5
 258 234 258 234 284 234 c 128,-1,6
 310 234 310 234 333 224 c 128,-1,7
 356 214 356 214 372.5 197 c 0,8,9
 407 161.455 407 161.455 407 118.227 c 128,-1,10
 407 75 407 75 396.5 37.5 c 128,-1,11
 386 0 386 0 369 -38 c 128,-1,12
 352 -76 352 -76 330.5 -113 c 128,-1,13
 309 -150 309 -150 286 -181.5 c 0,14,15
 236.197 -249.709 236.197 -249.709 203 -279 c 1,16,-1
 112 -228 l 1,17,18
 164.784 -154.915 164.784 -154.915 198.5 -34.5 c 0,19,20
 209 3 209 3 211 32 c 1,0,1
EndSplineSet
EndChar

StartChar: colon
Encoding: 58 58 60
Width: 527
Flags: W
HStem: -13 247<193.068 370.932> 567 247<193.068 370.932>
VStem: 158 248<22.0679 199.448 602.068 779.448>
LayerCount: 2
Fore
SplineSet
192 601 m 128,-1,1
 158 635 158 635 158 691 c 128,-1,2
 158 747 158 747 192 780.5 c 128,-1,3
 226 814 226 814 282 814 c 128,-1,4
 338 814 338 814 372 780.5 c 128,-1,5
 406 747 406 747 406 691 c 128,-1,6
 406 635 406 635 372 601 c 128,-1,7
 338 567 338 567 282 567 c 128,-1,0
 226 567 226 567 192 601 c 128,-1,1
192 21 m 128,-1,9
 158 55 158 55 158 111 c 128,-1,10
 158 167 158 167 192 200.5 c 128,-1,11
 226 234 226 234 282 234 c 128,-1,12
 338 234 338 234 372 200.5 c 128,-1,13
 406 167 406 167 406 111 c 128,-1,14
 406 55 406 55 372 21 c 128,-1,15
 338 -13 338 -13 282 -13 c 128,-1,8
 226 -13 226 -13 192 21 c 128,-1,9
EndSplineSet
EndChar

StartChar: semicolon
Encoding: 59 59 61
Width: 527
Flags: W
HStem: 567 247<193.068 370.932>
VStem: 159 248<37.3959 205.479 602.068 779.448>
LayerCount: 2
Fore
SplineSet
211 32 m 1,0,1
 159 65.6471 159 65.6471 159 122 c 0,2,3
 159 198.8 159 198.8 235.5 226 c 0,4,5
 258 234 258 234 284 234 c 128,-1,6
 310 234 310 234 333 224 c 128,-1,7
 356 214 356 214 372.5 197 c 0,8,9
 407 161.455 407 161.455 407 118.227 c 128,-1,10
 407 75 407 75 396.5 37.5 c 128,-1,11
 386 0 386 0 369 -38 c 128,-1,12
 352 -76 352 -76 330.5 -113 c 128,-1,13
 309 -150 309 -150 286 -181.5 c 0,14,15
 236.197 -249.709 236.197 -249.709 203 -279 c 1,16,-1
 112 -228 l 1,17,18
 164.784 -154.915 164.784 -154.915 198.5 -34.5 c 0,19,20
 209 3 209 3 211 32 c 1,0,1
192 601 m 128,-1,22
 158 635 158 635 158 691 c 128,-1,23
 158 747 158 747 192 780.5 c 128,-1,24
 226 814 226 814 282 814 c 128,-1,25
 338 814 338 814 372 780.5 c 128,-1,26
 406 747 406 747 406 691 c 128,-1,27
 406 635 406 635 372 601 c 128,-1,28
 338 567 338 567 282 567 c 128,-1,21
 226 567 226 567 192 601 c 128,-1,22
EndSplineSet
EndChar

StartChar: exclam
Encoding: 33 33 62
Width: 602
Flags: W
HStem: -13 247<212.068 389.932> 1395 20G<199 404>
VStem: 177 248<22.0679 199.448> 199 205<934.744 1415> 229 145<410 890.256>
LayerCount: 2
Fore
SplineSet
211 21 m 128,-1,1
 177 55 177 55 177 111 c 128,-1,2
 177 167 177 167 211 200.5 c 128,-1,3
 245 234 245 234 301 234 c 128,-1,4
 357 234 357 234 391 200.5 c 128,-1,5
 425 167 425 167 425 111 c 128,-1,6
 425 55 425 55 391 21 c 128,-1,7
 357 -13 357 -13 301 -13 c 128,-1,0
 245 -13 245 -13 211 21 c 128,-1,1
229 410 m 1,8,-1
 199 1415 l 1,9,-1
 404 1415 l 1,10,-1
 374 410 l 1,11,-1
 229 410 l 1,8,-1
EndSplineSet
EndChar

StartChar: question
Encoding: 63 63 64
Width: 1035
Flags: W
HStem: -13 247<352.068 529.932> 1270 166<235.68 714.693>
VStem: 317 248<22.0679 199.448> 317.346 162.472<408.72 629.789> 763 196<1023.47 1221.82>
LayerCount: 2
Fore
SplineSet
351 21 m 128,-1,1
 317 55 317 55 317 111 c 128,-1,2
 317 167 317 167 351 200.5 c 128,-1,3
 385 234 385 234 441 234 c 128,-1,4
 497 234 497 234 531 200.5 c 128,-1,5
 565 167 565 167 565 111 c 128,-1,6
 565 55 565 55 531 21 c 128,-1,7
 497 -13 497 -13 441 -13 c 128,-1,0
 385 -13 385 -13 351 21 c 128,-1,1
763 1131 m 0,8,9
 763 1270 763 1270 507 1270 c 0,10,11
 387.643 1270 387.643 1270 207.5 1218 c 0,12,13
 159 1204 159 1204 126 1190 c 1,14,-1
 82 1342 l 1,15,16
 292.381 1436 292.381 1436 525 1436 c 0,17,18
 812.657 1436 812.657 1436 920 1291.5 c 0,19,20
 959 1239 959 1239 959 1168 c 128,-1,21
 959 1097 959 1097 935.5 1045.5 c 128,-1,22
 912 994 912 994 874 951 c 128,-1,23
 836 908 836 908 788.5 870.5 c 2,24,-1
 693.5 796 l 2,25,26
 570.813 700.434 570.813 700.434 534.407 645.217 c 0,27,28
 479.818 562.424 479.818 562.424 479.818 481.901 c 0,29,30
 479.818 448.182 479.818 448.182 488 410 c 1,31,-1
 326 378 l 1,32,33
 317.346 426.462 317.346 426.462 317.346 463.846 c 128,-1,34
 317.346 501.231 317.346 501.231 325.173 549.615 c 128,-1,35
 333 598 333 598 360.5 654 c 128,-1,36
 388 710 388 710 429 756 c 128,-1,37
 470 802 470 802 514.5 841.5 c 128,-1,38
 559 881 559 881 603.5 916 c 128,-1,39
 648 951 648 951 683.5 985.5 c 0,40,41
 763 1062.76 763 1062.76 763 1131 c 0,8,9
EndSplineSet
EndChar

StartChar: guilsinglleft
Encoding: 220 220 66
Width: 702
Flags: W
VStem: 107 522
LayerCount: 2
Fore
SplineSet
629 204 m 1,0,-1
 530 98 l 1,1,-1
 107 471 l 1,2,-1
 107 531 l 1,3,-1
 532 944 l 1,4,-1
 635 846 l 1,5,-1
 337 518 l 1,6,-1
 629 204 l 1,0,-1
EndSplineSet
EndChar

StartChar: guillemotleft
Encoding: 199 199 68
Width: 1204
Flags: W
LayerCount: 2
Fore
SplineSet
629 198 m 1,0,-1
 536 98 l 1,1,-1
 113 471 l 1,2,-1
 113 531 l 1,3,-1
 538 944 l 1,4,-1
 634 853 l 1,5,-1
 333 516 l 1,6,-1
 629 198 l 1,0,-1
1125 198 m 1,7,-1
 1032 98 l 1,8,-1
 609 471 l 1,9,-1
 609 531 l 1,10,-1
 1034 944 l 1,11,-1
 1130 853 l 1,12,-1
 829 516 l 1,13,-1
 1125 198 l 1,7,-1
EndSplineSet
EndChar

StartChar: quoteleft
Encoding: 212 212 70
Width: 527
Flags: W
HStem: 1048 513
VStem: 120 248<1076.52 1244.6>
LayerCount: 2
Fore
SplineSet
316 1250 m 1,0,1
 368 1216.35 368 1216.35 368 1160 c 0,2,3
 368 1083.2 368 1083.2 291.5 1056 c 0,4,5
 269 1048 269 1048 243 1048 c 128,-1,6
 217 1048 217 1048 194 1058 c 128,-1,7
 171 1068 171 1068 154.5 1085 c 0,8,9
 120 1120.55 120 1120.55 120 1163.77 c 128,-1,10
 120 1207 120 1207 130.5 1244.5 c 128,-1,11
 141 1282 141 1282 158 1320 c 128,-1,12
 175 1358 175 1358 196.5 1395 c 128,-1,13
 218 1432 218 1432 241 1463.5 c 0,14,15
 290.803 1531.71 290.803 1531.71 324 1561 c 1,16,-1
 415 1510 l 1,17,18
 364.5 1445.07 364.5 1445.07 328.5 1316.5 c 0,19,20
 318 1279 318 1279 316 1250 c 1,0,1
EndSplineSet
EndChar

StartChar: quoteright
Encoding: 213 213 71
Width: 527
Flags: W
HStem: 1048 513
VStem: 159 248<1364.4 1532.48>
LayerCount: 2
Fore
SplineSet
211 1359 m 1,0,1
 159 1392.65 159 1392.65 159 1449 c 0,2,3
 159 1525.8 159 1525.8 235.5 1553 c 0,4,5
 258 1561 258 1561 284 1561 c 128,-1,6
 310 1561 310 1561 333 1551 c 128,-1,7
 356 1541 356 1541 372.5 1524 c 0,8,9
 407 1488.45 407 1488.45 407 1444.73 c 128,-1,10
 407 1401 407 1401 396.5 1364 c 128,-1,11
 386 1327 386 1327 369 1289 c 128,-1,12
 352 1251 352 1251 330.5 1214 c 128,-1,13
 309 1177 309 1177 286 1145.5 c 0,14,15
 236.197 1077.29 236.197 1077.29 203 1048 c 1,16,-1
 112 1099 l 1,17,18
 164.784 1172.09 164.784 1172.09 198.5 1292.5 c 0,19,20
 209 1330 209 1330 211 1359 c 1,0,1
EndSplineSet
EndChar

StartChar: quotedblleft
Encoding: 210 210 72
Width: 881
Flags: W
HStem: 923 513
VStem: 120 248<951.521 1119.6> 474 248<951.521 1119.6>
LayerCount: 2
Fore
SplineSet
316 1125 m 1,0,1
 368 1091.35 368 1091.35 368 1035 c 0,2,3
 368 958.2 368 958.2 291.5 931 c 0,4,5
 269 923 269 923 243 923 c 128,-1,6
 217 923 217 923 194 933 c 128,-1,7
 171 943 171 943 154.5 960 c 0,8,9
 120 995.545 120 995.545 120 1039.27 c 128,-1,10
 120 1083 120 1083 130.5 1120 c 128,-1,11
 141 1157 141 1157 158 1195 c 128,-1,12
 175 1233 175 1233 196.5 1269.5 c 128,-1,13
 218 1306 218 1306 241 1338 c 0,14,15
 289.658 1405.7 289.658 1405.7 324 1436 c 1,16,-1
 415 1385 l 1,17,18
 364.5 1320.07 364.5 1320.07 328.5 1191.5 c 0,19,20
 318 1154 318 1154 316 1125 c 1,0,1
670 1125 m 1,21,22
 722 1091.35 722 1091.35 722 1035 c 0,23,24
 722 958.2 722 958.2 645.5 931 c 0,25,26
 623 923 623 923 597 923 c 128,-1,27
 571 923 571 923 548 933 c 128,-1,28
 525 943 525 943 508.5 960 c 0,29,30
 474 995.545 474 995.545 474 1039.27 c 128,-1,31
 474 1083 474 1083 484.5 1120 c 128,-1,32
 495 1157 495 1157 512 1195 c 128,-1,33
 529 1233 529 1233 550.5 1269.5 c 128,-1,34
 572 1306 572 1306 595 1338 c 0,35,36
 643.658 1405.7 643.658 1405.7 678 1436 c 1,37,-1
 769 1385 l 1,38,39
 718.5 1320.07 718.5 1320.07 682.5 1191.5 c 0,40,41
 672 1154 672 1154 670 1125 c 1,21,22
EndSplineSet
EndChar

StartChar: quotedblright
Encoding: 211 211 73
Width: 881
Flags: W
HStem: 923 513
VStem: 159 248<1239.4 1407.48> 513 248<1239.4 1407.48>
LayerCount: 2
Fore
SplineSet
565 1234 m 1,0,1
 513 1267.65 513 1267.65 513 1324 c 0,2,3
 513 1400.8 513 1400.8 589.5 1428 c 0,4,5
 612 1436 612 1436 638 1436 c 128,-1,6
 664 1436 664 1436 687 1426 c 128,-1,7
 710 1416 710 1416 726.5 1399 c 0,8,9
 761 1363.45 761 1363.45 761 1319.73 c 128,-1,10
 761 1276 761 1276 750.5 1239 c 128,-1,11
 740 1202 740 1202 723 1164 c 128,-1,12
 706 1126 706 1126 684.5 1089.5 c 128,-1,13
 663 1053 663 1053 640 1021 c 0,14,15
 591.342 953.302 591.342 953.302 557 923 c 1,16,-1
 466 974 l 1,17,18
 518.784 1047.09 518.784 1047.09 552.5 1167.5 c 0,19,20
 563 1205 563 1205 565 1234 c 1,0,1
211 1234 m 1,21,22
 159 1267.65 159 1267.65 159 1324 c 0,23,24
 159 1400.8 159 1400.8 235.5 1428 c 0,25,26
 258 1436 258 1436 284 1436 c 128,-1,27
 310 1436 310 1436 333 1426 c 128,-1,28
 356 1416 356 1416 372.5 1399 c 0,29,30
 407 1363.45 407 1363.45 407 1319.73 c 128,-1,31
 407 1276 407 1276 396.5 1239 c 128,-1,32
 386 1202 386 1202 369 1164 c 128,-1,33
 352 1126 352 1126 330.5 1089.5 c 128,-1,34
 309 1053 309 1053 286 1021 c 0,35,36
 237.342 953.302 237.342 953.302 203 923 c 1,37,-1
 112 974 l 1,38,39
 164.784 1047.09 164.784 1047.09 198.5 1167.5 c 0,40,41
 209 1205 209 1205 211 1234 c 1,21,22
EndSplineSet
EndChar

StartChar: quotesinglbase
Encoding: 226 226 74
Width: 527
Flags: W
HStem: -279 513
VStem: 159 248<37.3959 205.479>
LayerCount: 2
Fore
SplineSet
211 32 m 1,0,1
 159 65.6471 159 65.6471 159 122 c 0,2,3
 159 198.8 159 198.8 235.5 226 c 0,4,5
 258 234 258 234 284 234 c 128,-1,6
 310 234 310 234 333 224 c 128,-1,7
 356 214 356 214 372.5 197 c 0,8,9
 407 161.455 407 161.455 407 118.227 c 128,-1,10
 407 75 407 75 396.5 37.5 c 128,-1,11
 386 0 386 0 369 -38 c 128,-1,12
 352 -76 352 -76 330.5 -113 c 128,-1,13
 309 -150 309 -150 286 -181.5 c 0,14,15
 236.197 -249.709 236.197 -249.709 203 -279 c 1,16,-1
 112 -228 l 1,17,18
 164.784 -154.915 164.784 -154.915 198.5 -34.5 c 0,19,20
 209 3 209 3 211 32 c 1,0,1
EndSplineSet
EndChar

StartChar: quotedblbase
Encoding: 227 227 75
Width: 881
Flags: W
HStem: -279 513
VStem: 159 248<37.3959 205.479> 513 248<37.3959 205.479>
LayerCount: 2
Fore
SplineSet
565 32 m 1,0,1
 513 65.6471 513 65.6471 513 122 c 0,2,3
 513 198.8 513 198.8 589.5 226 c 0,4,5
 612 234 612 234 638 234 c 128,-1,6
 664 234 664 234 687 224 c 128,-1,7
 710 214 710 214 726.5 197 c 0,8,9
 761 161.455 761 161.455 761 118.227 c 128,-1,10
 761 75 761 75 750.5 37.5 c 128,-1,11
 740 0 740 0 723 -38 c 128,-1,12
 706 -76 706 -76 684.5 -113 c 128,-1,13
 663 -150 663 -150 640 -181.5 c 0,14,15
 590.197 -249.709 590.197 -249.709 557 -279 c 1,16,-1
 466 -228 l 1,17,18
 518.784 -154.915 518.784 -154.915 552.5 -34.5 c 0,19,20
 563 3 563 3 565 32 c 1,0,1
211 32 m 1,21,22
 159 65.6471 159 65.6471 159 122 c 0,23,24
 159 198.8 159 198.8 235.5 226 c 0,25,26
 258 234 258 234 284 234 c 128,-1,27
 310 234 310 234 333 224 c 128,-1,28
 356 214 356 214 372.5 197 c 0,29,30
 407 161.455 407 161.455 407 118.227 c 128,-1,31
 407 75 407 75 396.5 37.5 c 128,-1,32
 386 0 386 0 369 -38 c 128,-1,33
 352 -76 352 -76 330.5 -113 c 128,-1,34
 309 -150 309 -150 286 -181.5 c 0,35,36
 236.197 -249.709 236.197 -249.709 203 -279 c 1,37,-1
 112 -228 l 1,38,39
 164.784 -154.915 164.784 -154.915 198.5 -34.5 c 0,40,41
 209 3 209 3 211 32 c 1,21,22
EndSplineSet
EndChar

StartChar: quotesingle
Encoding: 39 39 76
Width: 524
Flags: W
HStem: 939 477<195 329>
VStem: 195 134<939 1166.94>
LayerCount: 2
Fore
SplineSet
165 1416 m 1,0,-1
 359 1416 l 1,1,-1
 329 939 l 1,2,-1
 195 939 l 1,3,-1
 165 1416 l 1,0,-1
EndSplineSet
EndChar

StartChar: quotedbl
Encoding: 34 34 77
Width: 881
Flags: W
HStem: 940 477<195 329 552 686>
VStem: 195 134<940 1167.94> 552 134<940 1167.94>
LayerCount: 2
Fore
SplineSet
165 1417 m 1,0,-1
 359 1417 l 1,1,-1
 329 940 l 1,2,-1
 195 940 l 1,3,-1
 165 1417 l 1,0,-1
522 1417 m 1,4,-1
 716 1417 l 1,5,-1
 686 940 l 1,6,-1
 552 940 l 1,7,-1
 522 1417 l 1,4,-1
EndSplineSet
EndChar

StartChar: degree
Encoding: 161 161 78
Width: 738
Flags: W
HStem: 856 121<253.831 487.596> 1315 121<252.466 483.735>
VStem: 69 137<1025.26 1267.12> 532 137<1023.23 1267.35>
LayerCount: 2
Fore
SplineSet
370 1436 m 256,0,1
 496.766 1436 496.766 1436 582.5 1354.5 c 0,2,3
 669 1272.27 669 1272.27 669 1147 c 256,4,5
 669 1021.68 669 1021.68 581.5 938.5 c 0,6,7
 494.714 856 494.714 856 368 856 c 256,8,9
 240.182 856 240.182 856 155.5 936.5 c 0,10,11
 69 1018.73 69 1018.73 69 1143 c 256,12,13
 69 1267.16 69 1267.16 156.5 1352.5 c 0,14,15
 242.114 1436 242.114 1436 370 1436 c 256,0,1
488.5 1022.5 m 128,-1,17
 532 1068 532 1068 532 1143 c 0,18,19
 532 1260.87 532 1260.87 435.5 1302 c 0,20,21
 405 1315 405 1315 368 1315 c 0,22,23
 293 1315 293 1315 249.5 1268.5 c 128,-1,24
 206 1222 206 1222 206 1165.5 c 128,-1,25
 206 1109 206 1109 217.5 1078 c 128,-1,26
 229 1047 229 1047 250.5 1024.5 c 0,27,28
 295.889 977 295.889 977 370.444 977 c 128,-1,16
 445 977 445 977 488.5 1022.5 c 128,-1,17
EndSplineSet
EndChar

StartChar: numbersign
Encoding: 35 35 79
Width: 1589
Flags: W
HStem: -19 21G<389.474 473.718 921.538 1003.67> 406 154<171 389 577 918 1106 1418> 906 154<171 482 670 1010 1198 1418> 1415 20G<576.267 658.462 1103.32 1187.53>
LayerCount: 2
Fore
SplineSet
171 1060 m 1,0,-1
 510 1060 l 1,1,-1
 580 1435 l 1,2,-1
 733 1396 l 1,3,-1
 670 1060 l 1,4,-1
 1038 1060 l 1,5,-1
 1107 1435 l 1,6,-1
 1260 1397 l 1,7,-1
 1198 1060 l 1,8,-1
 1418 1060 l 1,9,-1
 1418 906 l 1,10,-1
 1170 906 l 1,11,-1
 1106 560 l 1,12,-1
 1418 560 l 1,13,-1
 1418 406 l 1,14,-1
 1078 406 l 1,15,-1
 1000 -19 l 1,16,-1
 847 20 l 1,17,-1
 918 406 l 1,18,-1
 549 406 l 1,19,-1
 470 -19 l 1,20,-1
 317 19 l 1,21,-1
 389 406 l 1,22,-1
 171 406 l 1,23,-1
 171 560 l 1,24,-1
 417 560 l 1,25,-1
 482 906 l 1,26,-1
 171 906 l 1,27,-1
 171 1060 l 1,0,-1
577 560 m 1,28,-1
 946 560 l 1,29,-1
 1010 906 l 1,30,-1
 642 906 l 1,31,-1
 577 560 l 1,28,-1
EndSplineSet
EndChar

StartChar: zero
Encoding: 48 48 80
Width: 1662
Flags: W
HStem: -20 166<625.122 1054.92> 1270 166<607.765 1039.59>
VStem: 137 196<463.333 977.182> 1329 196<439.247 952.279>
LayerCount: 2
Fore
SplineSet
825 -20 m 0,0,1
 665 -20 665 -20 538.5 32.5 c 128,-1,2
 412 85 412 85 322.5 179.5 c 0,3,4
 137 375.363 137 375.363 137 693 c 0,5,6
 137 1025.54 137 1025.54 325 1228 c 0,7,8
 518.143 1436 518.143 1436 840 1436 c 0,9,10
 1151.11 1436 1151.11 1436 1339 1236.5 c 0,11,12
 1525 1039.01 1525 1039.01 1525 723 c 0,13,14
 1525 390.462 1525 390.462 1337 188 c 0,15,16
 1143.86 -20 1143.86 -20 825 -20 c 0,0,1
823.5 1270 m 0,17,18
 704 1270 704 1270 613 1228.5 c 128,-1,19
 522 1187 522 1187 459.5 1114 c 0,20,21
 333 966.248 333 966.248 333 723 c 0,22,23
 333 471.4 333 471.4 465 313 c 0,24,25
 604.167 146 604.167 146 840 146 c 0,26,27
 1069.51 146 1069.51 146 1202 302 c 0,28,29
 1329 451.532 1329 451.532 1329 693 c 0,30,31
 1329 944.6 1329 944.6 1197 1103 c 0,32,33
 1057.83 1270 1057.83 1270 823.5 1270 c 0,17,18
EndSplineSet
EndChar

StartChar: one
Encoding: 49 49 81
Width: 853
Flags: W
HStem: 0 21G<484 669> 1396 20G<446.696 669>
VStem: 484 185<0 1237>
LayerCount: 2
Fore
SplineSet
55 1186 m 1,0,-1
 484 1416 l 1,1,-1
 669 1416 l 1,2,-1
 669 0 l 1,3,-1
 484 0 l 1,4,-1
 484 1237 l 1,5,-1
 109 1025 l 1,6,-1
 55 1186 l 1,0,-1
EndSplineSet
EndChar

StartChar: two
Encoding: 50 50 82
Width: 1249
Flags: W
HStem: 0 175<408 1122> 1268 168<351.729 787.09>
VStem: 889 196<857.197 1170.39>
LayerCount: 2
Fore
SplineSet
162 1327 m 1,0,1
 297.082 1396.37 297.082 1396.37 498.5 1426.5 c 0,2,3
 562 1436 562 1436 641 1436 c 128,-1,4
 720 1436 720 1436 806.5 1407 c 128,-1,5
 893 1378 893 1378 955 1324 c 0,6,7
 1085 1210.77 1085 1210.77 1085 1014 c 0,8,9
 1085 745.158 1085 745.158 706 426 c 2,10,-1
 408 175 l 1,11,-1
 1122 176 l 1,12,-1
 1122 0 l 1,13,-1
 148 0 l 1,14,-1
 148 168 l 1,15,-1
 523 492 l 1,16,17
 889 811.077 889 811.077 889 1002 c 0,18,19
 889 1141 889 1141 814.5 1204.5 c 128,-1,20
 740 1268 740 1268 585 1268 c 0,21,22
 459.229 1268 459.229 1268 282.5 1198.5 c 0,23,24
 238 1181 238 1181 213 1168 c 1,25,-1
 162 1327 l 1,0,1
EndSplineSet
EndChar

StartChar: three
Encoding: 51 51 83
Width: 1270
Flags: W
HStem: -20 168<315.788 797.291> 642.561 165.439<335 760.723> 1268 168<336.704 791.275>
VStem: 891 196<920.48 1178.27> 933 200<264.933 520.2>
LayerCount: 2
Fore
SplineSet
335 814 m 1,0,1
 458 808 458 808 529 808 c 128,-1,2
 600 808 600 808 665 821 c 128,-1,3
 730 834 730 834 780 863 c 0,4,5
 891 927.38 891 927.38 891 1056 c 0,6,7
 891 1162.28 891 1162.28 799.5 1218.5 c 0,8,9
 718.941 1268 718.941 1268 595 1268 c 0,10,11
 455.091 1268 455.091 1268 301 1211.5 c 0,12,13
 256 1195 256 1195 223 1178 c 1,14,-1
 172 1337 l 1,15,16
 304.13 1403.07 304.13 1403.07 511 1428.5 c 0,17,18
 572 1436 572 1436 643.5 1436 c 128,-1,19
 715 1436 715 1436 798.5 1412.5 c 128,-1,20
 882 1389 882 1389 946 1342.5 c 0,21,22
 1087 1240.05 1087 1240.05 1087 1068 c 0,23,24
 1087 905.782 1087 905.782 955.5 803 c 0,25,26
 912 769 912 769 854 749 c 1,27,-1
 853 740 l 1,28,29
 1133 667.123 1133 667.123 1133 406 c 0,30,31
 1133 211.987 1133 211.987 956 91 c 0,32,33
 793.611 -20 793.611 -20 575 -20 c 0,34,35
 288.077 -20 288.077 -20 112 89 c 1,36,-1
 165 255 l 1,37,38
 293.175 181.299 293.175 181.299 484.5 156 c 0,39,40
 545 148 545 148 605 148 c 128,-1,41
 665 148 665 148 724.5 164 c 128,-1,42
 784 180 784 180 830 211 c 0,43,44
 933 280.413 933 280.413 933 397 c 0,45,46
 933 543.429 933 543.429 755.5 605.5 c 0,47,48
 649.519 642.561 649.519 642.561 533.576 642.561 c 128,-1,49
 417.634 642.561 417.634 642.561 335 633 c 1,50,-1
 335 814 l 1,0,1
EndSplineSet
EndChar

StartChar: four
Encoding: 52 52 84
Width: 1398
Flags: W
HStem: 0 21G<844 1029> 340 168<282 844 1029 1309> 1396 20G<827.143 1029>
VStem: 844 185<0 340 508 1191>
LayerCount: 2
Fore
SplineSet
77 506 m 1,0,-1
 844 1416 l 1,1,-1
 1029 1416 l 1,2,-1
 1029 508 l 1,3,-1
 1309 508 l 1,4,-1
 1309 340 l 1,5,-1
 1029 340 l 1,6,-1
 1029 0 l 1,7,-1
 844 0 l 1,8,-1
 844 340 l 1,9,-1
 131 340 l 1,10,-1
 77 506 l 1,0,-1
282 508 m 1,11,-1
 844 508 l 1,12,-1
 844 1191 l 1,13,-1
 282 508 l 1,11,-1
EndSplineSet
EndChar

StartChar: five
Encoding: 53 53 85
Width: 1271
Flags: W
HStem: -20 168<307.156 779.377> 678.509 169.01<379.101 774.961> 1248 168<376 1046>
VStem: 191 185<835 1248> 934 200<279.139 557.114>
LayerCount: 2
Fore
SplineSet
166 255 m 1,0,1
 354.413 148 354.413 148 569 148 c 0,2,3
 725.275 148 725.275 148 826 217.5 c 0,4,5
 934 292.02 934 292.02 934 427 c 0,6,7
 934 590.285 934 590.285 733.5 649.5 c 0,8,9
 637 678 637 678 499.5 678.5 c 2,10,-1
 494.665 678.509 l 2,11,12
 359 678.509 359 678.509 191 651 c 1,13,-1
 191 1416 l 1,14,-1
 1046 1416 l 1,15,-1
 1046 1248 l 1,16,-1
 376 1248 l 1,17,-1
 376 835 l 1,18,19
 468.444 847.518 468.444 847.518 515.241 847.518 c 128,-1,20
 562.037 847.518 562.037 847.518 610.519 847.259 c 128,-1,21
 659 847 659 847 743 832 c 128,-1,22
 827 817 827 817 898.5 786 c 128,-1,23
 970 755 970 755 1022.5 706.5 c 0,24,25
 1134 603.495 1134 603.495 1134 436 c 0,26,27
 1134 217.333 1134 217.333 946 92 c 0,28,29
 778 -20 778 -20 540 -20 c 0,30,31
 287.811 -20 287.811 -20 113 89 c 1,32,-1
 166 255 l 1,0,1
EndSplineSet
EndChar

StartChar: six
Encoding: 54 54 86
Width: 1418
Flags: W
HStem: -20 166<547.936 941.926> 724 168<508.955 958.341> 1271.7 164.466<625.465 1088.82>
VStem: 138 196<368.392 621.32> 1096 196<292.19 594.938>
LayerCount: 2
Fore
SplineSet
347 779 m 1,0,1
 544.75 892 544.75 892 789 892 c 0,2,3
 1006.83 892 1006.83 892 1144.5 788.5 c 0,4,5
 1292 677.606 1292 677.606 1292 477 c 0,6,7
 1292 257.471 1292 257.471 1125.5 116 c 0,8,9
 965.438 -20 965.438 -20 733 -20 c 0,10,11
 455.54 -20 455.54 -20 295.5 150.5 c 0,12,13
 138 318.294 138 318.294 138 601 c 0,14,15
 138 1187.86 138 1187.86 527 1370.5 c 0,16,17
 666.852 1436.16 666.852 1436.16 844.946 1436.16 c 1,18,-1
 879 1435.5 l 1,19,20
 1055.31 1428.64 1055.31 1428.64 1218 1358 c 1,21,-1
 1170 1199 l 1,22,23
 988.261 1271.7 988.261 1271.7 834.451 1271.7 c 0,24,25
 532.317 1271.7 532.317 1271.7 407.5 998 c 0,26,27
 366 907 366 907 347 779 c 1,0,1
772 724 m 0,28,29
 706 724 706 724 643 713 c 128,-1,30
 580 702 580 702 523 684 c 0,31,32
 412.585 649.132 412.585 649.132 334 593 c 1,33,-1
 334 576 l 2,34,35
 334 382.661 334 382.661 446.5 265 c 0,36,37
 560.281 146 560.281 146 751 146 c 0,38,39
 897.59 146 897.59 146 994 226 c 0,40,41
 1096 310.638 1096 310.638 1096 447 c 0,42,43
 1096 575.636 1096 575.636 1000 652 c 0,44,45
 909.486 724 909.486 724 772 724 c 0,28,29
EndSplineSet
EndChar

StartChar: seven
Encoding: 55 55 87
Width: 1105
Flags: W
HStem: 0 21G<247 474.452> 1248 168<61 851.111>
VStem: 247 205<0 168.852>
LayerCount: 2
Fore
SplineSet
856 1258 m 1,0,1
 699.333 1248 699.333 1248 570 1248 c 2,2,-1
 61 1248 l 1,3,-1
 61 1416 l 1,4,-1
 1058 1416 l 1,5,-1
 1058 1248 l 1,6,7
 884.576 1065.29 884.576 1065.29 692.5 668 c 0,8,9
 496.903 263.432 496.903 263.432 452 0 c 1,10,-1
 247 0 l 1,11,12
 313.707 313.231 313.707 313.231 510.5 708.5 c 0,13,14
 693.428 1075.92 693.428 1075.92 856 1258 c 1,0,1
EndSplineSet
EndChar

StartChar: eight
Encoding: 56 56 88
Width: 1332
Flags: W
HStem: -20 168<461.334 879.699> 643 165<470.839 834.339> 1268 168<462.167 857.008>
VStem: 127 193<271.884 531.333> 168 195<908.741 1177.27> 963 196<923.964 1174.57> 1005 200<260.445 524.349>
LayerCount: 2
Fore
SplineSet
168 1064 m 0,0,1
 168 1137 168 1137 211 1209.5 c 128,-1,2
 254 1282 254 1282 324.5 1332.5 c 0,3,4
 468.99 1436 468.99 1436 672 1436 c 0,5,6
 878.4 1436 878.4 1436 1013.5 1339.5 c 0,7,8
 1159 1235.57 1159 1235.57 1159 1062 c 0,9,10
 1159 901.759 1159 901.759 1027.5 802 c 0,11,12
 984 769 984 769 926 749 c 1,13,-1
 926 744 l 1,14,15
 1126.01 687.748 1126.01 687.748 1185.5 523 c 0,16,17
 1205 469 1205 469 1205 403.5 c 128,-1,18
 1205 338 1205 338 1183 280 c 128,-1,19
 1161 222 1161 222 1122.5 174.5 c 128,-1,20
 1084 127 1084 127 1031.5 91 c 128,-1,21
 979 55 979 55 918 30 c 0,22,23
 796 -20 796 -20 672 -20 c 128,-1,24
 548 -20 548 -20 452.5 5.5 c 128,-1,25
 357 31 357 31 284.5 82.5 c 0,26,27
 127 194.379 127 194.379 127 397 c 0,28,29
 127 509.522 127 509.522 202.5 608 c 0,30,31
 273.688 700.853 273.688 700.853 381 738 c 1,32,-1
 381 744 l 1,33,34
 293.048 768.545 293.048 768.545 231.5 852 c 0,35,36
 168 938.102 168 938.102 168 1064 c 0,0,1
351 515 m 0,37,38
 320 470 320 470 320 405.5 c 128,-1,39
 320 341 320 341 349 293 c 128,-1,40
 378 245 378 245 426.5 212.5 c 0,41,42
 522.754 148 522.754 148 672 148 c 0,43,44
 897.34 148 897.34 148 977.5 285 c 0,45,46
 1005 332 1005 332 1005 396.5 c 128,-1,47
 1005 461 1005 461 974 507.5 c 128,-1,48
 943 554 943 554 893 584 c 0,49,50
 794.667 643 794.667 643 654 643 c 0,51,52
 439.178 643 439.178 643 351 515 c 0,37,38
389 1153 m 0,53,54
 363 1114 363 1114 363 1054 c 128,-1,55
 363 994 363 994 385.5 945.5 c 128,-1,56
 408 897 408 897 449 866.5 c 0,57,58
 527.639 808 527.639 808 672 808 c 0,59,60
 781.062 808 781.062 808 869 875 c 0,61,62
 963 946.619 963 946.619 963 1050 c 0,63,64
 963 1156.5 963 1156.5 872 1215 c 0,65,66
 789.556 1268 789.556 1268 654 1268 c 0,67,68
 465.667 1268 465.667 1268 389 1153 c 0,53,54
EndSplineSet
EndChar

StartChar: fraction
Encoding: 218 218 90
AltUni2: 002044.ffffffff.0
Width: 553
Flags: W
LayerCount: 2
Fore
SplineSet
-586 -167 m 1,0,-1
 1031 1761 l 1,1,-1
 1152 1661 l 1,2,-1
 -465 -267 l 1,3,-1
 -586 -167 l 1,0,-1
EndSplineSet
EndChar

StartChar: less
Encoding: 60 60 91
Width: 1318
Flags: W
LayerCount: 2
Fore
SplineSet
1033 192 m 1,0,-1
 927 35 l 1,1,-1
 107 571 l 1,2,-1
 107 743 l 1,3,-1
 921 1369 l 1,4,-1
 1034 1221 l 1,5,-1
 313 668 l 1,6,-1
 1033 192 l 1,0,-1
EndSplineSet
EndChar

StartChar: plus
Encoding: 43 43 93
Width: 1336
Flags: W
HStem: 446 168<207 575 760 1129> 980 20G<575 760>
VStem: 575 185<60 446 614 1000>
LayerCount: 2
Fore
SplineSet
760 1000 m 1,0,-1
 760 614 l 1,1,-1
 1129 614 l 1,2,-1
 1129 446 l 1,3,-1
 760 446 l 1,4,-1
 760 60 l 1,5,-1
 575 60 l 1,6,-1
 575 446 l 1,7,-1
 207 446 l 1,8,-1
 207 614 l 1,9,-1
 575 614 l 1,10,-1
 575 1000 l 1,11,-1
 760 1000 l 1,0,-1
EndSplineSet
EndChar

StartChar: plusminus
Encoding: 177 177 94
Width: 1336
Flags: W
HStem: 60 168<207 1129> 796 168<207 575 760 1129>
VStem: 575 185<410 796 964 1350>
LayerCount: 2
Fore
SplineSet
760 1350 m 1,0,-1
 760 964 l 1,1,-1
 1129 964 l 1,2,-1
 1129 796 l 1,3,-1
 760 796 l 1,4,-1
 760 410 l 1,5,-1
 575 410 l 1,6,-1
 575 796 l 1,7,-1
 207 796 l 1,8,-1
 207 964 l 1,9,-1
 575 964 l 1,10,-1
 575 1350 l 1,11,-1
 760 1350 l 1,0,-1
207 228 m 1,12,-1
 1129 228 l 1,13,-1
 1129 60 l 1,14,-1
 207 60 l 1,15,-1
 207 228 l 1,12,-1
EndSplineSet
EndChar

StartChar: equal
Encoding: 61 61 95
Width: 1336
Flags: W
HStem: 275 154<207 1129> 675 154<207 1129>
LayerCount: 2
Fore
SplineSet
207 829 m 1,0,-1
 1129 829 l 1,1,-1
 1129 675 l 1,2,-1
 207 675 l 1,3,-1
 207 829 l 1,0,-1
207 429 m 1,4,-1
 1129 429 l 1,5,-1
 1129 275 l 1,6,-1
 207 275 l 1,7,-1
 207 429 l 1,4,-1
EndSplineSet
EndChar

StartChar: divide
Encoding: 214 214 96
Width: 1336
Flags: W
HStem: 47 247<579.068 756.932> 445 168<207 1129> 765 247<579.068 756.932>
VStem: 544 248<82.0679 259.448 800.068 977.448>
LayerCount: 2
Fore
SplineSet
578 81 m 128,-1,1
 544 115 544 115 544 171 c 128,-1,2
 544 227 544 227 578 260.5 c 128,-1,3
 612 294 612 294 668 294 c 128,-1,4
 724 294 724 294 758 260.5 c 128,-1,5
 792 227 792 227 792 171 c 128,-1,6
 792 115 792 115 758 81 c 128,-1,7
 724 47 724 47 668 47 c 128,-1,0
 612 47 612 47 578 81 c 128,-1,1
207 613 m 1,8,-1
 1129 613 l 1,9,-1
 1129 445 l 1,10,-1
 207 445 l 1,11,-1
 207 613 l 1,8,-1
578 799 m 128,-1,13
 544 833 544 833 544 889 c 128,-1,14
 544 945 544 945 578 978.5 c 128,-1,15
 612 1012 612 1012 668 1012 c 128,-1,16
 724 1012 724 1012 758 978.5 c 128,-1,17
 792 945 792 945 792 889 c 128,-1,18
 792 833 792 833 758 799 c 128,-1,19
 724 765 724 765 668 765 c 128,-1,12
 612 765 612 765 578 799 c 128,-1,13
EndSplineSet
EndChar

StartChar: logicalnot
Encoding: 194 194 97
Width: 1335
Flags: W
HStem: 555 168<207 942>
VStem: 942 185<151 555>
LayerCount: 2
Fore
SplineSet
207 723 m 1,0,-1
 1128 723 l 1,1,-1
 1127 151 l 1,2,-1
 942 151 l 1,3,-1
 942 555 l 1,4,-1
 207 555 l 1,5,-1
 207 723 l 1,0,-1
EndSplineSet
EndChar

StartChar: mu
Encoding: 181 181 98
AltUni2: 0003bc.ffffffff.0
Width: 1317
Flags: W
HStem: -20 160<462.481 826.175> 0 21G<981.878 1133> 980 20G<163 353 943 1133>
VStem: 163 190<-335 46.4432 256.579 1000> 943 190<232.411 1000> 988 145<0 46.8309>
LayerCount: 2
Fore
SplineSet
326 50 m 1,0,1
 354 -63.6471 354 -63.6471 354 -199 c 2,2,-1
 354 -335 l 1,3,-1
 163 -335 l 1,4,-1
 163 1000 l 1,5,-1
 353 1000 l 1,6,-1
 353 493 l 2,7,8
 353 316.969 353 316.969 411 234.5 c 0,9,10
 477.462 140 477.462 140 632 140 c 0,11,12
 783.25 140 783.25 140 889.5 225 c 0,13,14
 922 251 922 251 943 282 c 1,15,-1
 943 1000 l 1,16,-1
 1133 1000 l 1,17,-1
 1133 0 l 1,18,-1
 988 0 l 1,19,-1
 958 98 l 1,20,21
 813.182 -20 813.182 -20 619 -20 c 0,22,23
 434 -20 434 -20 326 50 c 1,0,1
EndSplineSet
EndChar

StartChar: percent
Encoding: 37 37 99
Width: 1468
Flags: W
HStem: -20 121<984.297 1217.13> 439 121<982.466 1213.73> 856 121<253.831 487.596> 1315 121<252.466 483.735>
VStem: 69 137<1025.26 1267.12> 532 137<1023.23 1267.35> 799 137<149.264 391.117> 1262 137<147.231 391.349>
LayerCount: 2
Fore
SplineSet
111 83 m 1,0,-1
 1246 1439 l 1,1,-1
 1367 1339 l 1,2,-1
 232 -17 l 1,3,-1
 111 83 l 1,0,-1
370 1436 m 256,4,5
 496.766 1436 496.766 1436 582.5 1354.5 c 0,6,7
 669 1272.27 669 1272.27 669 1147 c 256,8,9
 669 1021.68 669 1021.68 581.5 938.5 c 0,10,11
 494.714 856 494.714 856 368 856 c 256,12,13
 240.182 856 240.182 856 155.5 936.5 c 0,14,15
 69 1018.73 69 1018.73 69 1143 c 256,16,17
 69 1267.16 69 1267.16 156.5 1352.5 c 0,18,19
 242.114 1436 242.114 1436 370 1436 c 256,4,5
488.5 1022.5 m 128,-1,21
 532 1068 532 1068 532 1143 c 0,22,23
 532 1260.87 532 1260.87 435.5 1302 c 0,24,25
 405 1315 405 1315 368 1315 c 0,26,27
 293 1315 293 1315 249.5 1268.5 c 128,-1,28
 206 1222 206 1222 206 1165.5 c 128,-1,29
 206 1109 206 1109 217.5 1078 c 128,-1,30
 229 1047 229 1047 250.5 1024.5 c 0,31,32
 295.889 977 295.889 977 370.444 977 c 128,-1,20
 445 977 445 977 488.5 1022.5 c 128,-1,21
1100 560 m 256,33,34
 1226.77 560 1226.77 560 1312.5 478.5 c 0,35,36
 1399 396.272 1399 396.272 1399 271 c 256,37,38
 1399 145.679 1399 145.679 1311.5 62.5 c 0,39,40
 1224.71 -20.0001 1224.71 -20.0001 1098 -20 c 256,41,42
 970.182 -20 970.182 -20 885.5 60.5 c 0,43,44
 799 142.728 799 142.728 799 267 c 256,45,46
 799 391.16 799 391.16 886.5 476.5 c 0,47,48
 972.114 560 972.114 560 1100 560 c 256,33,34
1218.5 146.5 m 128,-1,50
 1262 192 1262 192 1262 267 c 0,51,52
 1262 384.869 1262 384.869 1165.5 426 c 0,53,54
 1135 439 1135 439 1098 439 c 0,55,56
 1023 439 1023 439 979.5 392.5 c 128,-1,57
 936 346 936 346 936 289.5 c 128,-1,58
 936 233 936 233 947.5 202 c 128,-1,59
 959 171 959 171 980.5 148.5 c 0,60,61
 1025.89 101 1025.89 101 1100.44 101 c 128,-1,49
 1175 101 1175 101 1218.5 146.5 c 128,-1,50
EndSplineSet
EndChar

StartChar: hyphen
Encoding: 45 45 100
Width: 1136
Flags: W
HStem: 515 154<207 929>
LayerCount: 2
Fore
SplineSet
207 669 m 1,0,-1
 929 669 l 1,1,-1
 929 515 l 1,2,-1
 207 515 l 1,3,-1
 207 669 l 1,0,-1
EndSplineSet
EndChar

StartChar: underscore
Encoding: 95 95 101
Width: 1236
Flags: W
HStem: -154 154<107 1129>
LayerCount: 2
Fore
SplineSet
107 0 m 1,0,-1
 1129 0 l 1,1,-1
 1129 -154 l 1,2,-1
 107 -154 l 1,3,-1
 107 0 l 1,0,-1
EndSplineSet
EndChar

StartChar: endash
Encoding: 208 208 102
Width: 1556
Flags: W
HStem: 515 154<267 1289>
LayerCount: 2
Fore
SplineSet
267 669 m 1,0,-1
 1289 669 l 1,1,-1
 1289 515 l 1,2,-1
 267 515 l 1,3,-1
 267 669 l 1,0,-1
EndSplineSet
EndChar

StartChar: emdash
Encoding: 209 209 103
Width: 1636
Flags: W
HStem: 515 154<107 1529>
LayerCount: 2
Fore
SplineSet
107 669 m 1,0,-1
 1529 669 l 1,1,-1
 1529 515 l 1,2,-1
 107 515 l 1,3,-1
 107 669 l 1,0,-1
EndSplineSet
EndChar

StartChar: slash
Encoding: 47 47 104
Width: 997
Flags: W
HStem: 1541 20G<742.333 924>
LayerCount: 2
Fore
SplineSet
73 -467 m 1,0,-1
 749 1561 l 1,1,-1
 924 1561 l 1,2,-1
 248 -467 l 1,3,-1
 73 -467 l 1,0,-1
EndSplineSet
EndChar

StartChar: backslash
Encoding: 92 92 105
Width: 997
Flags: W
HStem: 1541 20G<73 262.588>
LayerCount: 2
Fore
SplineSet
741 -467 m 1,0,-1
 73 1561 l 1,1,-1
 256 1561 l 1,2,-1
 924 -467 l 1,3,-1
 741 -467 l 1,0,-1
EndSplineSet
EndChar

StartChar: bar
Encoding: 124 124 106
Width: 553
Flags: W
HStem: 1541 20G<193 360>
VStem: 193 167<-467 1561>
LayerCount: 2
Fore
SplineSet
193 -467 m 1,0,-1
 193 1561 l 1,1,-1
 360 1561 l 1,2,-1
 360 -467 l 1,3,-1
 193 -467 l 1,0,-1
EndSplineSet
EndChar

StartChar: section
Encoding: 164 164 107
Width: 1114
Flags: W
HStem: -20 166<394.694 685.092> 1270 166<428.908 719.306>
VStem: 137 196<677.768 871.492> 201 196<1063.64 1238.47> 717 196<178.193 353.136> 781 196<544.303 738.446>
LayerCount: 2
Fore
SplineSet
825 1152 m 1,0,1
 690.439 1270 690.439 1270 548 1270 c 0,2,3
 447.543 1270 447.543 1270 409.5 1200 c 0,4,5
 397 1177 397 1177 397 1142.5 c 128,-1,6
 397 1108 397 1108 422 1081 c 128,-1,7
 447 1054 447 1054 487.5 1034.5 c 128,-1,8
 528 1015 528 1015 580.5 999 c 2,9,-1
 687 966 l 2,10,11
 822.974 923.193 822.974 923.193 874.987 882.097 c 0,12,13
 977 801.494 977 801.494 977 686 c 0,14,15
 977 616 977 616 943 555.5 c 128,-1,16
 909 495 909 495 853 457 c 1,17,18
 913 392.714 913 392.714 913 310.357 c 128,-1,19
 913 228 913 228 882.5 169.5 c 128,-1,20
 852 111 852 111 801 69 c 0,21,22
 692.929 -20 692.929 -20 548 -20 c 0,23,24
 360.848 -20 360.848 -20 196 116 c 1,25,-1
 289 264 l 1,26,27
 423.561 146 423.561 146 566 146 c 0,28,29
 666.457 146 666.457 146 704.5 216 c 0,30,31
 717 239 717 239 717 273.5 c 128,-1,32
 717 308 717 308 692 335 c 128,-1,33
 667 362 667 362 626.5 381.5 c 128,-1,34
 586 401 586 401 533.5 417 c 2,35,-1
 427 450 l 2,36,37
 291.026 492.807 291.026 492.807 239.013 533.903 c 0,38,39
 137 614.506 137 614.506 137 730 c 0,40,41
 137 799 137 799 171 860 c 128,-1,42
 205 921 205 921 260 959 c 1,43,44
 201 1022.37 201 1022.37 201 1104.69 c 128,-1,45
 201 1187 201 1187 231.5 1246 c 128,-1,46
 262 1305 262 1305 313 1347 c 0,47,48
 421.071 1436 421.071 1436 566 1436 c 0,49,50
 753.151 1436 753.151 1436 918 1300 c 1,51,-1
 825 1152 l 1,0,1
731 539 m 1,52,53
 781 579.909 781 579.909 781 656 c 0,54,55
 781 739.75 781 739.75 646 787 c 1,56,-1
 471.5 843.5 l 2,57,58
 425 858 425 858 383 877 c 1,59,60
 333 836.091 333 836.091 333 760 c 0,61,62
 333 677.438 333 677.438 468 628.5 c 0,63,64
 508 614 508 614 552 600.5 c 2,65,-1
 642 572.5 l 2,66,67
 688 558 688 558 731 539 c 1,52,53
EndSplineSet
EndChar

StartChar: paragraph
Encoding: 166 166 108
Width: 1226
Flags: W
HStem: 1285 130<718 915>
VStem: 127 591<886.201 1227.84> 567 151<-104 704> 915 147<-104 1285>
LayerCount: 2
Fore
SplineSet
1062 1415 m 1,0,-1
 1062 -104 l 1,1,-1
 915 -104 l 1,2,-1
 915 1285 l 1,3,-1
 718 1285 l 1,4,-1
 718 -104 l 1,5,-1
 567 -104 l 1,6,-1
 567 704 l 1,7,8
 377 704 377 704 257 792 c 0,9,10
 127 887.333 127 887.333 127 1060 c 256,11,12
 127 1229.04 127 1229.04 267.5 1327.5 c 0,13,14
 392.36 1415 392.36 1415 588 1415 c 2,15,-1
 1062 1415 l 1,0,-1
EndSplineSet
EndChar

StartChar: periodcentered
Encoding: 225 225 109
Width: 562
Flags: W
HStem: 396 309<169.835 392.165>
VStem: 126 310<439.835 661.681>
LayerCount: 2
Fore
SplineSet
168.5 438.5 m 128,-1,1
 126 481 126 481 126 551 c 128,-1,2
 126 621 126 621 168.5 663 c 128,-1,3
 211 705 211 705 281 705 c 128,-1,4
 351 705 351 705 393.5 663 c 128,-1,5
 436 621 436 621 436 551 c 128,-1,6
 436 481 436 481 393.5 438.5 c 128,-1,7
 351 396 351 396 281 396 c 128,-1,0
 211 396 211 396 168.5 438.5 c 128,-1,1
EndSplineSet
EndChar

StartChar: bullet
Encoding: 165 165 110
Width: 622
Flags: W
HStem: 367 407<177.578 445.72>
VStem: 107 408<437.82 703.365>
LayerCount: 2
Fore
SplineSet
107 570.5 m 0,0,1
 107 616 107 616 121.5 653.5 c 128,-1,2
 136 691 136 691 163 718 c 0,3,4
 219 774 219 774 312 774 c 0,5,6
 451.8 774 451.8 774 500 653.5 c 0,7,8
 515 616 515 616 515 570.5 c 128,-1,9
 515 525 515 525 500 487.5 c 128,-1,10
 485 450 485 450 458.5 423.5 c 0,11,12
 402 367 402 367 312 367 c 0,13,14
 220.566 367 220.566 367 163 423.5 c 0,15,16
 107 478.463 107 478.463 107 570.5 c 0,0,1
EndSplineSet
EndChar

StartChar: asterisk
Encoding: 42 42 111
Width: 1107
Flags: W
VStem: 496 114<954 1190.54 1499.35 1735>
LayerCount: 2
Fore
SplineSet
480 1218 m 1,0,-1
 244 1101 l 1,1,-1
 187 1199 l 1,2,-1
 406 1345 l 1,3,-1
 187 1491 l 1,4,-1
 244 1589 l 1,5,-1
 480 1471 l 1,6,-1
 496 1735 l 1,7,-1
 610 1735 l 1,8,-1
 626 1472 l 1,9,-1
 863 1590 l 1,10,-1
 920 1491 l 1,11,-1
 699 1345 l 1,12,-1
 920 1199 l 1,13,-1
 863 1100 l 1,14,-1
 626 1218 l 1,15,-1
 610 954 l 1,16,-1
 496 954 l 1,17,-1
 480 1218 l 1,0,-1
EndSplineSet
EndChar

StartChar: ordfeminine
Encoding: 187 187 112
Width: 933
Flags: W
HStem: 796 130<263.034 517.733> 1437 129<203.352 551.536>
VStem: 75 164<947.895 1113.42> 592 165<991.308 1193 1312 1408.1>
LayerCount: 2
Fore
SplineSet
213 1398 m 1,0,-1
 173 1514 l 1,1,2
 285 1566 285 1566 423 1566 c 0,3,4
 655.6 1566 655.6 1566 731 1421 c 0,5,6
 757 1371 757 1371 757 1302 c 2,7,-1
 757 1067 l 2,8,9
 757 996.667 757 996.667 769 971.333 c 0,10,11
 789.388 928.292 789.388 928.292 841 913 c 1,12,-1
 817 810 l 1,13,14
 797.256 807.436 797.256 807.436 779.419 807.436 c 0,15,16
 667.795 807.436 667.795 807.436 620 909 c 1,17,18
 485.812 796 485.812 796 344 796 c 0,19,20
 232.947 796 232.947 796 157 854.5 c 0,21,22
 75 917.662 75 917.662 75 1007.83 c 128,-1,23
 75 1098 75 1098 118 1153 c 128,-1,24
 161 1208 161 1208 232.5 1242.5 c 0,25,26
 367.358 1307.57 367.358 1307.57 591 1312 c 1,27,28
 585.235 1386.95 585.235 1386.95 540 1413.5 c 0,29,30
 499.963 1437 499.963 1437 405.231 1437 c 128,-1,31
 310.5 1437 310.5 1437 213 1398 c 1,0,-1
356 926 m 0,32,33
 495.7 926 495.7 926 592 1033 c 1,34,-1
 592 1193 l 1,35,36
 418.295 1183.61 418.295 1183.61 356.147 1160.31 c 128,-1,37
 294 1137 294 1137 266.5 1106.5 c 128,-1,38
 239 1076 239 1076 239 1026 c 128,-1,39
 239 976 239 976 271.5 951 c 128,-1,40
 304 926 304 926 356 926 c 0,32,33
EndSplineSet
EndChar

StartChar: ordmasculine
Encoding: 188 188 113
Width: 938
Flags: W
HStem: 794 136<332.938 610.452> 1430 136<328.368 604.706>
VStem: 69 166<1030.55 1332.69> 703 166<1024.82 1327.73>
LayerCount: 2
Fore
SplineSet
476 1566 m 256,0,1
 645.782 1566 645.782 1566 756.5 1459.5 c 0,2,3
 869 1351.29 869 1351.29 869 1183 c 0,4,5
 869 1016.96 869 1016.96 749.5 905 c 0,6,7
 631.029 794 631.029 794 462 794 c 256,8,9
 291.178 794 291.178 794 181.5 899.5 c 0,10,11
 69 1007.71 69 1007.71 69 1174 c 256,12,13
 69 1340.46 69 1340.46 188.5 1453.5 c 0,14,15
 307.429 1566 307.429 1566 476 1566 c 256,0,1
474.5 930 m 0,16,17
 527 930 527 930 568.5 949 c 128,-1,18
 610 968 610 968 640 1001 c 0,19,20
 703 1070.3 703 1070.3 703 1174 c 0,21,22
 703 1283.67 703 1283.67 636.5 1356.5 c 0,23,24
 569.391 1430 569.391 1430 462 1430 c 0,25,26
 362.412 1430 362.412 1430 298 1357 c 0,27,28
 235 1285.6 235 1285.6 235 1183 c 0,29,30
 235 1073.78 235 1073.78 301.5 1002 c 0,31,32
 368.206 930 368.206 930 474.5 930 c 0,16,17
EndSplineSet
EndChar

StartChar: braceleft
Encoding: 123 123 114
Width: 733
Flags: W
HStem: 569 129<87 171.681>
VStem: 234 167<-118.223 497.314 753.222 1427.56>
LayerCount: 2
Fore
SplineSet
256 642 m 1,0,1
 401 577.338 401 577.338 401 362 c 2,2,-1
 401 36 l 2,3,4
 401 -96.1053 401 -96.1053 493.5 -174 c 0,5,6
 522 -198 522 -198 556 -218 c 1,7,-1
 481 -330 l 1,8,9
 310.749 -265.305 310.749 -265.305 254 -113.5 c 0,10,11
 234 -60 234 -60 234 6 c 2,12,-1
 234 332 l 2,13,14
 234 430.2 234 430.2 191 499 c 0,15,16
 147.25 569 147.25 569 87 569 c 1,17,-1
 87 698 l 1,18,19
 149.039 698 149.039 698 191 751.5 c 0,20,21
 234 806.325 234 806.325 234 895 c 2,22,-1
 234 1225 l 2,23,24
 234 1377 234 1377 297 1477.5 c 128,-1,25
 360 1578 360 1578 471 1616 c 1,26,-1
 539 1509 l 1,27,28
 468 1470 468 1470 434.5 1411 c 128,-1,29
 401 1352 401 1352 401 1255 c 2,30,-1
 401 925 l 2,31,32
 401 708.622 401 708.622 256 642 c 1,0,1
EndSplineSet
EndChar

StartChar: parenleft
Encoding: 40 40 116
Width: 800
Flags: W
VStem: 137 184<324.59 979.785>
LayerCount: 2
Fore
SplineSet
556 -307 m 1,0,1
 137 60.6939 137 60.6939 137 633 c 0,2,3
 137 1220.27 137 1220.27 569 1590 c 1,4,-1
 668 1485 l 1,5,6
 402.631 1207.7 402.631 1207.7 342 893 c 0,7,8
 321 784 321 784 321 651 c 128,-1,9
 321 518 321 518 348 394 c 128,-1,10
 375 270 375 270 423 163.5 c 0,11,12
 509.734 -28.9409 509.734 -28.9409 679 -207 c 1,13,-1
 556 -307 l 1,0,1
EndSplineSet
EndChar

StartChar: bracketleft
Encoding: 91 91 118
Width: 733
Flags: W
HStem: -331 169<360 610> 1448 168<360 610>
VStem: 193 417<-331 -162 1448 1616> 193 167<-162 1448>
LayerCount: 2
Fore
SplineSet
193 -331 m 1,0,-1
 193 1616 l 1,1,-1
 610 1616 l 1,2,-1
 610 1448 l 1,3,-1
 360 1448 l 1,4,-1
 360 -162 l 1,5,-1
 610 -162 l 1,6,-1
 610 -331 l 1,7,-1
 193 -331 l 1,0,-1
EndSplineSet
EndChar

StartChar: dollar
Encoding: 36 36 120
Width: 1288
Flags: W
HStem: 82 172<403.263 565 718 864.315> 1159 173<411.776 565 718 873.143>
VStem: 146 198<901.243 1095.97> 565 153<-96 85.6286 254 628 832 1159 1326.57 1471> 963 198<343.435 550.064>
LayerCount: 2
Fore
SplineSet
565 -96 m 1,0,-1
 565 82 l 1,1,2
 379.571 94.3619 379.571 94.3619 211.5 184 c 0,3,4
 159 212 159 212 116 246 c 1,5,-1
 211 406 l 1,6,7
 374.059 283.203 374.059 283.203 565 254 c 1,8,-1
 565 659 l 1,9,10
 370.223 696.457 370.223 696.457 294.111 741.229 c 128,-1,11
 218 786 218 786 182 840.5 c 128,-1,12
 146 895 146 895 146 975.5 c 128,-1,13
 146 1056 146 1056 181.5 1118.5 c 128,-1,14
 217 1181 217 1181 275.5 1225.5 c 0,15,16
 392.878 1314.79 392.878 1314.79 565 1332 c 1,17,-1
 565 1471 l 1,18,-1
 718 1471 l 1,19,-1
 718 1332 l 1,20,21
 924.97 1311.3 924.97 1311.3 1089 1206 c 1,22,-1
 1020 1044 l 1,23,24
 880.168 1127.9 880.168 1127.9 718 1159 c 1,25,-1
 718 802 l 1,26,27
 928.142 760.491 928.142 760.491 1005.57 716.245 c 128,-1,28
 1083 672 1083 672 1122 615.5 c 128,-1,29
 1161 559 1161 559 1161 472 c 256,30,31
 1161 308.154 1161 308.154 1025.5 203.5 c 0,32,33
 905.757 111.015 905.757 111.015 718 87 c 1,34,-1
 718 -96 l 1,35,-1
 565 -96 l 1,0,-1
942.5 374.5 m 0,36,37
 963 410 963 410 963 453 c 128,-1,38
 963 496 963 496 944 523 c 128,-1,39
 925 550 925 550 892 569.5 c 0,40,41
 836.112 602.525 836.112 602.525 718 628 c 1,42,-1
 718 254 l 1,43,44
 884.968 274.871 884.968 274.871 942.5 374.5 c 0,36,37
362.5 1064.5 m 0,45,46
 344 1034 344 1034 344 995 c 128,-1,47
 344 956 344 956 361 931 c 128,-1,48
 378 906 378 906 407.5 887.5 c 0,49,50
 460.569 854.219 460.569 854.219 565 832 c 1,51,-1
 565 1165 l 1,52,53
 412.719 1147.29 412.719 1147.29 362.5 1064.5 c 0,45,46
EndSplineSet
EndChar

StartChar: cent
Encoding: 162 162 121
Width: 1065
Flags: W
HStem: 184 159<456.254 565 718 923.509> 1059 156<442.984 565 718 902.286>
VStem: 95 190<517.313 897.4> 565 153<-96 186.437 348 1058 1213.36 1471>
LayerCount: 2
Fore
SplineSet
1028 273 m 1,0,1
 902.586 202.692 902.586 202.692 718 184 c 1,2,-1
 718 -96 l 1,3,-1
 565 -96 l 1,4,-1
 565 182 l 1,5,6
 346.587 200.201 346.587 200.201 222 335 c 0,7,8
 95 472.41 95 472.41 95 698 c 0,9,10
 95 908.96 95 908.96 227.5 1051 c 0,11,12
 357.739 1190.62 357.739 1190.62 565 1215 c 1,13,-1
 565 1471 l 1,14,-1
 718 1471 l 1,15,-1
 718 1217 l 1,16,17
 887.969 1205.14 887.969 1205.14 999 1145 c 1,18,-1
 953 992 l 1,19,20
 856.93 1042.56 856.93 1042.56 718 1058 c 1,21,-1
 718 343 l 1,22,23
 876.2 359.049 876.2 359.049 992 416 c 1,24,-1
 1028 273 l 1,0,1
285 709.5 m 0,25,26
 285 639 285 639 304.5 578 c 128,-1,27
 324 517 324 517 360.5 470 c 0,28,29
 436.875 371.654 436.875 371.654 565 348 c 1,30,-1
 565 1059 l 1,31,32
 434.737 1038.96 434.737 1038.96 360 944.5 c 0,33,34
 285 849.708 285 849.708 285 709.5 c 0,25,26
EndSplineSet
EndChar

StartChar: sterling
Encoding: 163 163 122
Width: 1208
Flags: W
HStem: 0 168<318.493 1091> 590 154<142 313 534 864> 1283 154<560.93 893.977>
VStem: 288 187<748.491 1192.73> 351 186<337.575 590>
LayerCount: 2
Fore
SplineSet
351 504 m 0,0,1
 351 544 351 544 343 590 c 1,2,-1
 142 590 l 1,3,-1
 142 744 l 1,4,-1
 313 744 l 1,5,6
 288 871.5 288 871.5 288 971.75 c 128,-1,7
 288 1072 288 1072 315.5 1158.5 c 128,-1,8
 343 1245 343 1245 396.5 1307 c 0,9,10
 508.677 1437 508.677 1437 713 1437 c 0,11,12
 844.176 1437 844.176 1437 956.5 1380 c 0,13,14
 990 1363 990 1363 1011 1345 c 1,15,-1
 946 1209 l 1,16,17
 834 1283 834 1283 703 1283 c 0,18,19
 475 1283 475 1283 475 998 c 0,20,21
 475 904.636 475 904.636 506 744 c 1,22,-1
 864 744 l 1,23,-1
 864 590 l 1,24,-1
 534 590 l 1,25,26
 537 561 537 561 537 521.5 c 128,-1,27
 537 482 537 482 526 431 c 128,-1,28
 515 380 515 380 489.5 330.5 c 0,29,30
 435.466 225.61 435.466 225.61 314 144 c 1,31,32
 458 168 458 168 575 168 c 2,33,-1
 1091 168 l 1,34,-1
 1091 0 l 1,35,-1
 145 0 l 1,36,-1
 128 166 l 1,37,38
 351 287.953 351 287.953 351 504 c 0,0,1
EndSplineSet
EndChar

StartChar: Euro
Encoding: 219 219 123
Width: 1697
Flags: W
HStem: -20 166<797.873 1261.47> 444 154<85 287 538 1247> 795 154<125 288 518 1287> 1270 166<773.836 1254.34>
VStem: 282 196<598 795>
LayerCount: 2
Fore
SplineSet
287 598 m 1,0,1
 282 655.5 282 655.5 282 700.25 c 128,-1,2
 282 745 282 745 288 795 c 1,3,-1
 105 795 l 1,4,-1
 125 949 l 1,5,-1
 320 949 l 1,6,7
 390.165 1171.52 390.165 1171.52 573 1303 c 0,8,9
 757.953 1436 757.953 1436 1015 1436 c 0,10,11
 1306.31 1436 1306.31 1436 1517 1270 c 1,12,-1
 1424 1122 l 1,13,14
 1258.33 1270 1258.33 1270 997 1270 c 0,15,16
 736.412 1270 736.412 1270 591.5 1080.5 c 0,17,18
 546 1021 546 1021 518 949 c 1,19,-1
 1307 949 l 1,20,-1
 1287 795 l 1,21,-1
 482 795 l 1,22,23
 478 759 478 759 478 706 c 128,-1,24
 478 653 478 653 489 598 c 1,25,-1
 1267 598 l 1,26,-1
 1247 444 l 1,27,-1
 538 444 l 1,28,29
 639.132 232.256 639.132 232.256 859 167.5 c 0,30,31
 932 146 932 146 1003 146 c 128,-1,32
 1074 146 1074 146 1136.5 157.5 c 128,-1,33
 1199 169 1199 169 1257.5 189 c 0,34,35
 1383.19 231.971 1383.19 231.971 1458 293 c 1,36,-1
 1530 155 l 1,37,38
 1382.54 29.0468 1382.54 29.0468 1151 -8 c 0,39,40
 1076 -20 1076 -20 975 -20 c 128,-1,41
 874 -20 874 -20 766 13 c 128,-1,42
 658 46 658 46 570.5 106.5 c 0,43,44
 391.594 230.201 391.594 230.201 321 444 c 1,45,-1
 65 444 l 1,46,-1
 85 598 l 1,47,-1
 287 598 l 1,0,1
EndSplineSet
EndChar

StartChar: yen
Encoding: 180 180 124
Width: 1291
Flags: W
HStem: 0 21G<559 744> 275 154<185 559 744 1107> 575 154<185 478 820 1107> 1396 20G<37 252.767 1050.33 1254>
VStem: 559 185<0 275 429 575>
LayerCount: 2
Fore
SplineSet
559 0 m 1,0,-1
 559 275 l 1,1,-1
 185 275 l 1,2,-1
 185 429 l 1,3,-1
 559 429 l 1,4,-1
 559 575 l 1,5,-1
 185 575 l 1,6,-1
 185 729 l 1,7,-1
 478 729 l 1,8,-1
 37 1416 l 1,9,-1
 240 1416 l 1,10,-1
 653 769 l 1,11,-1
 1063 1416 l 1,12,-1
 1254 1416 l 1,13,-1
 820 729 l 1,14,-1
 1107 729 l 1,15,-1
 1107 575 l 1,16,-1
 744 575 l 1,17,-1
 744 429 l 1,18,-1
 1107 429 l 1,19,-1
 1107 275 l 1,20,-1
 744 275 l 1,21,-1
 744 0 l 1,22,-1
 559 0 l 1,0,-1
EndSplineSet
EndChar

StartChar: at
Encoding: 64 64 125
Width: 1932
Flags: W
HStem: -243 120<669.546 940> 117 141<775.234 1006.65 1301.53 1484.84> 772 147<848.213 1113.63> 1165 131<843.655 1327.04>
VStem: 147 156<192.177 649.309> 554 174<305.865 625.549> 1629 156<454.237 880.048>
LayerCount: 2
Fore
SplineSet
1287.08 376.478 m 0,0,1
 1287.08 258 1287.08 258 1373 258 c 0,2,3
 1485 258 1485 258 1562 401.5 c 0,4,5
 1629 526.364 1629 526.364 1629 653.182 c 128,-1,6
 1629 780 1629 780 1588 872 c 128,-1,7
 1547 964 1547 964 1474.5 1029.5 c 0,8,9
 1324.52 1165 1324.52 1165 1092 1165 c 0,10,11
 895.078 1165 895.078 1165 707 1056 c 0,12,13
 527.339 951.879 527.339 951.879 417.5 782.5 c 0,14,15
 303 605.935 303 605.935 303 442.467 c 128,-1,16
 303 279 303 279 354.5 175.5 c 128,-1,17
 406 72 406 72 497 6 c 0,18,19
 674.864 -123 674.864 -123 979 -123 c 1,20,-1
 940 -243 l 1,21,22
 586.168 -243 586.168 -243 377 -91.5 c 0,23,24
 147 75.0888 147 75.0888 147 393 c 0,25,26
 147 649.672 147 649.672 294.5 865 c 0,27,28
 429.903 1062.67 429.903 1062.67 656 1181 c 0,29,30
 875.732 1296 875.732 1296 1110 1296 c 0,31,32
 1395.83 1296 1395.83 1296 1587 1136 c 0,33,34
 1785 970.283 1785 970.283 1785 697 c 0,35,36
 1785 483.152 1785 483.152 1661.5 306.5 c 0,37,38
 1580.16 190.151 1580.16 190.151 1463 141.5 c 0,39,40
 1404 117 1404 117 1337 117 c 0,41,42
 1174 117 1174 117 1138 255 c 1,43,44
 994 117 994 117 841 117 c 0,45,46
 709.405 117 709.405 117 631 206 c 0,47,48
 554 293.405 554 293.405 554 429 c 0,49,50
 554 545.983 554 545.983 616 662.5 c 0,51,52
 675.259 773.866 675.259 773.866 777 845.5 c 0,53,54
 881.391 919 881.391 919 1010.92 919 c 128,-1,55
 1140.44 919 1140.44 919 1219 818 c 1,56,-1
 1232 883 l 1,57,-1
 1384 883 l 1,58,-1
 1295 448 l 2,59,60
 1287.08 408.877 1287.08 408.877 1287.08 376.478 c 0,0,1
1190 670 m 1,61,62
 1080.71 772 1080.71 772 961 772 c 0,63,64
 862.355 772 862.355 772 792.5 665.5 c 0,65,66
 728 567.164 728 567.164 728 456 c 0,67,68
 728 327.096 728 327.096 803 279.5 c 0,69,70
 829 263 829 263 870 263 c 128,-1,71
 911 263 911 263 952.5 278 c 128,-1,72
 994 293 994 293 1029 315.5 c 0,73,74
 1087.33 353 1087.33 353 1138 409 c 1,75,76
 1140 418 1140 418 1141.5 427.5 c 128,-1,77
 1143 437 1143 437 1146 448 c 2,78,-1
 1190 670 l 1,61,62
1262 741 m 1,79,-1
 1261 741 l 1,80,-1
 1262 741 l 1,79,-1
EndSplineSet
EndChar

StartChar: copyright
Encoding: 169 169 126
Width: 1584
Flags: W
HStem: -20 121<586.438 1014.89> 277 124<670.627 1002.85> 796 121<667.867 980.865> 1092 120<571.005 998.847>
VStem: 137 146<399.013 814.77> 467 146<460.109 741.173> 1301 146<377.627 793.378>
LayerCount: 2
Fore
SplineSet
818 401 m 0,0,1
 917.2 401 917.2 401 1009 446 c 1,2,-1
 1036 342 l 1,3,4
 979.926 299.945 979.926 299.945 870.5 282.5 c 0,5,6
 836 277 836 277 782.5 277 c 128,-1,7
 729 277 729 277 666.5 298.5 c 128,-1,8
 604 320 604 320 560 360.5 c 0,9,10
 467 446.102 467 446.102 467 595 c 0,11,12
 467 739.253 467 739.253 568.5 829 c 0,13,14
 668.024 917 668.024 917 818 917 c 0,15,16
 927 917 927 917 1016 863 c 1,17,-1
 965 753 l 1,18,19
 888.053 796 888.053 796 799.526 796 c 128,-1,20
 711 796 711 796 662 747 c 128,-1,21
 613 698 613 698 613 604 c 0,22,23
 613 401 613 401 818 401 c 0,0,1
1043 26.5 m 128,-1,25
 922 -20 922 -20 787 -20 c 128,-1,26
 652 -20 652 -20 534 24.5 c 128,-1,27
 416 69 416 69 328 149 c 128,-1,28
 240 229 240 229 188.5 340 c 128,-1,29
 137 451 137 451 137 586 c 128,-1,30
 137 721 137 721 188.5 837 c 128,-1,31
 240 953 240 953 330 1036 c 0,32,33
 520.843 1212 520.843 1212 800 1212 c 0,34,35
 1070.1 1212 1070.1 1212 1256 1043 c 0,36,37
 1344 963 1344 963 1395.5 852 c 128,-1,38
 1447 741 1447 741 1447 606 c 128,-1,39
 1447 471 1447 471 1395.5 355 c 128,-1,40
 1344 239 1344 239 1254 156 c 128,-1,24
 1164 73 1164 73 1043 26.5 c 128,-1,25
785.5 1092 m 0,41,42
 680 1092 680 1092 589 1055.5 c 128,-1,43
 498 1019 498 1019 430 954.5 c 0,44,45
 283 815.066 283 815.066 283 609 c 0,46,47
 283 395.702 283 395.702 434.5 248.5 c 0,48,49
 586.307 101 586.307 101 800 101 c 0,50,51
 1009.04 101 1009.04 101 1154 238.5 c 0,52,53
 1301 377.934 1301 377.934 1301 583 c 0,54,55
 1301 797.298 1301 797.298 1149.5 944.5 c 0,56,57
 997.693 1092 997.693 1092 785.5 1092 c 0,41,42
EndSplineSet
EndChar

StartChar: registered
Encoding: 168 168 127
Width: 1299
Flags: W
HStem: 715 106<461.402 850.265> 1117 96<520 693.125> 1410 95<520 798.767> 1648 105<451.2 836.074>
VStem: 97 128<1054.96 1427.9> 419 101<971 1117 1213 1410> 816 104<1235.03 1388.8> 1074 128<1039.43 1412.73>
LayerCount: 2
Fore
SplineSet
645.5 715 m 0,0,1
 531 715 531 715 432 752.5 c 128,-1,2
 333 790 333 790 258.5 857.5 c 0,3,4
 97 1003.83 97 1003.83 97 1223 c 0,5,6
 97 1453.3 97 1453.3 260 1604.5 c 0,7,8
 420.085 1753 420.085 1753 656 1753 c 0,9,10
 883.222 1753 883.222 1753 1040.5 1610.5 c 0,11,12
 1202 1464.17 1202 1464.17 1202 1244 c 0,13,14
 1202 1013.13 1202 1013.13 1039 863 c 0,15,16
 878.314 715 878.314 715 645.5 715 c 0,0,1
644.5 1648 m 0,17,18
 557 1648 557 1648 481 1617 c 128,-1,19
 405 1586 405 1586 348 1532 c 0,20,21
 225 1415.47 225 1415.47 225 1244 c 0,22,23
 225 1067.26 225 1067.26 351.5 944 c 0,24,25
 477.737 821 477.737 821 656 821 c 0,26,27
 829.611 821 829.611 821 951 936 c 0,28,29
 1074 1052.53 1074 1052.53 1074 1223 c 0,30,31
 1074 1400.16 1074 1400.16 947.5 1524.5 c 0,32,33
 821.852 1648 821.852 1648 644.5 1648 c 0,17,18
920 1318 m 0,34,35
 920 1189.71 920 1189.71 796 1141 c 1,36,-1
 886 971 l 1,37,-1
 773 971 l 1,38,-1
 694 1119 l 1,39,40
 666 1117 666 1117 640 1117 c 2,41,-1
 520 1117 l 1,42,-1
 520 971 l 1,43,-1
 419 971 l 1,44,-1
 419 1505 l 1,45,-1
 651 1505 l 2,46,47
 838.722 1505 838.722 1505 898 1408 c 0,48,49
 920 1372 920 1372 920 1318 c 0,34,35
649 1213 m 2,50,51
 770.308 1213 770.308 1213 802.5 1259.5 c 0,52,53
 816 1279 816 1279 816 1312 c 256,54,55
 816 1396.5 816 1396.5 704 1407 c 0,56,57
 672 1410 672 1410 639 1410 c 2,58,-1
 520 1410 l 1,59,-1
 520 1213 l 1,60,-1
 649 1213 l 2,50,51
EndSplineSet
EndChar

StartChar: asciicircum
Encoding: 94 94 128
Width: 1288
Flags: W
HStem: 1416 20G<622.922 655.381>
LayerCount: 2
Fore
SplineSet
65 722 m 1,0,-1
 639 1436 l 1,1,-1
 1223 723 l 1,2,-1
 1116 625 l 1,3,-1
 633 1156 l 1,4,-1
 176 632 l 1,5,-1
 65 722 l 1,0,-1
EndSplineSet
EndChar

StartChar: asciitilde
Encoding: 126 126 129
Width: 1288
Flags: W
HStem: 855 156<726.556 924.371> 1036 156<356.917 552.319>
LayerCount: 2
Fore
SplineSet
796 855 m 256,0,1
 704.702 855 704.702 855 606.5 945.5 c 128,-1,2
 508.298 1036 508.298 1036 456 1036 c 0,3,4
 381.235 1036 381.235 1036 317 945 c 0,5,6
 289 905 289 905 268 855 c 1,7,-1
 157 910 l 1,8,9
 247.471 1126.58 247.471 1126.58 405.5 1180 c 0,10,11
 441 1192 441 1192 481 1192 c 128,-1,12
 521 1192 521 1192 554.5 1178.5 c 128,-1,13
 588 1165 588 1165 617 1145 c 128,-1,14
 646 1125 646 1125 671.5 1101.5 c 128,-1,15
 697 1078 697 1078 721.5 1058 c 0,16,17
 779.075 1011 779.075 1011 811.537 1011 c 128,-1,18
 844 1011 844 1011 864.5 1018 c 128,-1,19
 885 1025 885 1025 903 1037 c 0,20,21
 969.75 1081.5 969.75 1081.5 1020 1182 c 1,22,-1
 1131 1126 l 1,23,24
 1029.1 916.683 1029.1 916.683 872 866.5 c 0,25,26
 836 855 836 855 796 855 c 256,0,1
EndSplineSet
EndChar

StartChar: grave
Encoding: 96 96 130
Width: 591
Flags: W
HStem: 1148 377
VStem: 60 447
LayerCount: 2
Fore
SplineSet
416 1148 m 1,0,-1
 60 1408 l 1,1,-1
 174 1525 l 1,2,-1
 507 1239 l 1,3,-1
 416 1148 l 1,0,-1
EndSplineSet
EndChar

StartChar: acute
Encoding: 171 171 131
Width: 598
Flags: W
HStem: 1145 376
VStem: 86 449
LayerCount: 2
Fore
SplineSet
86 1235 m 1,0,-1
 419 1521 l 1,1,-1
 535 1405 l 1,2,-1
 179 1145 l 1,3,-1
 86 1235 l 1,0,-1
EndSplineSet
EndChar

StartChar: circumflex
Encoding: 246 246 132
Width: 598
Flags: W
HStem: 1145 381
VStem: -11 618
LayerCount: 2
Fore
SplineSet
-11 1232 m 1,0,-1
 299 1526 l 1,1,-1
 607 1234 l 1,2,-1
 514 1145 l 1,3,-1
 293 1330 l 1,4,-1
 80 1145 l 1,5,-1
 -11 1232 l 1,0,-1
EndSplineSet
EndChar

StartChar: dieresis
Encoding: 172 172 133
Width: 598
Flags: W
HStem: 1222 212<28.4567 177.543 420.457 569.543>
VStem: -3 212<1253.46 1402.54> 389 212<1253.46 1402.54>
LayerCount: 2
Fore
SplineSet
-3 1328 m 256,0,1
 -3 1373 -3 1373 27.5 1403.5 c 128,-1,2
 58 1434 58 1434 103 1434 c 256,3,4
 148 1434 148 1434 178.5 1403.5 c 128,-1,5
 209 1373 209 1373 209 1328 c 256,6,7
 209 1283 209 1283 178.5 1252.5 c 128,-1,8
 148 1222 148 1222 103 1222 c 256,9,10
 58 1222 58 1222 27.5 1252.5 c 128,-1,11
 -3 1283 -3 1283 -3 1328 c 256,0,1
389 1328 m 256,12,13
 389 1373 389 1373 419.5 1403.5 c 128,-1,14
 450 1434 450 1434 495 1434 c 256,15,16
 540 1434 540 1434 570.5 1403.5 c 128,-1,17
 601 1373 601 1373 601 1328 c 256,18,19
 601 1283 601 1283 570.5 1252.5 c 128,-1,20
 540 1222 540 1222 495 1222 c 256,21,22
 450 1222 450 1222 419.5 1252.5 c 128,-1,23
 389 1283 389 1283 389 1328 c 256,12,13
EndSplineSet
EndChar

StartChar: tilde
Encoding: 247 247 134
Width: 598
Flags: W
HStem: 1199 144<346.083 520.886> 1310 144<77.9522 253.516>
LayerCount: 2
Fore
SplineSet
433 1343 m 0,0,1
 505.548 1343 505.548 1343 570 1454 c 1,2,-1
 666 1395 l 1,3,4
 600.387 1244.64 600.387 1244.64 471.5 1207.5 c 0,5,6
 442 1199 442 1199 404 1199 c 128,-1,7
 366 1199 366 1199 332 1216.5 c 128,-1,8
 298 1234 298 1234 269 1254.5 c 2,9,-1
 214.5 1292.5 l 2,10,11
 189 1310 189 1310 167 1310 c 0,12,13
 92.9 1310 92.9 1310 30 1199 c 1,14,-1
 -67 1270 l 1,15,16
 -5.1896 1409.75 -5.1896 1409.75 128.5 1446 c 0,17,18
 158 1454 158 1454 195.5 1454 c 128,-1,19
 233 1454 233 1454 267.5 1436.5 c 128,-1,20
 302 1419 302 1419 331 1398.5 c 2,21,-1
 385 1360.5 l 2,22,23
 410 1343 410 1343 433 1343 c 0,0,1
EndSplineSet
EndChar

StartChar: caron
Encoding: 255 255 135
AltUni2: 0002c7.ffffffff.0
Width: 598
Flags: W
HStem: 1145 381
VStem: -11 618
LayerCount: 2
Fore
SplineSet
607 1439 m 1,0,-1
 297 1145 l 1,1,-1
 -11 1437 l 1,2,-1
 82 1526 l 1,3,-1
 303 1341 l 1,4,-1
 516 1526 l 1,5,-1
 607 1439 l 1,0,-1
EndSplineSet
EndChar

StartChar: ring
Encoding: 251 251 136
AltUni2: 0002da.ffffffff.0
Width: 938
Flags: W
HStem: 1143 101<385.563 557.141> 1460 101<381.901 553.687>
VStem: 242 116<1269.07 1435.73> 581 116<1268.1 1433.23>
LayerCount: 2
Fore
SplineSet
387 1545 m 128,-1,1
 429 1561 429 1561 477 1561 c 128,-1,2
 525 1561 525 1561 565.5 1547 c 128,-1,3
 606 1533 606 1533 635 1506.5 c 0,4,5
 697 1449.84 697 1449.84 697 1355 c 0,6,7
 697 1265.73 697 1265.73 626 1202.5 c 0,8,9
 559.193 1143 559.193 1143 462 1143 c 0,10,11
 307.707 1143 307.707 1143 258 1259.5 c 0,12,13
 242 1297 242 1297 242 1344.5 c 128,-1,14
 242 1392 242 1392 261 1431.5 c 128,-1,15
 280 1471 280 1471 312.5 1500 c 128,-1,0
 345 1529 345 1529 387 1545 c 128,-1,1
390.5 1273 m 128,-1,17
 423 1244 423 1244 472 1244 c 128,-1,18
 521 1244 521 1244 551 1272.5 c 128,-1,19
 581 1301 581 1301 581 1350 c 128,-1,20
 581 1399 581 1399 548 1429.5 c 128,-1,21
 515 1460 515 1460 466 1460 c 128,-1,22
 417 1460 417 1460 387.5 1430 c 128,-1,23
 358 1400 358 1400 358 1351 c 128,-1,16
 358 1302 358 1302 390.5 1273 c 128,-1,17
EndSplineSet
EndChar

StartChar: macron
Encoding: 248 248 137
Width: 598
Flags: W
HStem: 1260 140<-23 621>
VStem: -23 644<1260 1400>
LayerCount: 2
Fore
SplineSet
-23 1400 m 1,0,-1
 621 1400 l 1,1,-1
 621 1260 l 1,2,-1
 -23 1260 l 1,3,-1
 -23 1400 l 1,0,-1
EndSplineSet
EndChar

StartChar: cedilla
Encoding: 252 252 138
Width: 598
Flags: W
HStem: -486 483
VStem: 261 177<-352.37 -231.625>
LayerCount: 2
Fore
SplineSet
144 -209 m 1,0,1
 156.633 -160.573 156.633 -160.573 174.317 -118.286 c 2,2,3
 204 -49.5 l 2,4,5
 216 -23 216 -23 227 -3 c 1,6,-1
 334 -15 l 1,7,8
 326 -33 326 -33 320 -48 c 2,9,-1
 308.5 -77 l 2,10,11
 303 -91 303 -91 301 -100 c 1,12,13
 365 -116 365 -116 401.5 -154 c 128,-1,14
 438 -192 438 -192 438 -237.5 c 128,-1,15
 438 -283 438 -283 417.5 -317.5 c 128,-1,16
 397 -352 397 -352 365.5 -383.5 c 0,17,18
 303.737 -445.263 303.737 -445.263 220 -486 c 1,19,-1
 146 -411 l 1,20,21
 186.5 -379.5 l 1,22,23
 261 -319.537 261 -319.537 261 -279 c 0,24,25
 261 -233.632 261 -233.632 144 -209 c 1,0,1
EndSplineSet
EndChar

StartChar: fi
Encoding: 222 222 139
AltUni2: 00fb01.ffffffff.0
Width: 1200
Flags: W
HStem: 0 21G<204 395 826 1016> 846 154<19 204 395 826> 1404 156<502.464 831.312>
VStem: 204 191<0 846 1000 1279.2> 826 190<0 846>
LayerCount: 2
Fore
SplineSet
649 1404 m 0,0,1
 395 1404 395 1404 395 1050 c 2,2,-1
 395 1000 l 1,3,-1
 1016 1000 l 1,4,-1
 1016 0 l 1,5,-1
 826 0 l 1,6,-1
 826 846 l 1,7,-1
 395 846 l 1,8,-1
 395 0 l 1,9,-1
 204 0 l 1,10,-1
 204 846 l 1,11,-1
 19 846 l 1,12,-1
 19 1000 l 1,13,-1
 204 1000 l 1,14,-1
 204 1038 l 2,15,16
 204 1408.44 204 1408.44 464 1522 c 0,17,18
 551 1560 551 1560 667 1560 c 0,19,20
 845.083 1560 845.083 1560 1008 1445 c 1,21,-1
 934 1297 l 1,22,23
 845.091 1367.39 845.091 1367.39 729.5 1394.5 c 0,24,25
 689 1404 689 1404 649 1404 c 0,0,1
EndSplineSet
Ligature2: "'liga' Standard Ligatures in Latin lookup 0 subtable" f i
EndChar

StartChar: fl
Encoding: 223 223 140
AltUni2: 00fb02.ffffffff.0
Width: 1298
Flags: W
HStem: 0 21G<204 395> 846 154<19 204 395 741> 1405 156<494.827 869.483>
VStem: 204 191<0 846 1000 1289.69> 883 190<206.774 1372.61>
LayerCount: 2
Fore
SplineSet
883 1354 m 1,0,1
 776.364 1405 776.364 1405 639 1405 c 0,2,3
 443.093 1405 443.093 1405 406 1187.5 c 0,4,5
 395 1123 395 1123 395 1050 c 2,6,-1
 395 1000 l 1,7,-1
 741 1000 l 1,8,-1
 741 846 l 1,9,-1
 395 846 l 1,10,-1
 395 0 l 1,11,-1
 204 0 l 1,12,-1
 204 846 l 1,13,-1
 19 846 l 1,14,-1
 19 1000 l 1,15,-1
 204 1000 l 1,16,-1
 204 1038 l 2,17,18
 204 1411.22 204 1411.22 455.5 1523 c 0,19,20
 541 1561 541 1561 682.5 1561 c 128,-1,21
 824 1561 824 1561 1073 1478 c 1,22,-1
 1073 342 l 2,23,24
 1073 240.348 1073 240.348 1087.5 205.674 c 0,25,26
 1114.54 141.016 1114.54 141.016 1183 123 c 1,27,-1
 1155 0 l 1,28,29
 1127.9 -3.50725 1127.9 -3.50725 1090.5 -3.50725 c 128,-1,30
 1053.1 -3.50725 1053.1 -3.50725 1008.55 16.2464 c 128,-1,31
 964 36 964 36 934 82.5 c 0,32,33
 883 161.55 883 161.55 883 328 c 2,34,-1
 883 1354 l 1,0,1
EndSplineSet
Ligature2: "'liga' Standard Ligatures in Latin lookup 0 subtable" f l
EndChar

StartChar: ae
Encoding: 190 190 141
Width: 1809
Flags: W
HStem: -20 160<330.45 641.018 1129.72 1587.98> 400 147<997 1531> 509 149<477.295 798> 860 160<283.143 721.593 1131.03 1445.25>
VStem: 101 190<179.646 386.104> 1531 182<547.03 774.875>
LayerCount: 2
Fore
SplineSet
876 170 m 1,0,1
 658.059 -20 658.059 -20 428 -20 c 0,2,3
 295.37 -20 295.37 -20 202.5 54.5 c 0,4,5
 101 135.923 101 135.923 101 263 c 0,6,7
 101 528.555 101 528.555 454.5 617.5 c 0,8,9
 598.199 653.656 598.199 653.656 798 658 c 1,10,11
 792.476 820.949 792.476 820.949 638.5 850.5 c 0,12,13
 589 860 589 860 545 860 c 128,-1,14
 501 860 501 860 467 856 c 128,-1,15
 433 852 433 852 397 845 c 0,16,17
 318.16 829.67 318.16 829.67 263 808 c 1,18,-1
 210 950 l 1,19,20
 350 1020 350 1020 548 1020 c 0,21,22
 827.035 1020 827.035 1020 935 859 c 1,23,24
 1081.17 1020 1081.17 1020 1310 1020 c 0,25,26
 1491 1020 1491 1020 1598.5 912.5 c 0,27,28
 1713 798 1713 798 1713 591 c 0,29,30
 1713 526 1713 526 1692 400 c 1,31,-1
 997 400 l 1,32,33
 1019 279 1019 279 1095 209.5 c 128,-1,34
 1171 140 1171 140 1310 140 c 0,35,36
 1495.57 140 1495.57 140 1651 208 c 1,37,-1
 1683 65 l 1,38,39
 1580.35 5.11997 1580.35 5.11997 1389.5 -14.5 c 0,40,41
 1336 -20 1336 -20 1291 -20 c 0,42,43
 995.255 -20 995.255 -20 876 170 c 1,0,1
817 316 m 1,44,45
 798 396 798 396 798 498 c 2,46,-1
 798 509 l 1,47,48
 560.094 497.338 560.094 497.338 466.547 461.669 c 128,-1,49
 373 426 373 426 332 383.5 c 128,-1,50
 291 341 291 341 291 292 c 128,-1,51
 291 243 291 243 304.5 217.5 c 128,-1,52
 318 192 318 192 340 175 c 0,53,54
 385.294 140 385.294 140 446.647 140 c 128,-1,55
 508 140 508 140 565.5 156.5 c 128,-1,56
 623 173 623 173 671.5 198.5 c 0,57,58
 765.259 247.796 765.259 247.796 817 316 c 1,44,45
1531 547 m 1,59,-1
 1536 601 l 1,60,61
 1536 784.435 1536 784.435 1399 844 c 0,62,63
 1353 864 1353 864 1289 864 c 128,-1,64
 1225 864 1225 864 1171.5 839 c 128,-1,65
 1118 814 1118 814 1079 771 c 0,66,67
 999.487 683.332 999.487 683.332 989 547 c 1,68,-1
 1531 547 l 1,59,-1
EndSplineSet
EndChar

StartChar: dotlessi
Encoding: 245 245 153
AltUni2: 000131.ffffffff.0
Width: 558
Flags: W
HStem: 0 21G<184 374> 980 20G<184 374>
VStem: 184 190<0 1000>
LayerCount: 2
Fore
SplineSet
184 1000 m 1,0,-1
 374 1000 l 1,1,-1
 374 0 l 1,2,-1
 184 0 l 1,3,-1
 184 1000 l 1,0,-1
EndSplineSet
EndChar

StartChar: oslash
Encoding: 191 191 165
Width: 1290
Flags: W
HStem: -20 160<451.307 826.855> 860 160<460.604 832.258>
VStem: 95 190<323.043 680.919> 1005 190<316.61 674.543>
LayerCount: 2
Fore
SplineSet
147 -45 m 1,0,-1
 1000 1117 l 1,1,-1
 1120 1030 l 1,2,-1
 267 -132 l 1,3,-1
 147 -45 l 1,0,-1
655 1020 m 0,4,5
 769 1020 769 1020 867.5 982.5 c 128,-1,6
 966 945 966 945 1039 877 c 0,7,8
 1195 731.685 1195 731.685 1195 504 c 0,9,10
 1195 281.353 1195 281.353 1028.5 129 c 0,11,12
 865.664 -20 865.664 -20 636 -20 c 0,13,14
 402.481 -20 402.481 -20 250.5 121.5 c 0,15,16
 95 266.276 95 266.276 95 492 c 0,17,18
 95 716.059 95 716.059 261.5 869.5 c 0,19,20
 424.809 1020 424.809 1020 655 1020 c 0,4,5
651.5 140 m 0,21,22
 729 140 729 140 793 167 c 128,-1,23
 857 194 857 194 904.5 241.5 c 0,24,25
 1005 342 1005 342 1005 493 c 0,26,27
 1005 651 1005 651 900 756 c 0,28,29
 796 860 796 860 636 860 c 0,30,31
 487.427 860 487.427 860 385.5 757 c 0,32,33
 285 655.442 285 655.442 285 504 c 0,34,35
 285 346.429 285 346.429 390 242.5 c 0,36,37
 493.557 140 493.557 140 651.5 140 c 0,21,22
EndSplineSet
EndChar

StartChar: germandbls
Encoding: 167 167 166
Width: 1212
Flags: W
HStem: -485 143<505.286 597.903> 0 21G<184 375> 852 148<375 881> 1404 156<468.495 819.409>
VStem: 184 191<0 852 1000 1298.34> 913 200<-118.743 162.936>
LayerCount: 2
Fore
SplineSet
812 1355 m 1,0,1
 718.455 1404 718.455 1404 627.227 1404 c 128,-1,2
 536 1404 536 1404 490.5 1376 c 128,-1,3
 445 1348 445 1348 419.5 1300 c 0,4,5
 375 1216.24 375 1216.24 375 1050 c 2,6,-1
 375 1000 l 1,7,-1
 1093 1000 l 1,8,-1
 1093 852 l 1,9,-1
 746 423 l 1,10,11
 902.471 392.992 902.471 392.992 1003 299.5 c 0,12,13
 1113 197.2 1113 197.2 1113 62 c 0,14,15
 1113 -159.31 1113 -159.31 919 -311.5 c 0,16,17
 749.142 -444.751 749.142 -444.751 511 -485 c 1,18,-1
 454 -342 l 1,19,20
 669.619 -286.948 669.619 -286.948 777.5 -211 c 0,21,22
 913 -115.608 913 -115.608 913 24 c 0,23,24
 913 153.545 913 153.545 804.5 218 c 0,25,26
 708.55 275 708.55 275 534 275 c 1,27,-1
 534 423 l 1,28,-1
 881 852 l 1,29,-1
 375 852 l 1,30,-1
 375 0 l 1,31,-1
 184 0 l 1,32,-1
 184 1038 l 2,33,34
 184 1412.07 184 1412.07 427 1522 c 0,35,36
 511 1560 511 1560 599 1560 c 0,37,38
 744.304 1560 744.304 1560 857 1506 c 1,39,-1
 812 1355 l 1,0,1
EndSplineSet
EndChar

StartChar: AE
Encoding: 174 174 178
Width: 2118
Flags: W
HStem: 0 168<1137 2009> 277 168<451 952> 698 168<1137 1894> 1248 168<1137 1989>
VStem: 952 185<168 277 445 698 866 1149>
LayerCount: 2
Fore
SplineSet
952 277 m 1,0,-1
 332 277 l 1,1,-1
 135 0 l 1,2,-1
 -65 0 l 1,3,-1
 952 1416 l 1,4,-1
 1989 1416 l 1,5,-1
 1989 1248 l 1,6,-1
 1137 1248 l 1,7,-1
 1137 866 l 1,8,-1
 1894 866 l 1,9,-1
 1894 698 l 1,10,-1
 1137 698 l 1,11,-1
 1137 168 l 1,12,-1
 2009 168 l 1,13,-1
 2009 0 l 1,14,-1
 952 0 l 1,15,-1
 952 277 l 1,0,-1
952 445 m 1,16,-1
 952 1149 l 1,17,-1
 451 445 l 1,18,-1
 952 445 l 1,16,-1
EndSplineSet
Position2: "'cpsp' Capital Spacing in Latin lookup 0 subtable" dx=16 dy=0 dh=32 dv=0
EndChar

StartChar: Oslash
Encoding: 175 175 194
Width: 1822
Flags: W
HStem: -20 166<687.963 1148.33> 1270 166<675.084 1129.54>
VStem: 137 196<497.324 944.152> 1489 196<475.838 914.635>
LayerCount: 2
Fore
SplineSet
258 -30 m 1,0,-1
 1415 1536 l 1,1,-1
 1549 1442 l 1,2,-1
 392 -124 l 1,3,-1
 258 -30 l 1,0,-1
878 -20 m 0,4,5
 745 -20 745 -20 606 32.5 c 128,-1,6
 467 85 467 85 362.5 179.5 c 128,-1,7
 258 274 258 274 197.5 405 c 128,-1,8
 137 536 137 536 137 669 c 128,-1,9
 137 802 137 802 164.5 899.5 c 128,-1,10
 192 997 192 997 243 1079.5 c 128,-1,11
 294 1162 294 1162 365 1228 c 128,-1,12
 436 1294 436 1294 523 1340 c 0,13,14
 704.565 1436 704.565 1436 920 1436 c 0,15,16
 1126.27 1436 1126.27 1436 1304 1344 c 0,17,18
 1477.39 1254.24 1477.39 1254.24 1579.5 1093.5 c 0,19,20
 1685 927.416 1685 927.416 1685 723 c 0,21,22
 1685 399.944 1685 399.944 1457 188 c 0,23,24
 1233.24 -20 1233.24 -20 878 -20 c 0,4,5
883.5 1270 m 0,25,26
 784 1270 784 1270 680.5 1228.5 c 128,-1,27
 577 1187 577 1187 499.5 1114 c 0,28,29
 333 957.168 333 957.168 333 723 c 0,30,31
 333 480.7 333 480.7 505 313 c 0,32,33
 676.282 146 676.282 146 920 146 c 0,34,35
 1157.45 146 1157.45 146 1322 302 c 0,36,37
 1489 460.325 1489 460.325 1489 693 c 0,38,39
 1489 850.711 1489 850.711 1409 986.5 c 0,40,41
 1333.79 1114.16 1333.79 1114.16 1198 1192.5 c 0,42,43
 1063.67 1270 1063.67 1270 883.5 1270 c 0,25,26
EndSplineSet
Position2: "'cpsp' Capital Spacing in Latin lookup 0 subtable" dx=16 dy=0 dh=32 dv=0
EndChar

StartChar: OE
Encoding: 206 206 195
Width: 2252
Flags: W
HStem: -20 166<691.588 1083.89> 0 168<1271 2143> 698 168<1271 2028> 1248 168<1271 2123> 1270 166<673.672 1083.59>
VStem: 137 196<497.324 944.152> 1086 185<168 698 866 1247.8>
LayerCount: 2
Fore
SplineSet
710.5 1411 m 128,-1,1
 811 1436 811 1436 912 1436 c 128,-1,2
 1013 1436 1013 1436 1104 1416 c 1,3,-1
 2123 1416 l 1,4,-1
 2123 1248 l 1,5,-1
 1271 1248 l 1,6,-1
 1271 866 l 1,7,-1
 2028 866 l 1,8,-1
 2028 698 l 1,9,-1
 1271 698 l 1,10,-1
 1271 168 l 1,11,-1
 2143 168 l 1,12,-1
 2143 0 l 1,13,-1
 1090 0 l 1,14,15
 998 -20 998 -20 871.5 -20 c 128,-1,16
 745 -20 745 -20 606 32.5 c 128,-1,17
 467 85 467 85 362.5 179.5 c 128,-1,18
 258 274 258 274 197.5 405 c 128,-1,19
 137 536 137 536 137 669 c 128,-1,20
 137 802 137 802 164.5 899.5 c 128,-1,21
 192 997 192 997 243 1079.5 c 128,-1,22
 294 1162 294 1162 365 1228 c 128,-1,23
 436 1294 436 1294 523 1340 c 128,-1,0
 610 1386 610 1386 710.5 1411 c 128,-1,1
691.5 190.5 m 128,-1,25
 798 146 798 146 903 146 c 128,-1,26
 1008 146 1008 146 1086 168 c 1,27,-1
 1086 1241 l 1,28,29
 997 1270 997 1270 890.5 1270 c 128,-1,30
 784 1270 784 1270 680.5 1228.5 c 128,-1,31
 577 1187 577 1187 499.5 1114 c 0,32,33
 333 957.168 333 957.168 333 723 c 0,34,35
 333 480.7 333 480.7 505 313 c 0,36,24
 585 235 585 235 691.5 190.5 c 128,-1,25
EndSplineSet
Position2: "'cpsp' Capital Spacing in Latin lookup 0 subtable" dx=16 dy=0 dh=32 dv=0
EndChar

StartChar: dotaccent
Encoding: 250 250 219
AltUni2: 0002d9.ffffffff.0
Width: 527
Flags: W
HStem: 1287 247<190.068 367.932>
VStem: 155 248<1322.07 1499.45>
LayerCount: 2
Fore
SplineSet
189 1321 m 128,-1,1
 155 1355 155 1355 155 1411 c 128,-1,2
 155 1467 155 1467 189 1500.5 c 128,-1,3
 223 1534 223 1534 279 1534 c 128,-1,4
 335 1534 335 1534 369 1500.5 c 128,-1,5
 403 1467 403 1467 403 1411 c 128,-1,6
 403 1355 403 1355 369 1321 c 128,-1,7
 335 1287 335 1287 279 1287 c 128,-1,0
 223 1287 223 1287 189 1321 c 128,-1,1
EndSplineSet
EndChar

StartChar: ellipsis
Encoding: 201 201 221
Width: 1581
Flags: W
HStem: -13 247<193.068 370.932 720.068 897.932 1247.07 1424.93>
VStem: 158 248<22.0679 199.448> 685 248<22.0679 199.448> 1212 248<22.0679 199.448>
CounterMasks: 1 70
LayerCount: 2
Fore
SplineSet
192 21 m 128,-1,1
 158 55 158 55 158 111 c 128,-1,2
 158 167 158 167 192 200.5 c 128,-1,3
 226 234 226 234 282 234 c 128,-1,4
 338 234 338 234 372 200.5 c 128,-1,5
 406 167 406 167 406 111 c 128,-1,6
 406 55 406 55 372 21 c 128,-1,7
 338 -13 338 -13 282 -13 c 128,-1,0
 226 -13 226 -13 192 21 c 128,-1,1
719 21 m 128,-1,9
 685 55 685 55 685 111 c 128,-1,10
 685 167 685 167 719 200.5 c 128,-1,11
 753 234 753 234 809 234 c 128,-1,12
 865 234 865 234 899 200.5 c 128,-1,13
 933 167 933 167 933 111 c 128,-1,14
 933 55 933 55 899 21 c 128,-1,15
 865 -13 865 -13 809 -13 c 128,-1,8
 753 -13 753 -13 719 21 c 128,-1,9
1246 21 m 128,-1,17
 1212 55 1212 55 1212 111 c 128,-1,18
 1212 167 1212 167 1246 200.5 c 128,-1,19
 1280 234 1280 234 1336 234 c 128,-1,20
 1392 234 1392 234 1426 200.5 c 128,-1,21
 1460 167 1460 167 1460 111 c 128,-1,22
 1460 55 1460 55 1426 21 c 128,-1,23
 1392 -13 1392 -13 1336 -13 c 128,-1,16
 1280 -13 1280 -13 1246 21 c 128,-1,17
EndSplineSet
EndChar

StartChar: onesuperior
Encoding: 65556 -1 222
Width: 710
Flags: W
VStem: 326 177<866 1593>
LayerCount: 2
Fore
SplineSet
61 1613 m 1,0,-1
 338 1762 l 1,1,-1
 503 1762 l 1,2,-1
 503 866 l 1,3,-1
 326 866 l 1,4,-1
 326 1593 l 1,5,-1
 113 1472 l 1,6,-1
 61 1613 l 1,0,-1
EndSplineSet
EndChar

StartChar: twosuperior
Encoding: 65557 -1 223
Width: 962
Flags: W
HStem: 866 152<415 819> 1635 144<244.785 581.874>
VStem: 631 175<1383.61 1595.18>
LayerCount: 2
Fore
SplineSet
210 1574 m 1,0,-1
 167 1706 l 1,1,2
 317.867 1779 317.867 1779 466 1779 c 0,3,4
 700.139 1779 700.139 1779 779 1631.5 c 0,5,6
 806 1581 806 1581 806 1520.5 c 128,-1,7
 806 1460 806 1460 790 1414.5 c 128,-1,8
 774 1369 774 1369 745.5 1326.5 c 0,9,10
 696.48 1253.4 696.48 1253.4 588 1163 c 2,11,-1
 415 1018 l 1,12,-1
 819 1018 l 1,13,-1
 819 866 l 1,14,-1
 190 866 l 1,15,-1
 190 1013 l 1,16,-1
 406 1196 l 1,17,18
 518.866 1293.06 518.866 1293.06 558.433 1344.03 c 0,19,20
 631 1437.51 631 1437.51 631 1504 c 0,21,22
 631 1568.92 631 1568.92 574 1604 c 0,23,24
 523.625 1635 523.625 1635 425.466 1635 c 128,-1,25
 327.308 1635 327.308 1635 210 1574 c 1,0,-1
EndSplineSet
EndChar

StartChar: threesuperior
Encoding: 65558 -1 224
Width: 939
Flags: W
HStem: 848 148<214.802 578.978> 1250.53 144.474<268 535.788> 1633 146<207.494 566.131>
VStem: 581 175<1439.04 1613.07> 609 177<1027.48 1210.45>
LayerCount: 2
Fore
SplineSet
581 1537 m 0,0,1
 581 1633 581 1633 438.409 1633 c 128,-1,2
 295.818 1633 295.818 1633 208 1587 c 1,3,-1
 164 1716 l 1,4,5
 290 1779 290 1779 451 1779 c 0,6,7
 576.729 1779 576.729 1779 662 1720.5 c 0,8,9
 756 1656.01 756 1656.01 756 1545 c 0,10,11
 756 1481 756 1481 718.5 1427 c 128,-1,12
 681 1373 681 1373 607 1347 c 1,13,-1
 607 1341 l 1,14,15
 694 1319 694 1319 740 1261 c 128,-1,16
 786 1203 786 1203 786 1127 c 128,-1,17
 786 1051 786 1051 754.5 1000 c 128,-1,18
 723 949 723 949 672 915 c 0,19,20
 571.5 848 571.5 848 420 848 c 0,21,22
 237.909 848 237.909 848 125 917 c 1,23,-1
 169 1062 l 1,24,25
 287.345 996 287.345 996 438 996 c 0,26,27
 556.8 996 556.8 996 595.5 1060.5 c 0,28,29
 609 1083 609 1083 609 1115 c 0,30,31
 609 1250.53 609 1250.53 401.33 1250.53 c 0,32,33
 340.947 1250.53 340.947 1250.53 268 1242 c 1,34,-1
 268 1398 l 1,35,-1
 318 1396 l 2,36,37
 338 1395 338 1395 359 1395 c 2,38,-1
 392 1395 l 2,39,40
 517.604 1395 517.604 1395 565 1473.5 c 0,41,42
 581 1500 581 1500 581 1537 c 0,0,1
EndSplineSet
EndChar

StartChar: onequarter
Encoding: 65559 -1 225
Width: 1871
Flags: W
HStem: -63 151<1156 1418 1595 1772>
VStem: 326 177<866 1593> 1418 177<-266 -63 88 424>
LayerCount: 2
Fore
SplineSet
946 41 m 1,0,-1
 1418 629 l 1,1,-1
 1595 629 l 1,2,-1
 1595 88 l 1,3,-1
 1772 88 l 1,4,-1
 1772 -63 l 1,5,-1
 1595 -63 l 1,6,-1
 1595 -266 l 1,7,-1
 1418 -266 l 1,8,-1
 1418 -63 l 1,9,-1
 979 -63 l 1,10,-1
 946 41 l 1,0,-1
1418 88 m 1,11,-1
 1418 424 l 1,12,-1
 1156 88 l 1,13,-1
 1418 88 l 1,11,-1
61 1613 m 1,14,-1
 338 1762 l 1,15,-1
 503 1762 l 1,16,-1
 503 866 l 1,17,-1
 326 866 l 1,18,-1
 326 1593 l 1,19,-1
 113 1472 l 1,20,-1
 61 1613 l 1,14,-1
28 -167 m 1,21,-1
 1645 1761 l 1,22,-1
 1766 1661 l 1,23,-1
 149 -267 l 1,24,-1
 28 -167 l 1,21,-1
EndSplineSet
EndChar

StartChar: threequarters
Encoding: 65561 -1 227
Width: 1981
Flags: W
HStem: -63 151<1266 1528 1705 1882> 848 148<214.802 578.978> 1250.53 144.474<268 535.788> 1633 146<207.494 566.131>
VStem: 581 175<1439.04 1613.07> 609 177<1027.48 1210.45> 1528 177<-266 -63 88 424>
LayerCount: 2
Fore
SplineSet
1056 41 m 1,0,-1
 1528 629 l 1,1,-1
 1705 629 l 1,2,-1
 1705 88 l 1,3,-1
 1882 88 l 1,4,-1
 1882 -63 l 1,5,-1
 1705 -63 l 1,6,-1
 1705 -266 l 1,7,-1
 1528 -266 l 1,8,-1
 1528 -63 l 1,9,-1
 1089 -63 l 1,10,-1
 1056 41 l 1,0,-1
1528 88 m 1,11,-1
 1528 424 l 1,12,-1
 1266 88 l 1,13,-1
 1528 88 l 1,11,-1
581 1537 m 0,14,15
 581 1633 581 1633 438.409 1633 c 128,-1,16
 295.818 1633 295.818 1633 208 1587 c 1,17,-1
 164 1716 l 1,18,19
 290 1779 290 1779 451 1779 c 0,20,21
 576.729 1779 576.729 1779 662 1720.5 c 0,22,23
 756 1656.01 756 1656.01 756 1545 c 0,24,25
 756 1481 756 1481 718.5 1427 c 128,-1,26
 681 1373 681 1373 607 1347 c 1,27,-1
 607 1341 l 1,28,29
 694 1319 694 1319 740 1261 c 128,-1,30
 786 1203 786 1203 786 1127 c 128,-1,31
 786 1051 786 1051 754.5 1000 c 128,-1,32
 723 949 723 949 672 915 c 0,33,34
 571.5 848 571.5 848 420 848 c 0,35,36
 237.909 848 237.909 848 125 917 c 1,37,-1
 169 1062 l 1,38,39
 287.345 996 287.345 996 438 996 c 0,40,41
 556.8 996 556.8 996 595.5 1060.5 c 0,42,43
 609 1083 609 1083 609 1115 c 0,44,45
 609 1250.53 609 1250.53 401.33 1250.53 c 0,46,47
 340.947 1250.53 340.947 1250.53 268 1242 c 1,48,-1
 268 1398 l 1,49,-1
 318 1396 l 2,50,51
 338 1395 338 1395 359 1395 c 2,52,-1
 392 1395 l 2,53,54
 517.604 1395 517.604 1395 565 1473.5 c 0,55,56
 581 1500 581 1500 581 1537 c 0,14,15
138 -167 m 1,57,-1
 1755 1761 l 1,58,-1
 1876 1661 l 1,59,-1
 259 -267 l 1,60,-1
 138 -167 l 1,57,-1
EndSplineSet
EndChar

StartChar: minus
Encoding: 8722 8722 228
Width: 1335
Flags: W
HStem: 555 168<207 1128>
LayerCount: 2
Fore
SplineSet
207 723 m 1,0,-1
 1128 723 l 1,1,-1
 1128 555 l 1,2,-1
 207 555 l 1,3,-1
 207 723 l 1,0,-1
EndSplineSet
EndChar

StartChar: multiply
Encoding: 65562 -1 229
Width: 1336
Flags: W
LayerCount: 2
Fore
SplineSet
367 961 m 1,0,-1
 674 654 l 1,1,-1
 981 961 l 1,2,-1
 1099 843 l 1,3,-1
 792 536 l 1,4,-1
 1099 229 l 1,5,-1
 969 98 l 1,6,-1
 661 405 l 1,7,-1
 354 98 l 1,8,-1
 236 216 l 1,9,-1
 543 523 l 1,10,-1
 236 831 l 1,11,-1
 367 961 l 1,0,-1
EndSplineSet
EndChar

StartChar: brokenbar
Encoding: 65564 -1 231
Width: 553
Flags: W
HStem: 1541 20G<193 360>
VStem: 193 167<-467 353 741 1561>
LayerCount: 2
Fore
SplineSet
193 1561 m 1,0,-1
 360 1561 l 1,1,-1
 360 741 l 1,2,-1
 193 741 l 1,3,-1
 193 1561 l 1,0,-1
193 353 m 1,4,-1
 360 353 l 1,5,-1
 360 -467 l 1,6,-1
 193 -467 l 1,7,-1
 193 353 l 1,4,-1
EndSplineSet
EndChar

StartChar: currency
Encoding: 65565 -1 232
Width: 1199
Flags: W
HStem: 248 141<466.438 738.497> 879 141<462.179 731.06>
VStem: 199 171<484.676 784.474> 828 171<481.432 780.988>
LayerCount: 2
Fore
SplineSet
370 948 m 1,0,1
 474.914 1020 474.914 1020 606 1020 c 256,2,3
 733.355 1020 733.355 1020 834 955 c 1,4,-1
 1030 1174 l 1,5,-1
 1140 1064 l 1,6,-1
 923 872 l 1,7,8
 999 770.667 999 770.667 999 637 c 256,9,10
 999 503.316 999 503.316 918 401 c 1,11,-1
 1140 203 l 1,12,-1
 1030 93 l 1,13,-1
 829 319 l 1,14,15
 722.5 248 722.5 248 592 248 c 256,16,17
 463.097 248 463.097 248 364 312 c 1,18,-1
 169 93 l 1,19,-1
 59 203 l 1,20,-1
 274 394 l 1,21,22
 199 494 199 494 199 628 c 256,23,24
 199 762.974 199 762.974 281 866 c 1,25,-1
 59 1064 l 1,26,-1
 169 1174 l 1,27,-1
 370 948 l 1,0,1
604 389 m 0,28,29
 655 389 655 389 696 408 c 128,-1,30
 737 427 737 427 766.5 459 c 0,31,32
 828 525.712 828 525.712 828 628 c 0,33,34
 828 736.258 828 736.258 763 806.5 c 0,35,36
 695.91 879 695.91 879 592 879 c 0,37,38
 495.864 879 495.864 879 431.5 807 c 0,39,40
 370 738.203 370 738.203 370 637 c 0,41,42
 370 529.194 370 529.194 435 460 c 0,43,44
 501.697 389 501.697 389 604 389 c 0,28,29
EndSplineSet
EndChar

StartChar: commaaccent
Encoding: 65566 -1 233
Width: 598
Flags: W
HStem: -486 387
VStem: 246 161.682<-339.442 -117.218>
LayerCount: 2
Fore
SplineSet
169 -445 m 1,0,1
 246 -303.158 246 -303.158 246 -188.08 c 0,2,3
 246 -153.2 246 -153.2 238 -118 c 1,4,-1
 400 -99 l 1,5,6
 407.682 -132.682 407.682 -132.682 407.682 -160.886 c 128,-1,7
 407.682 -189.091 407.682 -189.091 401.341 -228.545 c 128,-1,8
 395 -268 395 -268 373.5 -318 c 0,9,10
 334.208 -409.377 334.208 -409.377 265 -486 c 1,11,-1
 169 -445 l 1,0,1
EndSplineSet
EndChar

StartChar: grave.cap
Encoding: 65567 -1 234
Width: 598
Flags: W
HStem: 1542 320
VStem: 20 569
LayerCount: 2
Fore
SplineSet
523 1542 m 1,0,-1
 20 1723 l 1,1,-1
 104 1862 l 1,2,-1
 589 1651 l 1,3,-1
 523 1542 l 1,0,-1
EndSplineSet
EndChar

StartChar: acute.cap
Encoding: 65568 -1 235
Width: 598
Flags: W
HStem: 1538 338
VStem: 51 574
LayerCount: 2
Fore
SplineSet
51 1646 m 1,0,-1
 536 1876 l 1,1,-1
 625 1739 l 1,2,-1
 123 1538 l 1,3,-1
 51 1646 l 1,0,-1
EndSplineSet
EndChar

StartChar: circumflex.cap
Encoding: 65569 -1 236
Width: 598
Flags: W
HStem: 1536 350
LayerCount: 2
Fore
SplineSet
-91 1622 m 1,0,-1
 299 1886 l 1,1,-1
 697 1625 l 1,2,-1
 594 1536 l 1,3,-1
 293 1702 l 1,4,-1
 0 1535 l 1,5,-1
 -91 1622 l 1,0,-1
EndSplineSet
EndChar

StartChar: dieresis.cap
Encoding: 65570 -1 237
Width: 598
Flags: W
HStem: 1572 212<-21.5433 127.543 470.457 619.543>
VStem: -53 212<1603.46 1752.54> 439 212<1603.46 1752.54>
LayerCount: 2
Fore
SplineSet
-53 1678 m 256,0,1
 -53 1723 -53 1723 -22.5 1753.5 c 128,-1,2
 8 1784 8 1784 53 1784 c 256,3,4
 98 1784 98 1784 128.5 1753.5 c 128,-1,5
 159 1723 159 1723 159 1678 c 256,6,7
 159 1633 159 1633 128.5 1602.5 c 128,-1,8
 98 1572 98 1572 53 1572 c 256,9,10
 8 1572 8 1572 -22.5 1602.5 c 128,-1,11
 -53 1633 -53 1633 -53 1678 c 256,0,1
439 1678 m 256,12,13
 439 1723 439 1723 469.5 1753.5 c 128,-1,14
 500 1784 500 1784 545 1784 c 256,15,16
 590 1784 590 1784 620.5 1753.5 c 128,-1,17
 651 1723 651 1723 651 1678 c 256,18,19
 651 1633 651 1633 620.5 1602.5 c 128,-1,20
 590 1572 590 1572 545 1572 c 256,21,22
 500 1572 500 1572 469.5 1602.5 c 128,-1,23
 439 1633 439 1633 439 1678 c 256,12,13
EndSplineSet
EndChar

StartChar: tilde.cap
Encoding: 65571 -1 238
Width: 598
Flags: W
HStem: 1573 147<327.548 546.682> 1661 147<41.2479 263.864>
LayerCount: 2
Fore
SplineSet
453 1720 m 0,0,1
 525.68 1720 525.68 1720 582 1808 c 1,2,-1
 680 1746 l 1,3,4
 615.074 1613.44 615.074 1613.44 485.5 1580.5 c 0,5,6
 456 1573 456 1573 418 1573 c 128,-1,7
 380 1573 380 1573 340 1586.5 c 128,-1,8
 300 1600 300 1600 263 1616.5 c 2,9,-1
 194.5 1647 l 2,10,11
 163 1661 163 1661 137 1661 c 0,12,13
 90.1765 1661 90.1765 1661 41 1617 c 0,14,15
 19 1598 19 1598 2 1573 c 1,16,-1
 -103 1644 l 1,17,18
 -48.9795 1732.75 -48.9795 1732.75 51.5 1782.5 c 0,19,20
 103 1808 103 1808 158 1808 c 128,-1,21
 213 1808 213 1808 253.5 1794 c 128,-1,22
 294 1780 294 1780 331 1763.5 c 2,23,-1
 399 1733.5 l 2,24,25
 430 1720 430 1720 453 1720 c 0,0,1
EndSplineSet
EndChar

StartChar: caron.cap
Encoding: 65572 -1 239
Width: 598
Flags: W
HStem: 1535 350
LayerCount: 2
Fore
SplineSet
697 1799 m 1,0,-1
 307 1535 l 1,1,-1
 -91 1796 l 1,2,-1
 12 1885 l 1,3,-1
 313 1721 l 1,4,-1
 606 1886 l 1,5,-1
 697 1799 l 1,0,-1
EndSplineSet
EndChar

StartChar: ring.cap
Encoding: 65573 -1 240
Width: 938
Flags: W
HStem: 1514 103<382.456 560.472> 1817 103<378.986 556.705>
VStem: 238 118<1639.47 1795.63> 583 118<1638.19 1793.14>
LayerCount: 2
Fore
SplineSet
385 1905.5 m 128,-1,1
 428 1920 428 1920 476.5 1920 c 128,-1,2
 525 1920 525 1920 566 1907 c 128,-1,3
 607 1894 607 1894 637 1868.5 c 0,4,5
 701 1814.1 701 1814.1 701 1720 c 0,6,7
 701 1628.4 701 1628.4 629.5 1569 c 0,8,9
 563.296 1514 563.296 1514 462 1514 c 0,10,11
 304 1514 304 1514 254.5 1625 c 0,12,13
 238 1662 238 1662 238 1710.5 c 128,-1,14
 238 1759 238 1759 257 1797.5 c 128,-1,15
 276 1836 276 1836 309 1863.5 c 128,-1,0
 342 1891 342 1891 385 1905.5 c 128,-1,1
390 1642.5 m 128,-1,17
 424 1617 424 1617 472.5 1617 c 128,-1,18
 521 1617 521 1617 552 1641.5 c 128,-1,19
 583 1666 583 1666 583 1714.5 c 128,-1,20
 583 1763 583 1763 548.5 1790 c 128,-1,21
 514 1817 514 1817 465.5 1817 c 128,-1,22
 417 1817 417 1817 386.5 1791 c 128,-1,23
 356 1765 356 1765 356 1716.5 c 128,-1,16
 356 1668 356 1668 390 1642.5 c 128,-1,17
EndSplineSet
EndChar

StartChar: eth
Encoding: 65574 -1 242
Width: 1290
Flags: W
HStem: -20 160<450.418 812.635> 810 160<444.873 830.467> 1396 165<407.352 515.836>
VStem: 95 190<296.176 651.602> 1000 190<354.67 686.259>
LayerCount: 2
Fore
SplineSet
413 1561 m 1,0,1
 624.853 1521.63 624.853 1521.63 790 1420 c 1,2,-1
 984 1559 l 1,3,-1
 1075 1435 l 1,4,-1
 917 1322 l 1,5,6
 1190 1063.96 1190 1063.96 1190 621 c 0,7,8
 1190 332.288 1190 332.288 1039 157.5 c 0,9,10
 885.657 -20 885.657 -20 626 -20 c 0,11,12
 392.041 -20 392.041 -20 246 106.5 c 0,13,14
 95 237.296 95 237.296 95 462 c 0,15,16
 95 683.758 95 683.758 256.5 829 c 0,17,18
 413.284 970 413.284 970 644 970 c 0,19,20
 835.333 970 835.333 970 970 869 c 1,21,22
 913.296 1082.73 913.296 1082.73 764 1212 c 1,23,-1
 548 1057 l 1,24,-1
 457 1181 l 1,25,-1
 628 1304 l 1,26,27
 509 1365 509 1365 348 1396 c 1,28,-1
 413 1561 l 1,0,1
1000 610 m 1,29,-1
 999 654 l 1,30,31
 823.5 810 823.5 810 626 810 c 0,32,33
 476.67 810 476.67 810 380.5 717 c 0,34,35
 285 624.648 285 624.648 285 474 c 0,36,37
 285 317.926 285 317.926 385 227.5 c 0,38,39
 481.765 140 481.765 140 644 140 c 0,40,41
 813.171 140 813.171 140 907.5 267.5 c 0,42,43
 1000 392.527 1000 392.527 1000 610 c 1,29,-1
EndSplineSet
EndChar

StartChar: dotlessj
Encoding: 567 567 246
Width: 558
Flags: W
HStem: 980 20G<184 374>
VStem: 184 190<-279.579 1000>
LayerCount: 2
Fore
SplineSet
55 -356 m 1,0,1
 126.429 -313.143 126.429 -313.143 154.5 -257 c 0,2,3
 184 -198 184 -198 184 -85 c 2,4,-1
 184 1000 l 1,5,-1
 374 1000 l 1,6,-1
 374 -65 l 2,7,8
 374 -307.222 374 -307.222 244 -417 c 0,9,10
 199 -455 199 -455 135 -485 c 1,11,-1
 55 -356 l 1,0,1
EndSplineSet
EndChar

StartChar: kgreenlandic
Encoding: 312 312 249
Width: 1112
Flags: W
HStem: -1.46154 136.462<926.724 976.842 978.39 1038> 0 21G<184 374> 980 20G<184 374 802.591 1045>
VStem: 184 190<0 501 560 1000>
LayerCount: 2
Fore
SplineSet
184 0 m 1,0,-1
 184 1000 l 1,1,-1
 374 1000 l 1,2,-1
 374 560 l 1,3,-1
 823 1000 l 1,4,-1
 1045 1000 l 1,5,-1
 575 540 l 1,6,-1
 855 238 l 1,7,8
 944.411 143.756 944.411 143.756 1067 135 c 1,9,-1
 1038 0 l 1,10,11
 1002.31 -4.92308 1002.31 -4.92308 977.615 -4.92308 c 128,-1,12
 952.923 -4.92308 952.923 -4.92308 922.462 -1.46154 c 128,-1,13
 892 2 892 2 857 17 c 0,14,15
 796.474 42.9398 796.474 42.9398 735 111 c 1,16,-1
 374 501 l 1,17,-1
 374 0 l 1,18,-1
 184 0 l 1,0,-1
EndSplineSet
EndChar

StartChar: lslash
Encoding: 322 322 251
Width: 715
Flags: W
HStem: 1541 20G<254 444>
VStem: 254 190<206.774 610 863 1561>
LayerCount: 2
Fore
SplineSet
444 1561 m 1,0,-1
 444 863 l 1,1,-1
 621 942 l 1,2,-1
 684 801 l 1,3,-1
 444 694 l 1,4,-1
 444 342 l 2,5,6
 444 240.348 444 240.348 458.5 205.674 c 0,7,8
 485.539 141.016 485.539 141.016 554 123 c 1,9,-1
 526 0 l 1,10,11
 498.899 -3.50725 498.899 -3.50725 461.5 -3.50725 c 128,-1,12
 424.101 -3.50725 424.101 -3.50725 379.551 16.2464 c 128,-1,13
 335 36 335 36 305 82.5 c 0,14,15
 254 161.55 254 161.55 254 328 c 2,16,-1
 254 610 l 1,17,-1
 124 552 l 1,18,-1
 61 693 l 1,19,-1
 254 779 l 1,20,-1
 254 1561 l 1,21,-1
 444 1561 l 1,0,-1
EndSplineSet
EndChar

StartChar: thorn
Encoding: 65575 -1 253
Width: 1269
Flags: W
HStem: -20 160<377.856 810.14> 860 160<480.022 843.806> 1542 20G<184 374>
VStem: 184 190<-467 2 163.493 775.008 917 1562> 984 190<314.896 710.528>
LayerCount: 2
Fore
SplineSet
601.8 -20 m 0,0,1
 479.6 -20 479.6 -20 374 2 c 1,2,-1
 374 -467 l 1,3,-1
 184 -467 l 1,4,-1
 184 1562 l 1,5,-1
 374 1562 l 1,6,-1
 374 917 l 1,7,8
 513.05 1020 513.05 1020 698 1020 c 0,9,10
 913.791 1020 913.791 1020 1045 883.5 c 0,11,12
 1174 749.298 1174 749.298 1174 530 c 0,13,14
 1174 284.882 1174 284.882 1010.5 131 c 0,15,16
 850.062 -20 850.062 -20 601.8 -20 c 0,0,1
374 173 m 1,17,18
 515.429 140 515.429 140 610.214 140 c 128,-1,19
 705 140 705 140 773 166.5 c 128,-1,20
 841 193 841 193 888 242 c 0,21,22
 984 342.085 984 342.085 984 518 c 0,23,24
 984 665.688 984 665.688 905.5 760.5 c 0,25,26
 823.118 860 823.118 860 685 860 c 0,27,28
 526.549 860 526.549 860 426.5 781.5 c 0,29,30
 394 756 394 756 374 723 c 1,31,-1
 374 173 l 1,17,18
EndSplineSet
EndChar

StartChar: Eth
Encoding: 65577 -1 257
Width: 1631
Flags: W
HStem: 0 168<470 1100.63> 706 154<27 969> 1248 168<470 1083.03>
VStem: 285 185<168 1248> 1398 196<469.289 948.814>
LayerCount: 2
Fore
SplineSet
27 860 m 1,0,-1
 969 860 l 1,1,-1
 969 706 l 1,2,-1
 27 706 l 1,3,-1
 27 860 l 1,0,-1
1594 727 m 0,4,5
 1594 563 1594 563 1539 428 c 128,-1,6
 1484 293 1484 293 1384 197.5 c 0,7,8
 1177.19 9.71709e-06 1177.19 9.71709e-06 838 0 c 2,9,-1
 285 0 l 1,10,-1
 285 1416 l 1,11,-1
 866 1416 l 2,12,13
 1190.5 1416 1190.5 1416 1389.5 1233.5 c 0,14,15
 1594 1045.95 1594 1045.95 1594 727 c 0,4,5
863 168 m 2,16,17
 1112.25 168 1112.25 168 1256 318 c 0,18,19
 1398 466.174 1398 466.174 1398 719 c 0,20,21
 1398 962.73 1398 962.73 1241 1107 c 0,22,23
 1087.56 1248 1087.56 1248 837 1248 c 2,24,-1
 470 1248 l 1,25,-1
 470 168 l 1,26,-1
 863 168 l 2,16,17
EndSplineSet
Position2: "'cpsp' Capital Spacing in Latin lookup 0 subtable" dx=16 dy=0 dh=32 dv=0
EndChar

StartChar: IJ
Encoding: 306 306 259
Width: 1428
Flags: W
HStem: -20 166<828.81 1025.43> 0 21G<184 369> 1396 20G<184 369 1059 1244>
VStem: 184 185<0 1416> 632 144<200.656 258.48> 1059 185<199.638 1416>
LayerCount: 2
Fore
SplineSet
184 0 m 1,0,-1
 184 1416 l 1,1,-1
 369 1416 l 1,2,-1
 369 0 l 1,3,-1
 184 0 l 1,0,-1
905 -20 m 0,4,5
 798 -20 798 -20 724.5 53.5 c 0,6,7
 652 126 652 126 632 254 c 1,8,-1
 776 299 l 1,9,10
 795 227 795 227 830 186.5 c 128,-1,11
 865 146 865 146 933.5 146 c 128,-1,12
 1002 146 1002 146 1030.5 198 c 128,-1,13
 1059 250 1059 250 1059 354 c 2,14,-1
 1059 1416 l 1,15,-1
 1244 1416 l 1,16,-1
 1244 384 l 2,17,18
 1244 178 1244 178 1156 79 c 128,-1,19
 1068 -20 1068 -20 905 -20 c 0,4,5
EndSplineSet
Position2: "'cpsp' Capital Spacing in Latin lookup 0 subtable" dx=16 dy=0 dh=32 dv=0
EndChar

StartChar: Lslash
Encoding: 321 321 261
Width: 1328
Flags: W
HStem: 0 168<489 1261> 1396 20G<304 489>
VStem: 304 185<168 1416>
LayerCount: 2
Fore
SplineSet
23 547 m 1,0,-1
 957 964 l 1,1,-1
 1019 823 l 1,2,-1
 85 406 l 1,3,-1
 23 547 l 1,0,-1
304 1416 m 1,4,-1
 489 1416 l 1,5,-1
 489 168 l 1,6,-1
 1261 168 l 1,7,-1
 1261 0 l 1,8,-1
 304 0 l 1,9,-1
 304 1416 l 1,4,-1
EndSplineSet
Position2: "'cpsp' Capital Spacing in Latin lookup 0 subtable" dx=16 dy=0 dh=32 dv=0
EndChar

StartChar: Thorn
Encoding: 65578 -1 263
Width: 1440
Flags: W
HStem: 0 21G<184 369> 240 168<369 947.187> 1053 168<369 934.267> 1396 20G<184 369>
VStem: 184 185<0 240 408 1053 1221 1416> 1137 196<568.802 890.319>
LayerCount: 2
Fore
SplineSet
184 0 m 1,0,-1
 184 1416 l 1,1,-1
 369 1416 l 1,2,-1
 369 1221 l 1,3,-1
 695 1221 l 2,4,5
 1143.99 1221 1143.99 1221 1283 968 c 0,6,7
 1333 877 1333 877 1333 745 c 256,8,9
 1333 494.864 1333 494.864 1132 360.5 c 0,10,11
 951.74 240 951.74 240 667 240 c 2,12,-1
 369 240 l 1,13,-1
 369 0 l 1,14,-1
 184 0 l 1,0,-1
692 408 m 2,15,16
 1000.55 408 1000.55 408 1101 581 c 0,17,18
 1137 643 1137 643 1137 733 c 256,19,20
 1137 899.198 1137 899.198 991.5 982.5 c 0,21,22
 868.36 1053 868.36 1053 666 1053 c 2,23,-1
 369 1053 l 1,24,-1
 369 408 l 1,25,-1
 692 408 l 2,15,16
EndSplineSet
Position2: "'cpsp' Capital Spacing in Latin lookup 0 subtable" dx=16 dy=0 dh=32 dv=0
EndChar

StartChar: macron.cap
Encoding: 65581 -1 278
Width: 584
Flags: W
HStem: 1676 140<-30 614>
VStem: -30 644<1676 1816>
LayerCount: 2
Fore
SplineSet
-30 1816 m 1,0,-1
 614 1816 l 1,1,-1
 614 1676 l 1,2,-1
 -30 1676 l 1,3,-1
 -30 1816 l 1,0,-1
EndSplineSet
EndChar

StartChar: cedilla.cap
Encoding: 65582 -1 279
Width: 598
Flags: W
HStem: -486 483
VStem: 261 177<-352.37 -231.625>
LayerCount: 2
Fore
SplineSet
144 -209 m 1,0,1
 156.633 -160.573 156.633 -160.573 174.317 -118.286 c 2,2,3
 204 -49.5 l 2,4,5
 216 -23 216 -23 227 -3 c 1,6,-1
 334 -15 l 1,7,8
 326 -33 326 -33 320 -48 c 2,9,-1
 308.5 -77 l 2,10,11
 303 -91 303 -91 301 -100 c 1,12,13
 365 -116 365 -116 401.5 -154 c 128,-1,14
 438 -192 438 -192 438 -237.5 c 128,-1,15
 438 -283 438 -283 417.5 -317.5 c 128,-1,16
 397 -352 397 -352 365.5 -383.5 c 0,17,18
 303.737 -445.263 303.737 -445.263 220 -486 c 1,19,-1
 146 -411 l 1,20,21
 186.5 -379.5 l 1,22,23
 261 -319.537 261 -319.537 261 -279 c 0,24,25
 261 -233.632 261 -233.632 144 -209 c 1,0,1
EndSplineSet
EndChar

StartChar: commaaccent.cap
Encoding: 65583 -1 280
Width: 598
Flags: W
HStem: -486 387
VStem: 246 161.682<-339.442 -117.218>
LayerCount: 2
Fore
SplineSet
169 -445 m 1,0,1
 246 -303.158 246 -303.158 246 -188.08 c 0,2,3
 246 -153.2 246 -153.2 238 -118 c 1,4,-1
 400 -99 l 1,5,6
 407.682 -132.682 407.682 -132.682 407.682 -160.886 c 128,-1,7
 407.682 -189.091 407.682 -189.091 401.341 -228.545 c 128,-1,8
 395 -268 395 -268 373.5 -318 c 0,9,10
 334.208 -409.377 334.208 -409.377 265 -486 c 1,11,-1
 169 -445 l 1,0,1
EndSplineSet
EndChar

StartChar: dotaccent.cap
Encoding: 65584 -1 287
Width: 584
Flags: W
HStem: 1592 247<203.068 380.932>
VStem: 168 248<1627.07 1804.45>
LayerCount: 2
Fore
SplineSet
202 1626 m 128,-1,1
 168 1660 168 1660 168 1716 c 128,-1,2
 168 1772 168 1772 202 1805.5 c 128,-1,3
 236 1839 236 1839 292 1839 c 128,-1,4
 348 1839 348 1839 382 1805.5 c 128,-1,5
 416 1772 416 1772 416 1716 c 128,-1,6
 416 1660 416 1660 382 1626 c 128,-1,7
 348 1592 348 1592 292 1592 c 128,-1,0
 236 1592 236 1592 202 1626 c 128,-1,1
EndSplineSet
EndChar

